<?xml version="1.0" encoding="UTF-8" standalone="no"?>
<svg
   xmlns:dc="http://purl.org/dc/elements/1.1/"
   xmlns:cc="http://creativecommons.org/ns#"
   xmlns:rdf="http://www.w3.org/1999/02/22-rdf-syntax-ns#"
   xmlns:svg="http://www.w3.org/2000/svg"
   xmlns="http://www.w3.org/2000/svg"
   xmlns:xlink="http://www.w3.org/1999/xlink"
   xmlns:sodipodi="http://sodipodi.sourceforge.net/DTD/sodipodi-0.dtd"
   xmlns:inkscape="http://www.inkscape.org/namespaces/inkscape"
   id="daa92041-3bd8-464c-9c92-61b3fade74bd"
   data-name="Layer 1"
   width="798.82"
   height="755.15"
   viewBox="0 0 798.82 755.15"
   version="1.1"
   sodipodi:docname="iphone-hand.svg"
   inkscape:export-filename="D:\Users\migue\Desktop\iphone-hand.png"
   inkscape:export-xdpi="96"
   inkscape:export-ydpi="96"
   inkscape:version="1.0.1 (3bc2e813f5, 2020-09-07)">
  <metadata
     id="metadata114">
    <rdf:RDF>
      <cc:Work
         rdf:about="">
        <dc:format>image/svg+xml</dc:format>
        <dc:type
           rdf:resource="http://purl.org/dc/dcmitype/StillImage" />
        <dc:title>mail_2</dc:title>
      </cc:Work>
    </rdf:RDF>
  </metadata>
  <sodipodi:namedview
     pagecolor="#ffffff"
     bordercolor="#666666"
     borderopacity="1"
     objecttolerance="10"
     gridtolerance="10"
     guidetolerance="10"
     inkscape:pageopacity="0"
     inkscape:pageshadow="2"
     inkscape:window-width="1327"
     inkscape:window-height="844"
     id="namedview112"
     showgrid="false"
     inkscape:zoom="0.79592233"
     inkscape:cx="262.3977"
     inkscape:cy="380.20294"
     inkscape:window-x="43"
     inkscape:window-y="50"
     inkscape:window-maximized="0"
     inkscape:current-layer="daa92041-3bd8-464c-9c92-61b3fade74bd"
     inkscape:pagecheckerboard="true" />
  <defs
     id="defs27">
    <linearGradient
       id="15164562-d11a-4880-a4be-123e1b3db71d"
       x1="589.65"
       y1="790.71"
       x2="589.65"
       y2="501.48"
       gradientTransform="translate(0.01 -0.01)"
       gradientUnits="userSpaceOnUse">
      <stop
         offset="0"
         stop-color="gray"
         stop-opacity="0.25"
         id="stop2" />
      <stop
         offset="0.54"
         stop-color="gray"
         stop-opacity="0.12"
         id="stop4" />
      <stop
         offset="1"
         stop-color="gray"
         stop-opacity="0.1"
         id="stop6" />
    </linearGradient>
    <linearGradient
       id="4387c4a6-2b07-43b0-875b-db8294e1d525"
       x1="411.34"
       y1="295.04"
       x2="411.34"
       y2="145.7"
       xlink:href="#15164562-d11a-4880-a4be-123e1b3db71d" />
    <linearGradient
       id="b3ecf4c1-be91-4dc4-9933-d34be9a535f7"
       x1="545.52"
       y1="654.39"
       x2="545.52"
       y2="72.43"
       gradientTransform="translate(-198.33 -72.44)"
       xlink:href="#15164562-d11a-4880-a4be-123e1b3db71d" />
    <linearGradient
       id="a2779652-f4e8-430c-84f8-85803e1803c0"
       x1="725.88"
       y1="600.13"
       x2="725.88"
       y2="322.86"
       xlink:href="#15164562-d11a-4880-a4be-123e1b3db71d" />
    <linearGradient
       id="21cc8c64-f270-4c0a-a12f-47a949bb1355"
       x1="637.94"
       y1="827.57"
       x2="637.94"
       y2="758.57"
       gradientTransform="translate(-198.33 -72.44)"
       xlink:href="#15164562-d11a-4880-a4be-123e1b3db71d" />
    <linearGradient
       id="1cb52d5d-ff8e-4354-9b08-01122ab0b5ee"
       x1="544.65"
       y1="346"
       x2="544.65"
       y2="205.86"
       gradientUnits="userSpaceOnUse">
      <stop
         offset="0"
         stop-opacity="0.12"
         id="stop13" />
      <stop
         offset="0.55"
         stop-opacity="0.09"
         id="stop15" />
      <stop
         offset="1"
         stop-opacity="0.02"
         id="stop17" />
    </linearGradient>
    <linearGradient
       id="081aff01-d630-4567-81f7-f799dc64c22c"
       x1="544.65"
       y1="339.86"
       x2="544.65"
       y2="212"
       xlink:href="#15164562-d11a-4880-a4be-123e1b3db71d"
       gradientTransform="matrix(1, 0, 0, 1, 0, 0)" />
    <linearGradient
       id="53983704-70f1-484c-b4a9-0fefea28f4ed"
       x1="551.34"
       y1="291.95"
       x2="551.34"
       y2="217.12"
       gradientTransform="translate(-197.33 -73.75) rotate(0.13)"
       xlink:href="#1cb52d5d-ff8e-4354-9b08-01122ab0b5ee" />
    <linearGradient
       id="07be2ee9-c937-4187-b89e-5aac7e382593"
       x1="396.05"
       y1="399.86"
       x2="396.05"
       y2="262.83"
       xlink:href="#15164562-d11a-4880-a4be-123e1b3db71d" />
    <linearGradient
       id="41444764-58a6-4e8b-8ef1-42407163ea5e"
       x1="386.87"
       y1="501.4"
       x2="386.87"
       y2="378"
       xlink:href="#15164562-d11a-4880-a4be-123e1b3db71d" />
    <linearGradient
       id="d5f06af9-7d77-4f55-b81c-ea1018bd06e7"
       x1="382.07"
       y1="603.69"
       x2="382.07"
       y2="494.16"
       xlink:href="#15164562-d11a-4880-a4be-123e1b3db71d" />
    <linearGradient
       id="a0f95284-1d1b-41ad-8ba2-df33ef14eff8"
       x1="347.18"
       y1="384.57"
       x2="347.18"
       y2="323.57"
       xlink:href="#1cb52d5d-ff8e-4354-9b08-01122ab0b5ee" />
    <linearGradient
       id="bf099e8a-7ee0-495a-b39d-11459c4d4e21"
       x1="958.8"
       y1="334.16"
       x2="958.8"
       y2="269.01"
       gradientTransform="translate(104.71 -563.96) rotate(32.36)"
       xlink:href="#15164562-d11a-4880-a4be-123e1b3db71d" />
  </defs>
  <title
     id="title29">mail_2</title>
  <path
     d="M794.94,582.69a81.21,81.21,0,0,0-161-15.14l-249.59-6.77,2.74,42.88s-35.59,82.12,151.46,104v83H754.79v-138A81.16,81.16,0,0,0,794.94,582.69Z"
     fill="url(#15164562-d11a-4880-a4be-123e1b3db71d)"
     id="path37"
     transform="translate(-198.34 -72.43)" />
  <path
     d="M395.66,605.46s-34.08,78.64,145.05,99.62v79.52H747.8V574L393,564.39Z"
     fill="#f6b9ad"
     id="path39"
     transform="translate(-198.34 -72.43)" />
  <path
     d="M499.16,277.29h0a38.18,38.18,0,0,1-52.5,11.93L335.47,215.95a38.18,38.18,0,0,1-11.93-52.5h0A38.18,38.18,0,0,1,376,151.52l111.19,73.27A38.18,38.18,0,0,1,499.16,277.29Z"
     fill="url(#4387c4a6-2b07-43b0-875b-db8294e1d525)"
     id="path41"
     transform="translate(-198.34 -72.43)" />
  <path
     d="M493,273.28h0a35.49,35.49,0,0,1-48.8,11.09L340.81,216.26a35.49,35.49,0,0,1-11.09-48.8h0a35.49,35.49,0,0,1,48.8-11.09l103.37,68.12A35.49,35.49,0,0,1,493,273.28Z"
     fill="#f6b9ad"
     id="path43"
     transform="translate(-198.34 -72.43)" />
  <circle
     cx="510.14"
     cy="512.94"
     r="77.77"
     fill="#f6b9ad"
     id="circle45" />
  <rect
     x="185.97"
     width="322.42"
     height="581.96"
     rx="12.25"
     ry="12.25"
     fill="url(#b3ecf4c1-be91-4dc4-9933-d34be9a535f7)"
     id="rect47" />
  <rect
     x="190.33"
     y="7.87"
     width="313.7"
     height="566.24"
     rx="13.64"
     ry="13.64"
     fill="#fff"
     id="rect49" />
  <path
     d="m 624.33,94.49 a 25.43,25.43 0 0 1 -25.07,21.63 H 490.92 A 25.43,25.43 0 0 1 465.86,94.49 h -57.4 a 11.91,11.91 0 0 0 -11.92,11.91 v 514 a 11.91,11.91 0 0 0 11.91,11.92 h 274.14 a 11.91,11.91 0 0 0 11.92,-11.91 v -514 A 11.91,11.91 0 0 0 682.6,94.49 Z"
     fill="#4285f4"
     id="path51"
     transform="translate(-198.34,-72.43)"
     style="display:inline;fill:#ff8976;fill-opacity:1"
     inkscape:label="mobileBackground" />
  <rect
     x="312.67"
     y="28.84"
     width="69.91"
     height="4.37"
     rx="2"
     ry="2"
     fill="#dbdbdb"
     id="rect53" />
  <circle
     cx="397.43"
     cy="30.59"
     r="2.62"
     fill="#dbdbdb"
     id="circle55" />
  <path
     d="M758.76,599.08h0c-22.57,5.22-38.06-9.5-43.28-32.06L663.62,374.46a42.24,42.24,0,0,1,31.55-50.51h0a42.24,42.24,0,0,1,50.51,31.55L788,553C793.22,575.6,781.32,593.86,758.76,599.08Z"
     fill="url(#a2779652-f4e8-430c-84f8-85803e1803c0)"
     id="path57"
     transform="translate(-198.34 -72.43)" />
  <rect
     x="693.86"
     y="330.01"
     width="70.78"
     height="282.61"
     rx="35.39"
     ry="35.39"
     transform="translate(-285.75 103.91) rotate(-13.01)"
     fill="#f6b9ad"
     id="rect59" />
  <rect
     x="291.59"
     y="686.15"
     width="296"
     height="69"
     fill="url(#21cc8c64-f270-4c0a-a12f-47a949bb1355)"
     id="rect61" />
  <rect
     x="299.59"
     y="694.15"
     width="280"
     height="54"
     fill="#ff8976"
     id="rect63" />
  <path
     d="M475.28,382.24h0a37.9,37.9,0,0,1-52.11,11.84l-94.5-61.53a37.9,37.9,0,0,1-11.84-52.11h0a37.9,37.9,0,0,1,52.11-11.84l94.5,61.53A37.9,37.9,0,0,1,475.28,382.24Z"
     fill="url(#07be2ee9-c937-4187-b89e-5aac7e382593)"
     id="path85"
     transform="translate(-198.34 -72.43)" />
  <rect
     style="opacity:0.9;fill:#e17968;fill-opacity:1;stroke-width:1.08985"
     id="rect945"
     width="276.95929"
     height="99.49511"
     x="209.81946"
     y="152.02489"
     ry="49.747555" />
  <path
     d="M470.26,379h0a35.49,35.49,0,0,1-48.8,11.09l-88.51-57.63a35.49,35.49,0,0,1-11.09-48.8h0a35.49,35.49,0,0,1,48.8-11.09l88.51,57.63A35.49,35.49,0,0,1,470.26,379Z"
     fill="#f6b9ad"
     id="path87"
     transform="translate(-198.34 -72.43)" />
  <path
     d="M456,483.86h0a37.72,37.72,0,0,1-51.87,11.79L329.55,447.4a37.72,37.72,0,0,1-11.79-51.87h0a37.72,37.72,0,0,1,51.87-11.79L444.2,432A37.72,37.72,0,0,1,456,483.86Z"
     fill="url(#41444764-58a6-4e8b-8ef1-42407163ea5e)"
     id="path89"
     transform="translate(-198.34 -72.43)" />
  <path
     d="M437.28,586h0a38.06,38.06,0,0,1-52.34,11.9L338.75,564.2a38.06,38.06,0,0,1-11.9-52.34h0A38.06,38.06,0,0,1,379.19,500l46.19,33.69A38.06,38.06,0,0,1,437.28,586Z"
     fill="url(#d5f06af9-7d77-4f55-b81c-ea1018bd06e7)"
     id="path91"
     transform="translate(-198.34 -72.43)" />
  <path
     d="M433.55,583.49h0a35.49,35.49,0,0,1-48.8,11.09l-43.07-31.42a35.49,35.49,0,0,1-11.09-48.8h0a35.49,35.49,0,0,1,48.8-11.09l43.07,31.42A35.49,35.49,0,0,1,433.55,583.49Z"
     fill="#f6b9ad"
     id="path93"
     transform="translate(-198.34 -72.43)" />
  <rect
     x="245.18"
     y="323.57"
     width="204"
     height="61"
     fill="url(#a0f95284-1d1b-41ad-8ba2-df33ef14eff8)"
     id="rect95" />
  <rect
     x="252.18"
     y="329.57"
     width="190"
     height="44"
     fill="#69f0ae"
     id="rect97" />
  <path
     d="M451.9,481.25h0a35.49,35.49,0,0,1-48.8,11.09l-70.16-45.4a35.49,35.49,0,0,1-11.09-48.8h0A35.49,35.49,0,0,1,370.65,387l70.16,45.4A35.49,35.49,0,0,1,451.9,481.25Z"
     fill="#f6b9ad"
     id="path109"
     transform="translate(-198.34 -72.43)" />
  <text
     xml:space="preserve"
     style="font-style:normal;font-variant:normal;font-weight:bold;font-stretch:normal;font-size:32px;line-height:1.25;font-family:sans-serif;-inkscape-font-specification:'sans-serif Bold';text-align:center;text-anchor:middle;white-space:pre;inline-size:403.2;fill:#000000;fill-opacity:1;stroke:none"
     x="456.85345"
     y="165.84534"
     id="text941"
     transform="translate(-106.79434,17.589656)"><tspan
       x="456.85345"
       y="165.84534"><tspan
         style="font-style:normal;font-variant:normal;font-weight:bold;font-stretch:normal;font-size:32px;font-family:'Myanmar Text';-inkscape-font-specification:'Myanmar Text Bold';fill:#ffffff;fill-opacity:1">Tu
</tspan></tspan><tspan
       x="456.85345"
       y="209.00203"><tspan
         style="font-style:normal;font-variant:normal;font-weight:bold;font-stretch:normal;font-size:32px;font-family:'Myanmar Text';-inkscape-font-specification:'Myanmar Text Bold';fill:#ffffff;fill-opacity:1">Emprendimiento</tspan></tspan></text>
</svg>
