<svg xmlns="http://www.w3.org/2000/svg" xmlns:svg="http://www.w3.org/2000/svg" id="svg945" width="79.998" height="161.849" version="1.1" viewBox="0 0 21.166 42.822"><defs id="defs939"><marker style="overflow:visible" id="Arrow1Lstart" orient="auto" refX="0" refY="0"><path style="fill-rule:evenodd;stroke:#000;stroke-width:1pt;stroke-opacity:1;fill:#fe9a38;fill-opacity:1" id="path1397" d="M 0.0,0.0 L 5.0,-5.0 L -12.5,0.0 L 5.0,5.0 L 0.0,0.0 z" transform="scale(0.8) translate(12.5,0)"/></marker><clipPath id="cp6"><path id="path42" fill-rule="evenodd" d="M 655.99417,529.0874 H 905.9888 v 505.7775 H 655.99417 Z" transform="scale(0.24)"/></clipPath></defs><metadata id="metadata942"/><g id="layer1" transform="translate(-91.848522,-126.94443)"><path style="display:inline;fill:#000;fill-opacity:0;stroke:#fff301;stroke-width:.39687502;stroke-miterlimit:4;stroke-dasharray:none;stroke-dashoffset:5.29167;stroke-opacity:1" id="path45" fill="#fe9a38" d="m 107.60995,164.79032 3.86091,-9.71885 1.28414,0.94656 z m -0.14894,-0.22369 -2.73212,-1.72392 0.54514,-1.03855 c 8.3e-4,-0.002 8.3e-4,-0.003 0.001,-0.005 6.2e-4,-0.001 0.002,-0.002 0.002,-0.004 l 1.33489,-3.15457 c 0.005,-0.011 0.007,-0.0227 0.008,-0.0344 l 0.10833,-1.30599 2.10703,3.69945 c 0.007,0.0129 0.0174,0.0229 0.0282,0.0314 z m -4.17015,4.88411 -0.78737,0.24518 0.0392,-6.32914 2.01694,-0.36693 2.76878,1.74722 z m -2.93675,-6.66901 -0.388146,-0.73906 0.778566,0.45205 c 0.0168,0.01 1.72261,-2.60023 1.73277,-2.58359 l 1.58569,2.59859 c 0.0103,0.0168 0.0387,-0.005 0.0557,-0.015 l 0.77836,-0.45205 -0.38794,0.73906 -2.07762,0.37817 z m 2.14938,6.91419 -0.70907,-0.24518 -4.25963,-4.70367 2.76899,-1.74722 2.01631,0.36693 z m -6.505116,-8.66433 c 0.01098,-0.009 0.02092,-0.0185 0.02837,-0.0314 l 2.106824,-3.69946 0.108324,1.306 c 10e-4,0.0117 0.0039,0.0233 0.0085,0.0343 l 1.334888,3.15458 c 6.21e-4,10e-4 0.0017,0.002 0.0025,0.004 6.21e-4,0.002 6.21e-4,0.003 0.0014,0.005 l 0.54514,1.03855 -2.732327,1.72392 z m -3.890335,-5.01356 1.284351,-0.94656 3.884102,9.74385 z m 0.732998,-1.33118 0.396013,0.22186 -0.913813,0.67329 z m 2.486061,-1.96721 -1.912339,2.03277 -0.414654,-0.23227 z m 0,0 3.03555,3.29589 -0.263249,0.75633 c -0.0029,0.009 -0.0046,0.0173 -0.0054,0.0262 -2.12e-4,0.003 -2.12e-4,0.006 -2.12e-4,0.009 0,0.004 -6.2e-4,0.007 -2.12e-4,0.0112 l 0.0075,0.0899 -2.203757,3.86907 -2.327407,-5.86188 z m 1.308405,-7.42038 0.172503,2.6241 c 2.06e-4,0.001 6.21e-4,0.003 8.28e-4,0.005 8.29e-4,0.006 0.0017,0.0121 0.0035,0.0181 2.07e-4,0.001 2.07e-4,0.002 6.22e-4,0.003 l 1.634383,5.21045 -2.99599,-0.69597 z m -0.467084,-2.72622 -0.204635,-0.98444 0.722225,0.42974 0.23292,0.28352 -0.190867,0.83083 z m -0.285204,-1.38196 c -2.07e-4,-2.1e-4 -2.07e-4,-4.3e-4 -4.14e-4,-4.3e-4 l -0.16466,-0.0862 0.192,-0.19959 0.751638,0.44976 0.02423,0.66372 -0.774629,-0.80628 c -0.0085,-0.009 -0.01781,-0.0156 -0.02817,-0.021 z m 1.712675,-4.09364 0.402848,3.70819 -1.213102,0.36297 -0.742317,-0.44435 z m -0.05116,-2.27171 1.643912,-1.04687 -0.584908,2.28564 -0.852298,0.42812 z m -1.106435,-1.08059 -0.790162,-2.95041 0.316686,-2.04318 2.166475,0.82981 1.105399,3.90216 -1.799872,1.14637 z m 0.03335,-6.44423 0.546382,0.82335 c 0.0015,0.002 0.0031,0.005 0.0048,0.007 l 0.867625,1.11889 -1.871743,-0.717 z m 2.794669,4.574 0.487975,0.99797 -0.339676,0.4225 -1.090742,-3.84944 z m 0.680804,1.11369 0.326002,-0.0699 2.00555,2.58639 -2.836304,2.44278 -0.627366,-1.81112 0.653049,-2.55205 z m 0.0099,6.44485 -0.436194,-1.25896 2.799226,-2.41073 v 5.99863 z m -0.581385,3.84972 0.561088,-3.55668 2.383329,2.34913 v 2.32498 z m 0.154304,8.21289 2.752573,-6.87068 0.0375,8.76817 z m 0.064,5.79466 -0.372816,-0.64332 1.822239,-2.55101 1.27669,-0.34611 v 4.3024 z m 0.617213,3.76273 -0.780423,-2.31729 0.18123,-1.20838 2.708093,0.75696 v 1.42462 z m 0.013,0.25641 2.09585,-1.33555 v 0 l -1.49023,2.31187 -0.968905,-0.56277 z m -1.192179,-4.54445 0.372816,0.64311 -0.198007,1.32098 c -0.0027,0.0177 -10e-4,0.0356 0.0046,0.0524 l 0.81378,2.41656 -0.304265,0.34653 -1.258875,-2.97496 -0.136285,-1.64483 v -4.3e-4 l -0.0021,-0.0248 z m -0.525464,-0.48598 0.08823,-0.2537 0.486317,-1.39736 1.622586,-0.43978 -1.679337,2.351 -0.651392,0.12342 z m 0.01843,-2.87194 0.35314,1.12639 -0.43226,1.24272 -2.797362,-3.03719 z m 0.472027,-4.81813 0.282097,2.94479 -0.198007,3.09422 -0.594641,-2.08668 z m -1.287251,-1.7466 1.287251,1.7466 -0.652428,3.49965 -1.304235,-4.15775 z m 1.218073,-2.40532 -1.32184,2.14912 c -2.12e-4,2.1e-4 -4.24e-4,2.1e-4 -4.24e-4,4.2e-4 l -0.598577,0.97341 -0.274641,-4.15025 0.04971,0.0354 v 2.1e-4 0 l 0.0012,8.3e-4 c 6.21e-4,4.3e-4 0.0012,6.3e-4 0.0019,10e-4 0.0052,0.004 0.01036,0.007 0.01616,0.01 z m -0.04308,2.84301 0.08285,0.89328 -1.131911,-1.53577 1.128183,-1.83401 -0.07954,2.46235 c -2.12e-4,0.005 0,0.009 4.25e-4,0.0142 z m 0.388556,-4.77671 -0.131521,0.83417 v 2.1e-4 l -0.140013,0.88745 -2.045309,-0.94302 -0.03749,-0.98069 -0.03397,-0.9297 1.194668,-0.35757 z m 0.04702,-0.29763 -1.093801,-1.36468 -0.446965,-4.113 0.85582,-0.42999 1.110992,3.20681 z m 0.157204,9.52409 2.690284,1.82985 -3.04011,0.82418 z m -0.01574,-0.63499 -0.354797,-3.82849 0.09258,-2.86737 0.140634,-0.89078 2.942347,1.11681 z M 102.32,132.47931 v 2.71564 l -1.80526,-2.32831 z m 0.22265,27.49458 2.09626,1.33597 0.36309,0.41355 -0.9687,0.56277 z m 0,-1.68894 2.70851,-0.75717 0.18102,1.20838 -0.78022,2.31729 -2.10931,-1.34409 z m 0,-4.53467 1.2771,0.34611 1.82225,2.55101 -0.37303,0.64332 -2.72632,0.76196 z m 0.0377,-9.1249 2.75264,6.87068 -2.79032,1.89791 z m -0.0377,-2.54955 2.38354,-2.34913 0.5613,3.55647 -2.94484,1.11764 z m 0,-6.31228 2.79944,2.41094 -0.4362,1.25896 -2.36324,2.32915 z m 0,-3.28445 1.80547,0.38754 -1.80547,2.32873 z m 2.37318,0.5095 0.47907,0.59607 0.65305,2.55205 -0.62737,1.81112 -2.83609,-2.44278 2.00554,-2.58639 z m 1.626,-3.54266 -1.09328,3.84944 -0.33968,-0.4225 z m 0.19003,0.13542 2.16627,-0.82981 0.31669,2.04318 -0.79017,2.95041 -0.99831,0.88475 -1.79988,-1.14637 z m 1.1083,-1.45044 c 0.002,-0.002 0.003,-0.004 0.005,-0.007 l 0.54618,-0.82335 0.45297,1.2319 -1.87174,0.717 z m -0.72865,8.3617 -0.8523,-0.42812 -0.5847,-2.28564 1.64371,1.04687 z m 1.70833,4.23163 -0.74253,0.44435 -1.2131,-0.36297 0.40306,-3.7084 z m 0.32497,0.38025 -0.16445,0.0862 c -2.2e-4,0 -4.3e-4,2.2e-4 -6.2e-4,4.3e-4 -0.0102,0.005 -0.0197,0.0123 -0.028,0.021 l -0.77462,0.80628 0.024,-0.66371 0.75185,-0.44977 z m -0.45007,1.53452 -0.55964,0.49367 -0.15705,-1.76054 0.80159,0.40689 0.11971,-0.19044 z m 0.71705,9.82504 -2.9962,0.69597 1.63459,-5.21045 c 4.2e-4,-0.001 2.1e-4,-0.002 6.2e-4,-0.003 0.002,-0.006 0.003,-0.0121 0.003,-0.0181 2.2e-4,-0.001 8.3e-4,-0.003 8.3e-4,-0.005 l 0.17364,-2.62311 z m -3.62999,2.16431 0.48653,1.39736 0.22162,0.63728 -0.65098,-0.12342 -1.67954,-2.351 z m -0.0464,-0.24414 -3.04032,-0.82418 2.69049,-1.82985 z m -0.0721,-9.98488 0.0928,2.86737 -0.3548,3.82849 -2.82097,-6.46983 2.94255,-1.11681 z m 0.97326,-3.55792 -1.09401,1.36468 -0.42605,-2.70086 1.1112,-3.20681 0.85561,0.42999 z m 1.30754,1.46042 -0.0375,0.9807 -2.04552,0.94302 -0.13981,-0.88725 v -6.2e-4 l -0.13172,-0.83376 1.19383,-1.48935 1.19467,0.35756 z m -0.6868,4.28492 -1.32205,-2.14933 2.12629,-0.98028 c 0.006,-0.003 0.0112,-0.006 0.0164,-0.01 6.2e-4,-2.1e-4 0.001,-4.2e-4 0.002,-8.3e-4 l 0.001,-6.2e-4 c 0,-2.2e-4 2.1e-4,-4.3e-4 2.1e-4,-4.3e-4 l 0.0497,-0.0354 -0.27464,4.15025 z m -1.3583,-1.78282 1.12818,1.83422 -1.1317,1.53556 0.0826,-0.89328 c 6.2e-4,-0.005 8.3e-4,-0.009 6.2e-4,-0.0142 z m -0.0329,3.78541 1.28704,-1.7466 0.66962,1.0885 -1.30423,4.15775 z m 3.34851,4.15005 -2.79736,3.03719 -0.43247,-1.24272 0.35335,-1.12639 z m -3.43281,1.88896 -0.1978,-3.09422 0.2821,-2.94479 0.51034,3.95233 z m -0.12572,4.10113 -0.19801,-1.32098 0.37282,-0.64311 0.70856,0.13466 -0.002,0.0248 -2.1e-4,2.1e-4 v 0 l -0.13629,1.64503 -1.25867,2.97497 -0.30426,-0.34653 0.81357,-2.41656 c 0.006,-0.0169 0.007,-0.0348 0.005,-0.0524 z m 5.63718,-3.81433 -2.32761,5.86188 -2.20355,-3.86907 0.007,-0.0899 c 2.1e-4,-0.004 -2.1e-4,-0.008 -4.3e-4,-0.0117 0,-0.003 2.2e-4,-0.005 0,-0.008 -0.001,-0.009 -0.002,-0.0179 -0.005,-0.0264 l -0.26325,-0.75633 3.03534,-3.29589 z m 0.56979,-0.39503 -0.41465,0.23227 -1.91264,-2.03265 z m 0.67666,1.06186 -0.9136,-0.67329 0.3958,-0.22186 z m 0.47203,0.38275 c -0.002,-0.0108 -0.006,-0.0219 -0.0118,-0.0321 l -0.84049,-1.45313 c -0.001,-0.002 -0.003,-0.004 -0.005,-0.007 -0.002,-0.004 -0.005,-0.007 -0.007,-0.0104 -0.003,-0.003 -0.006,-0.006 -0.01,-0.009 l -0.006,-0.006 -2.48897,-1.96138 -1.41421,-7.18537 0.13214,-1.99843 0.51035,-0.51574 c 0.003,-0.002 0.005,-0.005 0.008,-0.008 0.002,-0.002 0.005,-0.004 0.007,-0.006 0.004,-0.004 0.007,-0.009 0.01,-0.0137 0.001,-0.002 0.002,-0.003 0.004,-0.005 0.004,-0.007 0.007,-0.0139 0.009,-0.0212 6.2e-4,-0.002 6.2e-4,-0.003 0.001,-0.005 10e-4,-0.006 0.002,-0.0119 0.003,-0.0179 0,-8.3e-4 4.2e-4,-10e-4 4.2e-4,-0.002 l 0.22556,-1.34721 0.2415,-0.12654 c 0.0311,-0.0162 0.0526,-0.0464 0.0582,-0.0812 0.006,-0.0348 -0.005,-0.0701 -0.0296,-0.0955 l -0.36805,-0.38274 -1.72386,-4.02726 0.22576,-1.82194 1.05466,-0.93449 c 0.0164,-0.0146 0.0282,-0.0335 0.034,-0.0547 l 0.80486,-3.00577 c 0.004,-0.015 0.005,-0.0308 0.002,-0.0462 l -0.34134,-2.20302 c 0,0 -2.1e-4,-2.1e-4 -2.1e-4,-4.1e-4 -2.1e-4,-0.002 -0.001,-0.004 -0.001,-0.006 -10e-4,-0.005 -0.002,-0.0104 -0.004,-0.0154 l -0.56689,-1.54181 c -0.0145,-0.0393 -0.0499,-0.0672 -0.0913,-0.0722 -0.0418,-0.005 -0.0824,0.0139 -0.10563,0.0491 l -0.66526,1.00255 -1.10975,1.43128 c -0.002,0.002 -0.004,0.006 -0.005,0.008 -0.002,0.003 -0.004,0.005 -0.005,0.008 -4.3e-4,8.4e-4 -10e-4,0.002 -10e-4,0.002 l -1.14351,2.32894 -0.48094,0.98381 -2.46141,-0.52843 h -8.3e-4 c -0.005,-10e-4 -0.009,-10e-4 -0.0143,-0.002 -0.003,-2.1e-4 -0.005,-6.3e-4 -0.008,-6.3e-4 -0.002,0 -0.005,4.2e-4 -0.008,6.3e-4 -0.005,4.1e-4 -0.01,6.2e-4 -0.0145,0.002 h -8.2e-4 l -2.461414,0.52843 -1.624235,-3.31275 c -4.24e-4,-8.3e-4 -0.0012,-0.002 -0.0017,-0.003 -0.0014,-0.003 -0.0033,-0.005 -0.005,-0.008 -0.0019,-0.003 -0.0033,-0.006 -0.0052,-0.008 l -1.109964,-1.43128 -0.665269,-1.00255 c -0.0232,-0.0352 -0.06379,-0.0537 -0.105631,-0.0491 -0.04142,0.005 -0.07664,0.0329 -0.09134,0.0722 l -0.566887,1.54181 c -0.0012,0.003 -0.0017,0.007 -0.0027,0.01 -10e-4,0.004 -0.0023,0.007 -0.0027,0.0114 l -0.341748,2.20302 c -0.0023,0.0154 -0.0014,0.0312 0.0025,0.0462 l 0.805075,3.00576 c 0.0056,0.0212 0.0174,0.0402 0.03376,0.0547 l 1.054655,0.93449 0.225967,1.82194 -1.724066,4.02725 -0.367845,0.38275 c -0.02444,0.0254 -0.03542,0.0608 -0.02983,0.0955 0.0056,0.0348 0.02734,0.0649 0.05841,0.0812 l 0.241295,0.12654 0.225554,1.28144 c 2.06e-4,6.2e-4 4.13e-4,0.001 4.13e-4,0.002 6.22e-4,0.006 0.0019,0.0127 0.0035,0.0189 2.07e-4,0.001 4.14e-4,0.003 8.29e-4,0.004 0.0023,0.007 0.0052,0.0146 0.0091,0.0214 8.28e-4,0.002 0.0021,0.003 0.0029,0.004 0.0031,0.005 0.0064,0.01 0.01036,0.0146 0.0021,0.002 0.0041,0.004 0.0064,0.006 0.0027,0.003 0.005,0.006 0.0081,0.008 l 0.510551,0.58172 0.132143,1.99843 -1.414216,7.18516 -2.489167,1.96159 c -0.0023,0.002 -0.0041,0.004 -0.0062,0.006 -0.0031,0.003 -0.0062,0.006 -0.0089,0.009 -0.0029,0.003 -0.0054,0.007 -0.0079,0.0108 -0.0014,0.002 -0.0031,0.004 -0.0046,0.006 l -0.001,0.002 h -2.07e-4 l -0.839042,1.45105 c -0.006,0.0102 -0.0095,0.0212 -0.01201,0.0321 -4.15e-4,0.002 -8.29e-4,0.003 -0.001,0.005 -0.0023,0.0119 -0.0021,0.0239 -4.14e-4,0.0356 4.14e-4,0.002 6.21e-4,0.004 8.28e-4,0.006 0.0025,0.0119 0.0068,0.0235 0.01305,0.0343 6.21e-4,6.3e-4 6.21e-4,0.002 10e-4,0.002 l 5.389055,8.74382 2.12e-4,2.1e-4 v 4.3e-4 c 0.0017,0.002 0.0037,0.004 0.0052,0.006 0.0025,0.003 0.0052,0.006 0.0079,0.01 0.0025,0.002 0.0046,0.005 0.0072,0.008 6.21e-4,4.2e-4 8.27e-4,8.3e-4 0.0012,0.001 l 4.511278,4.92262 c 0.0205,0.0177 0.0464,0.0271 0.0729,0.0271 0.0114,0 0.0228,-0.002 0.0338,-0.005 0.0371,-0.0117 0.065,-0.042 0.0744,-0.0799 l 0.53462,0.0158 0.61511,-0.0158 c 0.009,0.0379 0.0375,0.0683 0.0744,0.0799 0.0112,0.004 0.0226,0.005 0.0338,0.005 0.0265,0 0.0524,-0.009 0.0729,-0.0271 l 4.28925,-4.92262 c 4.2e-4,-4.2e-4 6.2e-4,-8.3e-4 0.001,-0.001 0.003,-0.002 0.005,-0.005 0.007,-0.008 0.003,-0.003 0.005,-0.006 0.008,-0.01 0.002,-0.002 0.004,-0.004 0.005,-0.006 0,-2.1e-4 0,-2.1e-4 2.1e-4,-4.3e-4 v -2.1e-4 l 5.38905,-8.74382 c 6.2e-4,-8.3e-4 6.2e-4,-0.002 10e-4,-0.003 0.006,-0.0108 0.0106,-0.0221 0.0131,-0.0341 4.3e-4,-0.002 6.2e-4,-0.004 8.3e-4,-0.006 0.002,-0.0116 0.002,-0.0237 -2.1e-4,-0.0356 -4.3e-4,-0.002 -8.3e-4,-0.003 -0.001,-0.005"/></g></svg>