<svg xmlns="http://www.w3.org/2000/svg" xmlns:svg="http://www.w3.org/2000/svg" id="svg8" width="503" height="580.351" version="1.1" viewBox="0 0 133.085 153.551"><metadata id="metadata5"/><g id="layer1" transform="translate(21.492894,53.685846)"><g id="g1684" transform="translate(-21.096019,-53.288971)"><g id="g884"><path style="fill:none;stroke:#000;stroke-width:.529167" id="path866" d="m 13.2292,0 c 0,50.919 0,101.838 0,152.757"/><path style="fill:none;stroke:#000;stroke-width:.529167" id="path868" d="m 26.4583,0 c 0,50.919 0,101.838 0,152.757"/><path style="fill:none;stroke:#000;stroke-width:.529167" id="path870" d="m 39.6875,0 c 0,50.919 0,101.838 0,152.757"/><path style="fill:none;stroke:#000;stroke-width:.529167" id="path872" d="m 52.9167,0 c 0,50.919 0,101.838 0,152.757"/><path style="fill:none;stroke:#000;stroke-width:.529167" id="path874" d="m 66.1458,0 c 0,50.919 0,101.838 0,152.757"/><path style="fill:none;stroke:#000;stroke-width:.529167" id="path876" d="m 79.375,0 c 0,50.919 0,101.838 0,152.757"/><path style="fill:none;stroke:#000;stroke-width:.529167" id="path878" d="m 92.6042,0 c 0,50.919 0,101.838 0,152.757"/><path style="fill:none;stroke:#000;stroke-width:.529167" id="path880" d="m 105.833,0 c 0,50.919 0,101.838 0,152.757"/><path style="fill:none;stroke:#000;stroke-width:.529167" id="path882" d="m 119.062,0 c 0,50.919 0,101.838 0,152.757"/></g><g id="g916"><path style="fill:none;stroke:#000;stroke-width:.529167" id="path886" d="M 25.1354,152.757 C 16.756933,147.91967 8.3784667,143.08233 0,138.245"/><path style="fill:none;stroke:#000;stroke-width:.529167" id="path888" d="M 51.5937,152.757 C 34.3958,142.828 17.1979,132.899 0,122.97"/><path style="fill:none;stroke:#000;stroke-width:.529167" id="path890" d="M 78.0521,152.757 C 52.034733,137.736 26.017367,122.715 0,107.694"/><path style="fill:none;stroke:#000;stroke-width:.529167" id="path892" d="M 104.51,152.757 C 69.673333,132.64407 34.836667,112.53113 0,92.4182"/><path style="fill:none;stroke:#000;stroke-width:.529167" id="path894" d="M 130.969,152.757 C 87.312667,127.55217 43.656333,102.34733 0,77.1425"/><path style="fill:none;stroke:#000;stroke-width:.529167" id="path896" d="M 132.292,138.245 C 88.194667,112.78557 44.097333,87.326133 0,61.8667"/><path style="fill:none;stroke:#000;stroke-width:.529167" id="path898" d="M 132.292,122.97 C 88.194667,97.510333 44.097333,72.050667 0,46.591"/><path style="fill:none;stroke:#000;stroke-width:.529167" id="path900" d="M 132.292,107.694 C 88.194667,82.234433 44.097333,56.774867 0,31.3153"/><path style="fill:none;stroke:#000;stroke-width:.529167" id="path902" d="M 132.292,92.4182 C 88.194667,66.958633 44.097333,41.499067 0,16.0395"/><path style="fill:none;stroke:#000;stroke-width:.529167" id="path904" d="M 132.292,77.1425 C 88.194667,51.682929 44.097333,26.223358 0,0.763787"/><path style="fill:none;stroke:#000;stroke-width:.529167" id="path906" d="M 132.292,61.8667 C 96.573133,41.244467 60.854267,20.622233 25.1354,0"/><path style="fill:none;stroke:#000;stroke-width:.529167" id="path908" d="M 132.292,46.591 C 105.39257,31.060667 78.493133,15.530333 51.5937,0"/><path style="fill:none;stroke:#000;stroke-width:.529167" id="path910" d="M 132.292,31.3153 C 114.21203,20.876867 96.132067,10.438433 78.0521,0"/><path style="fill:none;stroke:#000;stroke-width:.529167" id="path912" d="M 132.292,16.0395 C 123.03133,10.693 113.77067,5.3465 104.51,0"/><path style="fill:none;stroke:#000;stroke-width:.529167" id="path914" d="M 132.292,0.763787 C 131.851,0.50919133 131.41,0.25459567 130.969,0"/></g><g id="g948"><path style="fill:none;stroke:#000;stroke-width:.529167" id="path918" d="m 107.156,152.757 c 8.37867,-4.83733 16.75733,-9.67467 25.136,-14.512"/><path style="fill:none;stroke:#000;stroke-width:.529167" id="path920" d="m 80.6979,152.757 c 17.198033,-9.929 34.39607,-19.858 51.5941,-29.787"/><path style="fill:none;stroke:#000;stroke-width:.529167" id="path922" d="m 54.2396,152.757 c 26.017467,-15.021 52.03493,-30.042 78.0524,-45.063"/><path style="fill:none;stroke:#000;stroke-width:.529167" id="path924" d="M 27.7812,152.757 C 62.618133,132.64407 97.455067,112.53113 132.292,92.4182"/><path style="fill:none;stroke:#000;stroke-width:.529167" id="path926" d="M 1.32292,152.757 C 44.97928,127.55217 88.63564,102.34733 132.292,77.1425"/><path style="fill:none;stroke:#000;stroke-width:.529167" id="path928" d="M 0,138.245 C 44.097333,112.78557 88.194667,87.326133 132.292,61.8667"/><path style="fill:none;stroke:#000;stroke-width:.529167" id="path930" d="M 0,122.97 C 44.097333,97.510333 88.194667,72.050667 132.292,46.591"/><path style="fill:none;stroke:#000;stroke-width:.529167" id="path932" d="M 0,107.694 C 44.097333,82.234433 88.194667,56.774867 132.292,31.3153"/><path style="fill:none;stroke:#000;stroke-width:.529167" id="path934" d="M 0,92.4182 C 44.097333,66.958633 88.194667,41.499067 132.292,16.0395"/><path style="fill:none;stroke:#000;stroke-width:.529167" id="path936" d="M 0,77.1425 C 44.097333,51.682929 88.194667,26.223358 132.292,0.763787"/><path style="fill:none;stroke:#000;stroke-width:.529167" id="path938" d="M 0,61.8667 C 35.718667,41.244467 71.437333,20.622233 107.156,0"/><path style="fill:none;stroke:#000;stroke-width:.529167" id="path940" d="M 0,46.591 C 26.8993,31.060667 53.7986,15.530333 80.6979,0"/><path style="fill:none;stroke:#000;stroke-width:.529167" id="path942" d="M 0,31.3153 C 18.079867,20.876867 36.159733,10.438433 54.2396,0"/><path style="fill:none;stroke:#000;stroke-width:.529167" id="path944" d="M 0,16.0395 C 9.2604,10.693 18.5208,5.3465 27.7812,0"/><path style="fill:none;stroke:#000;stroke-width:.529167" id="path946" d="M 0,0.763787 C 0.44097333,0.50919133 0.88194667,0.25459567 1.32292,0"/></g><g id="g970"><path style="fill:none;stroke:#000;stroke-width:.132292" id="path950" d="m 6.61458,0 c 0,50.919 0,101.838 0,152.757"/><path style="fill:none;stroke:#000;stroke-width:.132292" id="path952" d="m 19.8438,0 c 0,50.919 0,101.838 0,152.757"/><path style="fill:none;stroke:#000;stroke-width:.132292" id="path954" d="m 33.0729,0 c 0,50.919 0,101.838 0,152.757"/><path style="fill:none;stroke:#000;stroke-width:.132292" id="path956" d="m 46.3021,0 c 0,50.919 0,101.838 0,152.757"/><path style="fill:none;stroke:#000;stroke-width:.132292" id="path958" d="m 59.5312,0 c 0,50.919 0,101.838 0,152.757"/><path style="fill:none;stroke:#000;stroke-width:.132292" id="path960" d="m 72.7604,0 c 0,50.919 0,101.838 0,152.757"/><path style="fill:none;stroke:#000;stroke-width:.132292" id="path962" d="m 85.9896,0 c 0,50.919 0,101.838 0,152.757"/><path style="fill:none;stroke:#000;stroke-width:.132292" id="path964" d="m 99.2188,0 c 0,50.919 0,101.838 0,152.757"/><path style="fill:none;stroke:#000;stroke-width:.132292" id="path966" d="m 112.448,0 c 0,50.919 0,101.838 0,152.757"/><path style="fill:none;stroke:#000;stroke-width:.132292" id="path968" d="m 125.677,0 c 0,50.919 0,101.838 0,152.757"/></g><g id="g1132"><path style="fill:none;stroke:#000;stroke-width:.0264583" id="path972" d="m 1.32292,0 c 0,50.919 0,101.838 0,152.757"/><path style="fill:none;stroke:#000;stroke-width:.0264583" id="path974" d="m 2.64583,0 c 0,50.919 0,101.838 0,152.757"/><path style="fill:none;stroke:#000;stroke-width:.0264583" id="path976" d="m 3.96875,0 c 0,50.919 0,101.838 0,152.757"/><path style="fill:none;stroke:#000;stroke-width:.0264583" id="path978" d="m 5.29167,0 c 0,50.919 0,101.838 0,152.757"/><path style="fill:none;stroke:#000;stroke-width:.0264583" id="path980" d="m 7.9375,0 c 0,50.919 0,101.838 0,152.757"/><path style="fill:none;stroke:#000;stroke-width:.0264583" id="path982" d="m 9.26042,0 c 0,50.919 0,101.838 0,152.757"/><path style="fill:none;stroke:#000;stroke-width:.0264583" id="path984" d="m 10.5833,0 c 0,50.919 0,101.838 0,152.757"/><path style="fill:none;stroke:#000;stroke-width:.0264583" id="path986" d="m 11.9062,0 c 0,50.919 0,101.838 0,152.757"/><path style="fill:none;stroke:#000;stroke-width:.0264583" id="path988" d="m 14.5521,0 c 0,50.919 0,101.838 0,152.757"/><path style="fill:none;stroke:#000;stroke-width:.0264583" id="path990" d="m 15.875,0 c 0,50.919 0,101.838 0,152.757"/><path style="fill:none;stroke:#000;stroke-width:.0264583" id="path992" d="m 17.1979,0 c 0,50.919 0,101.838 0,152.757"/><path style="fill:none;stroke:#000;stroke-width:.0264583" id="path994" d="m 18.5208,0 c 0,50.919 0,101.838 0,152.757"/><path style="fill:none;stroke:#000;stroke-width:.0264583" id="path996" d="m 21.1667,0 c 0,50.919 0,101.838 0,152.757"/><path style="fill:none;stroke:#000;stroke-width:.0264583" id="path998" d="m 22.4896,0 c 0,50.919 0,101.838 0,152.757"/><path style="fill:none;stroke:#000;stroke-width:.0264583" id="path1000" d="m 23.8125,0 c 0,50.919 0,101.838 0,152.757"/><path style="fill:none;stroke:#000;stroke-width:.0264583" id="path1002" d="m 25.1354,0 c 0,50.919 0,101.838 0,152.757"/><path style="fill:none;stroke:#000;stroke-width:.0264583" id="path1004" d="m 27.7812,0 c 0,50.919 0,101.838 0,152.757"/><path style="fill:none;stroke:#000;stroke-width:.0264583" id="path1006" d="m 29.1042,0 c 0,50.919 0,101.838 0,152.757"/><path style="fill:none;stroke:#000;stroke-width:.0264583" id="path1008" d="m 30.4271,0 c 0,50.919 0,101.838 0,152.757"/><path style="fill:none;stroke:#000;stroke-width:.0264583" id="path1010" d="m 31.75,0 c 0,50.919 0,101.838 0,152.757"/><path style="fill:none;stroke:#000;stroke-width:.0264583" id="path1012" d="m 34.3958,0 c 0,50.919 0,101.838 0,152.757"/><path style="fill:none;stroke:#000;stroke-width:.0264583" id="path1014" d="m 35.7188,0 c 0,50.919 0,101.838 0,152.757"/><path style="fill:none;stroke:#000;stroke-width:.0264583" id="path1016" d="m 37.0417,0 c 0,50.919 0,101.838 0,152.757"/><path style="fill:none;stroke:#000;stroke-width:.0264583" id="path1018" d="m 38.3646,0 c 0,50.919 0,101.838 0,152.757"/><path style="fill:none;stroke:#000;stroke-width:.0264583" id="path1020" d="m 41.0104,0 c 0,50.919 0,101.838 0,152.757"/><path style="fill:none;stroke:#000;stroke-width:.0264583" id="path1022" d="m 42.3333,0 c 0,50.919 0,101.838 0,152.757"/><path style="fill:none;stroke:#000;stroke-width:.0264583" id="path1024" d="m 43.6562,0 c 0,50.919 0,101.838 0,152.757"/><path style="fill:none;stroke:#000;stroke-width:.0264583" id="path1026" d="m 44.9792,0 c 0,50.919 0,101.838 0,152.757"/><path style="fill:none;stroke:#000;stroke-width:.0264583" id="path1028" d="m 47.625,0 c 0,50.919 0,101.838 0,152.757"/><path style="fill:none;stroke:#000;stroke-width:.0264583" id="path1030" d="m 48.9479,0 c 0,50.919 0,101.838 0,152.757"/><path style="fill:none;stroke:#000;stroke-width:.0264583" id="path1032" d="m 50.2708,0 c 0,50.919 0,101.838 0,152.757"/><path style="fill:none;stroke:#000;stroke-width:.0264583" id="path1034" d="m 51.5938,0 c 0,50.919 0,101.838 0,152.757"/><path style="fill:none;stroke:#000;stroke-width:.0264583" id="path1036" d="m 54.2396,0 c 0,50.919 0,101.838 0,152.757"/><path style="fill:none;stroke:#000;stroke-width:.0264583" id="path1038" d="m 55.5625,0 c 0,50.919 0,101.838 0,152.757"/><path style="fill:none;stroke:#000;stroke-width:.0264583" id="path1040" d="m 56.8854,0 c 0,50.919 0,101.838 0,152.757"/><path style="fill:none;stroke:#000;stroke-width:.0264583" id="path1042" d="m 58.2083,0 c 0,50.919 0,101.838 0,152.757"/><path style="fill:none;stroke:#000;stroke-width:.0264583" id="path1044" d="m 60.8542,0 c 0,50.919 0,101.838 0,152.757"/><path style="fill:none;stroke:#000;stroke-width:.0264583" id="path1046" d="m 62.1771,0 c 0,50.919 0,101.838 0,152.757"/><path style="fill:none;stroke:#000;stroke-width:.0264583" id="path1048" d="m 63.5,0 c 0,50.919 0,101.838 0,152.757"/><path style="fill:none;stroke:#000;stroke-width:.0264583" id="path1050" d="m 64.8229,0 c 0,50.919 0,101.838 0,152.757"/><path style="fill:none;stroke:#000;stroke-width:.0264583" id="path1052" d="m 67.4688,0 c 0,50.919 0,101.838 0,152.757"/><path style="fill:none;stroke:#000;stroke-width:.0264583" id="path1054" d="m 68.7917,0 c 0,50.919 0,101.838 0,152.757"/><path style="fill:none;stroke:#000;stroke-width:.0264583" id="path1056" d="m 70.1146,0 c 0,50.919 0,101.838 0,152.757"/><path style="fill:none;stroke:#000;stroke-width:.0264583" id="path1058" d="m 71.4375,0 c 0,50.919 0,101.838 0,152.757"/><path style="fill:none;stroke:#000;stroke-width:.0264583" id="path1060" d="m 74.0833,0 c 0,50.919 0,101.838 0,152.757"/><path style="fill:none;stroke:#000;stroke-width:.0264583" id="path1062" d="m 75.4062,0 c 0,50.919 0,101.838 0,152.757"/><path style="fill:none;stroke:#000;stroke-width:.0264583" id="path1064" d="m 76.7292,0 c 0,50.919 0,101.838 0,152.757"/><path style="fill:none;stroke:#000;stroke-width:.0264583" id="path1066" d="m 78.0521,0 c 0,50.919 0,101.838 0,152.757"/><path style="fill:none;stroke:#000;stroke-width:.0264583" id="path1068" d="m 80.6979,0 c 0,50.919 0,101.838 0,152.757"/><path style="fill:none;stroke:#000;stroke-width:.0264583" id="path1070" d="m 82.0208,0 c 0,50.919 0,101.838 0,152.757"/><path style="fill:none;stroke:#000;stroke-width:.0264583" id="path1072" d="m 83.3438,0 c 0,50.919 0,101.838 0,152.757"/><path style="fill:none;stroke:#000;stroke-width:.0264583" id="path1074" d="m 84.6667,0 c 0,50.919 0,101.838 0,152.757"/><path style="fill:none;stroke:#000;stroke-width:.0264583" id="path1076" d="m 87.3125,0 c 0,50.919 0,101.838 0,152.757"/><path style="fill:none;stroke:#000;stroke-width:.0264583" id="path1078" d="m 88.6354,0 c 0,50.919 0,101.838 0,152.757"/><path style="fill:none;stroke:#000;stroke-width:.0264583" id="path1080" d="m 89.9583,0 c 0,50.919 0,101.838 0,152.757"/><path style="fill:none;stroke:#000;stroke-width:.0264583" id="path1082" d="m 91.2812,0 c 0,50.919 0,101.838 0,152.757"/><path style="fill:none;stroke:#000;stroke-width:.0264583" id="path1084" d="m 93.9271,0 c 0,50.919 0,101.838 0,152.757"/><path style="fill:none;stroke:#000;stroke-width:.0264583" id="path1086" d="m 95.25,0 c 0,50.919 0,101.838 0,152.757"/><path style="fill:none;stroke:#000;stroke-width:.0264583" id="path1088" d="m 96.5729,0 c 0,50.919 0,101.838 0,152.757"/><path style="fill:none;stroke:#000;stroke-width:.0264583" id="path1090" d="m 97.8958,0 c 0,50.919 0,101.838 0,152.757"/><path style="fill:none;stroke:#000;stroke-width:.0264583" id="path1092" d="m 100.542,0 c 0,50.919 0,101.838 0,152.757"/><path style="fill:none;stroke:#000;stroke-width:.0264583" id="path1094" d="m 101.865,0 c 0,50.919 0,101.838 0,152.757"/><path style="fill:none;stroke:#000;stroke-width:.0264583" id="path1096" d="m 103.188,0 c 0,50.919 0,101.838 0,152.757"/><path style="fill:none;stroke:#000;stroke-width:.0264583" id="path1098" d="m 104.51,0 c 0,50.919 0,101.838 0,152.757"/><path style="fill:none;stroke:#000;stroke-width:.0264583" id="path1100" d="m 107.156,0 c 0,50.919 0,101.838 0,152.757"/><path style="fill:none;stroke:#000;stroke-width:.0264583" id="path1102" d="m 108.479,0 c 0,50.919 0,101.838 0,152.757"/><path style="fill:none;stroke:#000;stroke-width:.0264583" id="path1104" d="m 109.802,0 c 0,50.919 0,101.838 0,152.757"/><path style="fill:none;stroke:#000;stroke-width:.0264583" id="path1106" d="m 111.125,0 c 0,50.919 0,101.838 0,152.757"/><path style="fill:none;stroke:#000;stroke-width:.0264583" id="path1108" d="m 113.771,0 c 0,50.919 0,101.838 0,152.757"/><path style="fill:none;stroke:#000;stroke-width:.0264583" id="path1110" d="m 115.094,0 c 0,50.919 0,101.838 0,152.757"/><path style="fill:none;stroke:#000;stroke-width:.0264583" id="path1112" d="m 116.417,0 c 0,50.919 0,101.838 0,152.757"/><path style="fill:none;stroke:#000;stroke-width:.0264583" id="path1114" d="m 117.74,0 c 0,50.919 0,101.838 0,152.757"/><path style="fill:none;stroke:#000;stroke-width:.0264583" id="path1116" d="m 120.385,0 c 0,50.919 0,101.838 0,152.757"/><path style="fill:none;stroke:#000;stroke-width:.0264583" id="path1118" d="m 121.708,0 c 0,50.919 0,101.838 0,152.757"/><path style="fill:none;stroke:#000;stroke-width:.0264583" id="path1120" d="m 123.031,0 c 0,50.919 0,101.838 0,152.757"/><path style="fill:none;stroke:#000;stroke-width:.0264583" id="path1122" d="m 124.354,0 c 0,50.919 0,101.838 0,152.757"/><path style="fill:none;stroke:#000;stroke-width:.0264583" id="path1124" d="m 127,0 c 0,50.919 0,101.838 0,152.757"/><path style="fill:none;stroke:#000;stroke-width:.0264583" id="path1126" d="m 128.323,0 c 0,50.919 0,101.838 0,152.757"/><path style="fill:none;stroke:#000;stroke-width:.0264583" id="path1128" d="m 129.646,0 c 0,50.919 0,101.838 0,152.757"/><path style="fill:none;stroke:#000;stroke-width:.0264583" id="path1130" d="m 130.969,0 c 0,50.919 0,101.838 0,152.757"/></g><g id="g1164"><path style="fill:none;stroke:#000;stroke-width:.132292" id="path1134" d="M 11.9062,152.757 C 7.9374667,150.46567 3.9687333,148.17433 0,145.883"/><path style="fill:none;stroke:#000;stroke-width:.132292" id="path1136" d="M 38.3646,152.757 C 25.5764,145.374 12.7882,137.991 0,130.608"/><path style="fill:none;stroke:#000;stroke-width:.132292" id="path1138" d="M 64.8229,152.757 C 43.215267,140.282 21.607633,127.807 0,115.332"/><path style="fill:none;stroke:#000;stroke-width:.132292" id="path1140" d="M 91.2812,152.757 C 60.854133,135.19 30.427067,117.623 0,100.056"/><path style="fill:none;stroke:#000;stroke-width:.132292" id="path1142" d="M 117.74,152.757 C 78.493333,130.0981 39.246667,107.4392 0,84.7803"/><path style="fill:none;stroke:#000;stroke-width:.132292" id="path1144" d="M 132.292,145.883 C 88.194667,120.42353 44.097333,94.964067 0,69.5046"/><path style="fill:none;stroke:#000;stroke-width:.132292" id="path1146" d="M 132.292,130.608 C 88.194667,105.1483 44.097333,79.6886 0,54.2289"/><path style="fill:none;stroke:#000;stroke-width:.132292" id="path1148" d="M 132.292,115.332 C 88.194667,89.872367 44.097333,64.412733 0,38.9531"/><path style="fill:none;stroke:#000;stroke-width:.132292" id="path1150" d="M 132.292,100.056 C 88.194667,74.596467 44.097333,49.136933 0,23.6774"/><path style="fill:none;stroke:#000;stroke-width:.132292" id="path1152" d="M 132.292,84.7803 C 88.194667,59.32075 44.097333,33.8612 0,8.40165"/><path style="fill:none;stroke:#000;stroke-width:.132292" id="path1154" d="M 132.292,69.5046 C 92.1634,46.3364 52.0348,23.1682 11.9062,0"/><path style="fill:none;stroke:#000;stroke-width:.132292" id="path1156" d="M 132.292,54.2289 C 100.98287,36.1526 69.673733,18.0763 38.3646,0"/><path style="fill:none;stroke:#000;stroke-width:.132292" id="path1158" d="M 132.292,38.9531 C 109.8023,25.968733 87.3126,12.984367 64.8229,0"/><path style="fill:none;stroke:#000;stroke-width:.132292" id="path1160" d="M 132.292,23.6774 C 118.62173,15.784933 104.95147,7.8924667 91.2812,0"/><path style="fill:none;stroke:#000;stroke-width:.132292" id="path1162" d="M 132.292,8.40165 C 127.44133,5.6011 122.59067,2.80055 117.74,0"/></g><g id="g1406"><path style="fill:none;stroke:#000;stroke-width:.0264583" id="path1166" d="M 1.32292,152.757 C 0.88194667,152.50267 0.44097333,152.24833 0,151.994"/><path style="fill:none;stroke:#000;stroke-width:.0264583" id="path1168" d="M 3.96875,152.757 C 2.6458333,151.99333 1.3229167,151.22967 0,150.466"/><path style="fill:none;stroke:#000;stroke-width:.0264583" id="path1170" d="M 6.61458,152.757 C 4.40972,151.484 2.20486,150.211 0,148.938"/><path style="fill:none;stroke:#000;stroke-width:.0264583" id="path1172" d="M 9.26042,152.757 C 6.1736133,150.975 3.0868067,149.193 0,147.411"/><path style="fill:none;stroke:#000;stroke-width:.0264583" id="path1174" d="M 14.5521,152.757 C 9.7014,149.95667 4.8507,147.15633 0,144.356"/><path style="fill:none;stroke:#000;stroke-width:.0264583" id="path1176" d="M 17.1979,152.757 C 11.465267,149.44733 5.7326333,146.13767 0,142.828"/><path style="fill:none;stroke:#000;stroke-width:.0264583" id="path1178" d="M 19.8437,152.757 C 13.229133,148.93833 6.6145667,145.11967 0,141.301"/><path style="fill:none;stroke:#000;stroke-width:.0264583" id="path1180" d="M 22.4896,152.757 C 14.993067,148.429 7.4965333,144.101 0,139.773"/><path style="fill:none;stroke:#000;stroke-width:.0264583" id="path1182" d="M 27.7812,152.757 C 18.5208,147.41067 9.2604,142.06433 0,136.718"/><path style="fill:none;stroke:#000;stroke-width:.0264583" id="path1184" d="M 30.4271,152.757 C 20.284733,146.90133 10.142367,141.04567 0,135.19"/><path style="fill:none;stroke:#000;stroke-width:.0264583" id="path1186" d="M 33.0729,152.757 C 22.0486,146.39233 11.0243,140.02767 0,133.663"/><path style="fill:none;stroke:#000;stroke-width:.0264583" id="path1188" d="M 35.7187,152.757 C 23.812467,145.883 11.906233,139.009 0,132.135"/><path style="fill:none;stroke:#000;stroke-width:.0264583" id="path1190" d="M 41.0104,152.757 C 27.340267,144.86467 13.670133,136.97233 0,129.08"/><path style="fill:none;stroke:#000;stroke-width:.0264583" id="path1192" d="M 43.6562,152.757 C 29.104133,144.35533 14.552067,135.95367 0,127.552"/><path style="fill:none;stroke:#000;stroke-width:.0264583" id="path1194" d="M 46.3021,152.757 C 30.868067,143.84633 15.434033,134.93567 0,126.025"/><path style="fill:none;stroke:#000;stroke-width:.0264583" id="path1196" d="M 48.9479,152.757 C 32.631933,143.337 16.315967,133.917 0,124.497"/><path style="fill:none;stroke:#000;stroke-width:.0264583" id="path1198" d="M 54.2396,152.757 C 36.159733,142.31867 18.079867,131.88033 0,121.442"/><path style="fill:none;stroke:#000;stroke-width:.0264583" id="path1200" d="M 56.8854,152.757 C 37.9236,141.80967 18.9618,130.86233 0,119.915"/><path style="fill:none;stroke:#000;stroke-width:.0264583" id="path1202" d="M 59.5312,152.757 C 39.687467,141.30033 19.843733,129.84367 0,118.387"/><path style="fill:none;stroke:#000;stroke-width:.0264583" id="path1204" d="M 62.1771,152.757 C 41.4514,140.791 20.7257,128.825 0,116.859"/><path style="fill:none;stroke:#000;stroke-width:.0264583" id="path1206" d="M 67.4687,152.757 C 44.979133,139.77267 22.489567,126.78833 0,113.804"/><path style="fill:none;stroke:#000;stroke-width:.0264583" id="path1208" d="M 70.1146,152.757 C 46.743067,139.26367 23.371533,125.77033 0,112.277"/><path style="fill:none;stroke:#000;stroke-width:.0264583" id="path1210" d="M 72.7604,152.757 C 48.506933,138.75433 24.253467,124.75167 0,110.749"/><path style="fill:none;stroke:#000;stroke-width:.0264583" id="path1212" d="M 75.4062,152.757 C 50.2708,138.245 25.1354,123.733 0,109.221"/><path style="fill:none;stroke:#000;stroke-width:.0264583" id="path1214" d="M 80.6979,152.757 C 53.7986,137.22667 26.8993,121.69633 0,106.166"/><path style="fill:none;stroke:#000;stroke-width:.0264583" id="path1216" d="M 83.3437,152.757 C 55.562467,136.71767 27.781233,120.67833 0,104.639"/><path style="fill:none;stroke:#000;stroke-width:.0264583" id="path1218" d="M 85.9896,152.757 C 57.3264,136.20833 28.6632,119.65967 0,103.111"/><path style="fill:none;stroke:#000;stroke-width:.0264583" id="path1220" d="M 88.6354,152.757 C 59.090267,135.69933 29.545133,118.64167 0,101.584"/><path style="fill:none;stroke:#000;stroke-width:.0264583" id="path1222" d="M 93.9271,152.757 C 62.618067,134.68083 31.309033,116.60467 0,98.5285"/><path style="fill:none;stroke:#000;stroke-width:.0264583" id="path1224" d="M 96.5729,152.757 C 64.381933,134.17163 32.190967,115.58627 0,97.0009"/><path style="fill:none;stroke:#000;stroke-width:.0264583" id="path1226" d="M 99.2187,152.757 C 66.1458,133.66243 33.0729,114.56787 0,95.4733"/><path style="fill:none;stroke:#000;stroke-width:.0264583" id="path1228" d="M 101.865,152.757 C 67.91,133.15327 33.955,113.54953 0,93.9458"/><path style="fill:none;stroke:#000;stroke-width:.0264583" id="path1230" d="M 107.156,152.757 C 71.437333,132.13487 35.718667,111.51273 0,90.8906"/><path style="fill:none;stroke:#000;stroke-width:.0264583" id="path1232" d="M 109.802,152.757 C 73.201333,131.62567 36.600667,110.49433 0,89.363"/><path style="fill:none;stroke:#000;stroke-width:.0264583" id="path1234" d="M 112.448,152.757 C 74.965333,131.1165 37.482667,109.476 0,87.8355"/><path style="fill:none;stroke:#000;stroke-width:.0264583" id="path1236" d="M 115.094,152.757 C 76.729333,130.6073 38.364667,108.4576 0,86.3079"/><path style="fill:none;stroke:#000;stroke-width:.0264583" id="path1238" d="M 120.385,152.757 C 80.256667,129.5889 40.128333,106.4208 0,83.2527"/><path style="fill:none;stroke:#000;stroke-width:.0264583" id="path1240" d="M 123.031,152.757 C 82.020667,129.07973 41.010333,105.40247 0,81.7252"/><path style="fill:none;stroke:#000;stroke-width:.0264583" id="path1242" d="M 125.677,152.757 C 83.784667,128.57053 41.892333,104.38407 0,80.1976"/><path style="fill:none;stroke:#000;stroke-width:.0264583" id="path1244" d="M 128.323,152.757 C 85.548667,128.06133 42.774333,103.36567 0,78.67"/><path style="fill:none;stroke:#000;stroke-width:.0264583" id="path1246" d="M 132.292,151.994 C 88.194667,126.5343 44.097333,101.0746 0,75.6149"/><path style="fill:none;stroke:#000;stroke-width:.0264583" id="path1248" d="M 132.292,150.466 C 88.194667,125.00643 44.097333,99.546867 0,74.0873"/><path style="fill:none;stroke:#000;stroke-width:.0264583" id="path1250" d="M 132.292,148.938 C 88.194667,123.47857 44.097333,98.019133 0,72.5597"/><path style="fill:none;stroke:#000;stroke-width:.0264583" id="path1252" d="M 132.292,147.411 C 88.194667,121.9514 44.097333,96.4918 0,71.0322"/><path style="fill:none;stroke:#000;stroke-width:.0264583" id="path1254" d="M 132.292,144.356 C 88.194667,118.89633 44.097333,93.436667 0,67.977"/><path style="fill:none;stroke:#000;stroke-width:.0264583" id="path1256" d="M 132.292,142.828 C 88.194667,117.36847 44.097333,91.908933 0,66.4494"/><path style="fill:none;stroke:#000;stroke-width:.0264583" id="path1258" d="M 132.292,141.301 C 88.194667,115.8413 44.097333,90.3816 0,64.9219"/><path style="fill:none;stroke:#000;stroke-width:.0264583" id="path1260" d="M 132.292,139.773 C 88.194667,114.31343 44.097333,88.853867 0,63.3943"/><path style="fill:none;stroke:#000;stroke-width:.0264583" id="path1262" d="M 132.292,136.718 C 88.194667,111.25837 44.097333,85.798733 0,60.3391"/><path style="fill:none;stroke:#000;stroke-width:.0264583" id="path1264" d="M 132.292,135.19 C 88.194667,109.73053 44.097333,84.271067 0,58.8116"/><path style="fill:none;stroke:#000;stroke-width:.0264583" id="path1266" d="M 132.292,133.663 C 88.194667,108.20333 44.097333,82.743667 0,57.284"/><path style="fill:none;stroke:#000;stroke-width:.0264583" id="path1268" d="M 132.292,132.135 C 88.194667,106.67547 44.097333,81.215933 0,55.7564"/><path style="fill:none;stroke:#000;stroke-width:.0264583" id="path1270" d="M 132.292,129.08 C 88.194667,103.62043 44.097333,78.160867 0,52.7013"/><path style="fill:none;stroke:#000;stroke-width:.0264583" id="path1272" d="M 132.292,127.552 C 88.194667,102.09257 44.097333,76.633133 0,51.1737"/><path style="fill:none;stroke:#000;stroke-width:.0264583" id="path1274" d="M 132.292,126.025 C 88.194667,100.56537 44.097333,75.105733 0,49.6461"/><path style="fill:none;stroke:#000;stroke-width:.0264583" id="path1276" d="M 132.292,124.497 C 88.194667,99.037533 44.097333,73.578067 0,48.1186"/><path style="fill:none;stroke:#000;stroke-width:.0264583" id="path1278" d="M 132.292,121.442 C 88.194667,95.982467 44.097333,70.522933 0,45.0634"/><path style="fill:none;stroke:#000;stroke-width:.0264583" id="path1280" d="M 132.292,119.915 C 88.194667,94.455267 44.097333,68.995533 0,43.5358"/><path style="fill:none;stroke:#000;stroke-width:.0264583" id="path1282" d="M 132.292,118.387 C 88.194667,92.927433 44.097333,67.467867 0,42.0083"/><path style="fill:none;stroke:#000;stroke-width:.0264583" id="path1284" d="M 132.292,116.859 C 88.194667,91.399567 44.097333,65.940133 0,40.4807"/><path style="fill:none;stroke:#000;stroke-width:.0264583" id="path1286" d="M 132.292,113.804 C 88.194667,88.3445 44.097333,62.885 0,37.4255"/><path style="fill:none;stroke:#000;stroke-width:.0264583" id="path1288" d="M 132.292,112.277 C 88.194667,86.817333 44.097333,61.357667 0,35.898"/><path style="fill:none;stroke:#000;stroke-width:.0264583" id="path1290" d="M 132.292,110.749 C 88.194667,85.289467 44.097333,59.829933 0,34.3704"/><path style="fill:none;stroke:#000;stroke-width:.0264583" id="path1292" d="M 132.292,109.221 C 88.194667,83.7616 44.097333,58.3022 0,32.8428"/><path style="fill:none;stroke:#000;stroke-width:.0264583" id="path1294" d="M 132.292,106.166 C 88.194667,80.706567 44.097333,55.247133 0,29.7877"/><path style="fill:none;stroke:#000;stroke-width:.0264583" id="path1296" d="M 132.292,104.639 C 88.194667,79.179367 44.097333,53.719733 0,28.2601"/><path style="fill:none;stroke:#000;stroke-width:.0264583" id="path1298" d="M 132.292,103.111 C 88.194667,77.6515 44.097333,52.192 0,26.7325"/><path style="fill:none;stroke:#000;stroke-width:.0264583" id="path1300" d="M 132.292,101.584 C 88.194667,76.124333 44.097333,50.664667 0,25.205"/><path style="fill:none;stroke:#000;stroke-width:.0264583" id="path1302" d="M 132.292,98.5285 C 88.194667,73.068933 44.097333,47.609367 0,22.1498"/><path style="fill:none;stroke:#000;stroke-width:.0264583" id="path1304" d="M 132.292,97.0009 C 88.194667,71.541333 44.097333,46.081767 0,20.6222"/><path style="fill:none;stroke:#000;stroke-width:.0264583" id="path1306" d="M 132.292,95.4733 C 88.194667,70.013767 44.097333,44.554233 0,19.0947"/><path style="fill:none;stroke:#000;stroke-width:.0264583" id="path1308" d="M 132.292,93.9458 C 88.194667,68.486233 44.097333,43.026667 0,17.5671"/><path style="fill:none;stroke:#000;stroke-width:.0264583" id="path1310" d="M 132.292,90.8906 C 88.194667,65.431033 44.097333,39.971467 0,14.5119"/><path style="fill:none;stroke:#000;stroke-width:.0264583" id="path1312" d="M 132.292,89.363 C 88.194667,63.903467 44.097333,38.443933 0,12.9844"/><path style="fill:none;stroke:#000;stroke-width:.0264583" id="path1314" d="M 132.292,87.8355 C 88.194667,62.375933 44.097333,36.916367 0,11.4568"/><path style="fill:none;stroke:#000;stroke-width:.0264583" id="path1316" d="M 132.292,86.3079 C 88.194667,60.848343 44.097333,35.388787 0,9.92923"/><path style="fill:none;stroke:#000;stroke-width:.0264583" id="path1318" d="M 132.292,83.2527 C 88.194667,57.79316 44.097333,32.33362 0,6.87408"/><path style="fill:none;stroke:#000;stroke-width:.0264583" id="path1320" d="M 132.292,81.7252 C 88.194667,56.265637 44.097333,30.806073 0,5.34651"/><path style="fill:none;stroke:#000;stroke-width:.0264583" id="path1322" d="M 132.292,80.1976 C 88.194667,54.738043 44.097333,29.278487 0,3.81893"/><path style="fill:none;stroke:#000;stroke-width:.0264583" id="path1324" d="M 132.292,78.67 C 88.194667,53.210453 44.097333,27.750907 0,2.29136"/><path style="fill:none;stroke:#000;stroke-width:.0264583" id="path1326" d="M 132.292,75.6149 C 88.63564,50.409933 44.97928,25.204967 1.32292,0"/><path style="fill:none;stroke:#000;stroke-width:.0264583" id="path1328" d="M 132.292,74.0873 C 89.517583,49.391533 46.743167,24.695767 3.96875,0"/><path style="fill:none;stroke:#000;stroke-width:.0264583" id="path1330" d="M 132.292,72.5597 C 90.399527,48.373133 48.507053,24.186567 6.61458,0"/><path style="fill:none;stroke:#000;stroke-width:.0264583" id="path1332" d="M 132.292,71.0322 C 91.281473,47.3548 50.270947,23.6774 9.26042,0"/><path style="fill:none;stroke:#000;stroke-width:.0264583" id="path1334" d="M 132.292,67.977 C 93.045367,45.318 53.798733,22.659 14.5521,0"/><path style="fill:none;stroke:#000;stroke-width:.0264583" id="path1336" d="M 132.292,66.4494 C 93.9273,44.2996 55.5626,22.1498 17.1979,0"/><path style="fill:none;stroke:#000;stroke-width:.0264583" id="path1338" d="M 132.292,64.9219 C 94.809233,43.281267 57.326467,21.640633 19.8437,0"/><path style="fill:none;stroke:#000;stroke-width:.0264583" id="path1340" d="M 132.292,63.3943 C 95.6912,42.262867 59.0904,21.131433 22.4896,0"/><path style="fill:none;stroke:#000;stroke-width:.0264583" id="path1342" d="M 132.292,60.3391 C 97.455067,40.226067 62.618133,20.113033 27.7812,0"/><path style="fill:none;stroke:#000;stroke-width:.0264583" id="path1344" d="M 132.292,58.8116 C 98.337033,39.207733 64.382067,19.603867 30.4271,0"/><path style="fill:none;stroke:#000;stroke-width:.0264583" id="path1346" d="M 132.292,57.284 C 99.218967,38.189333 66.145933,19.094667 33.0729,0"/><path style="fill:none;stroke:#000;stroke-width:.0264583" id="path1348" d="M 132.292,55.7564 C 100.1009,37.170933 67.9098,18.585467 35.7187,0"/><path style="fill:none;stroke:#000;stroke-width:.0264583" id="path1350" d="M 132.292,52.7013 C 101.8648,35.1342 71.4376,17.5671 41.0104,0"/><path style="fill:none;stroke:#000;stroke-width:.0264583" id="path1352" d="M 132.292,51.1737 C 102.74673,34.1158 73.201467,17.0579 43.6562,0"/><path style="fill:none;stroke:#000;stroke-width:.0264583" id="path1354" d="M 132.292,49.6461 C 103.6287,33.0974 74.9654,16.5487 46.3021,0"/><path style="fill:none;stroke:#000;stroke-width:.0264583" id="path1356" d="M 132.292,48.1186 C 104.51063,32.079067 76.729267,16.039533 48.9479,0"/><path style="fill:none;stroke:#000;stroke-width:.0264583" id="path1358" d="M 132.292,45.0634 C 106.27453,30.042267 80.257067,15.021133 54.2396,0"/><path style="fill:none;stroke:#000;stroke-width:.0264583" id="path1360" d="M 132.292,43.5358 C 107.15647,29.023867 82.020933,14.511933 56.8854,0"/><path style="fill:none;stroke:#000;stroke-width:.0264583" id="path1362" d="M 132.292,42.0083 C 108.0384,28.005533 83.7848,14.002767 59.5312,0"/><path style="fill:none;stroke:#000;stroke-width:.0264583" id="path1364" d="M 132.292,40.4807 C 108.92037,26.987133 85.548733,13.493567 62.1771,0"/><path style="fill:none;stroke:#000;stroke-width:.0264583" id="path1366" d="M 132.292,37.4255 C 110.68423,24.950333 89.076467,12.475167 67.4687,0"/><path style="fill:none;stroke:#000;stroke-width:.0264583" id="path1368" d="M 132.292,35.898 C 111.5662,23.932 90.8404,11.966 70.1146,0"/><path style="fill:none;stroke:#000;stroke-width:.0264583" id="path1370" d="M 132.292,34.3704 C 112.44813,22.9136 92.604267,11.4568 72.7604,0"/><path style="fill:none;stroke:#000;stroke-width:.0264583" id="path1372" d="M 132.292,32.8428 C 113.33007,21.8952 94.368133,10.9476 75.4062,0"/><path style="fill:none;stroke:#000;stroke-width:.0264583" id="path1374" d="M 132.292,29.7877 C 115.09397,19.858467 97.895933,9.9292333 80.6979,0"/><path style="fill:none;stroke:#000;stroke-width:.0264583" id="path1376" d="M 132.292,28.2601 C 115.9759,18.840067 99.6598,9.4200333 83.3437,0"/><path style="fill:none;stroke:#000;stroke-width:.0264583" id="path1378" d="M 132.292,26.7325 C 116.85787,17.821667 101.42373,8.9108333 85.9896,0"/><path style="fill:none;stroke:#000;stroke-width:.0264583" id="path1380" d="M 132.292,25.205 C 117.7398,16.803333 103.1876,8.4016667 88.6354,0"/><path style="fill:none;stroke:#000;stroke-width:.0264583" id="path1382" d="M 132.292,22.1498 C 119.5037,14.766533 106.7154,7.3832667 93.9271,0"/><path style="fill:none;stroke:#000;stroke-width:.0264583" id="path1384" d="M 132.292,20.6222 C 120.38563,13.748133 108.47927,6.8740667 96.5729,0"/><path style="fill:none;stroke:#000;stroke-width:.0264583" id="path1386" d="M 132.292,19.0947 C 121.26757,12.7298 110.24313,6.3649 99.2187,0"/><path style="fill:none;stroke:#000;stroke-width:.0264583" id="path1388" d="M 132.292,17.5671 C 122.14967,11.7114 112.00733,5.8557 101.865,0"/><path style="fill:none;stroke:#000;stroke-width:.0264583" id="path1390" d="M 132.292,14.5119 C 123.91333,9.6746 115.53467,4.8373 107.156,0"/><path style="fill:none;stroke:#000;stroke-width:.0264583" id="path1392" d="M 132.292,12.9844 C 124.79533,8.6562667 117.29867,4.3281333 109.802,0"/><path style="fill:none;stroke:#000;stroke-width:.0264583" id="path1394" d="M 132.292,11.4568 C 125.67733,7.6378667 119.06267,3.8189333 112.448,0"/><path style="fill:none;stroke:#000;stroke-width:.0264583" id="path1396" d="M 132.292,9.92923 C 126.55933,6.6194867 120.82667,3.3097433 115.094,0"/><path style="fill:none;stroke:#000;stroke-width:.0264583" id="path1398" d="M 132.292,6.87408 C 128.323,4.58272 124.354,2.29136 120.385,0"/><path style="fill:none;stroke:#000;stroke-width:.0264583" id="path1400" d="M 132.292,5.34651 C 129.205,3.56434 126.118,1.78217 123.031,0"/><path style="fill:none;stroke:#000;stroke-width:.0264583" id="path1402" d="M 132.292,3.81893 C 130.087,2.5459533 127.882,1.2729767 125.677,0"/><path style="fill:none;stroke:#000;stroke-width:.0264583" id="path1404" d="M 132.292,2.29136 C 130.969,1.5275733 129.646,0.76378667 128.323,0"/></g><g id="g1438"><path style="fill:none;stroke:#000;stroke-width:.132292" id="path1408" d="m 120.385,152.757 c 3.969,-2.29133 7.938,-4.58267 11.907,-6.874"/><path style="fill:none;stroke:#000;stroke-width:.132292" id="path1410" d="m 93.9271,152.757 c 12.7883,-7.383 25.5766,-14.766 38.3649,-22.149"/><path style="fill:none;stroke:#000;stroke-width:.132292" id="path1412" d="m 67.4688,152.757 c 21.607733,-12.475 43.21547,-24.95 64.8232,-37.425"/><path style="fill:none;stroke:#000;stroke-width:.132292" id="path1414" d="M 41.0104,152.757 C 71.4376,135.19 101.8648,117.623 132.292,100.056"/><path style="fill:none;stroke:#000;stroke-width:.132292" id="path1416" d="M 14.5521,152.757 C 53.798733,130.0981 93.045367,107.4392 132.292,84.7803"/><path style="fill:none;stroke:#000;stroke-width:.132292" id="path1418" d="M 0,145.883 C 44.097333,120.42353 88.194667,94.964067 132.292,69.5046"/><path style="fill:none;stroke:#000;stroke-width:.132292" id="path1420" d="M 0,130.608 C 44.097333,105.1483 88.194667,79.6886 132.292,54.2289"/><path style="fill:none;stroke:#000;stroke-width:.132292" id="path1422" d="M 0,115.332 C 44.097333,89.872367 88.194667,64.412733 132.292,38.9531"/><path style="fill:none;stroke:#000;stroke-width:.132292" id="path1424" d="M 0,100.056 C 44.097333,74.596467 88.194667,49.136933 132.292,23.6774"/><path style="fill:none;stroke:#000;stroke-width:.132292" id="path1426" d="M 0,84.7803 C 44.097333,59.32075 88.194667,33.8612 132.292,8.40165"/><path style="fill:none;stroke:#000;stroke-width:.132292" id="path1428" d="M 0,69.5046 C 40.128333,46.3364 80.256667,23.1682 120.385,0"/><path style="fill:none;stroke:#000;stroke-width:.132292" id="path1430" d="M 0,54.2289 C 31.309033,36.1526 62.618067,18.0763 93.9271,0"/><path style="fill:none;stroke:#000;stroke-width:.132292" id="path1432" d="M 0,38.9531 C 22.4896,25.968733 44.9792,12.984367 67.4688,0"/><path style="fill:none;stroke:#000;stroke-width:.132292" id="path1434" d="M 0,23.6774 C 13.670133,15.784933 27.340267,7.8924667 41.0104,0"/><path style="fill:none;stroke:#000;stroke-width:.132292" id="path1436" d="M 0,8.40165 C 4.8507,5.6011 9.7014,2.80055 14.5521,0"/></g><g id="g1680"><path style="fill:none;stroke:#000;stroke-width:.0264583" id="path1440" d="m 130.969,152.757 c 0.441,-0.25433 0.882,-0.50867 1.323,-0.763"/><path style="fill:none;stroke:#000;stroke-width:.0264583" id="path1442" d="m 128.323,152.757 c 1.323,-0.76367 2.646,-1.52733 3.969,-2.291"/><path style="fill:none;stroke:#000;stroke-width:.0264583" id="path1444" d="m 125.677,152.757 c 2.205,-1.273 4.41,-2.546 6.615,-3.819"/><path style="fill:none;stroke:#000;stroke-width:.0264583" id="path1446" d="m 123.031,152.757 c 3.087,-1.782 6.174,-3.564 9.261,-5.346"/><path style="fill:none;stroke:#000;stroke-width:.0264583" id="path1448" d="m 117.74,152.757 c 4.85067,-2.80033 9.70133,-5.60067 14.552,-8.401"/><path style="fill:none;stroke:#000;stroke-width:.0264583" id="path1450" d="m 115.094,152.757 c 5.73267,-3.30967 11.46533,-6.61933 17.198,-9.929"/><path style="fill:none;stroke:#000;stroke-width:.0264583" id="path1452" d="m 112.448,152.757 c 6.61467,-3.81867 13.22933,-7.63733 19.844,-11.456"/><path style="fill:none;stroke:#000;stroke-width:.0264583" id="path1454" d="m 109.802,152.757 c 7.49667,-4.328 14.99333,-8.656 22.49,-12.984"/><path style="fill:none;stroke:#000;stroke-width:.0264583" id="path1456" d="m 104.51,152.757 c 9.26067,-5.34633 18.52133,-10.69267 27.782,-16.039"/><path style="fill:none;stroke:#000;stroke-width:.0264583" id="path1458" d="m 101.865,152.757 c 10.14233,-5.85567 20.28467,-11.71133 30.427,-17.567"/><path style="fill:none;stroke:#000;stroke-width:.0264583" id="path1460" d="m 99.2188,152.757 c 11.0244,-6.36467 22.0488,-12.72933 33.0732,-19.094"/><path style="fill:none;stroke:#000;stroke-width:.0264583" id="path1462" d="m 96.5729,152.757 c 11.90637,-6.874 23.81273,-13.748 35.7191,-20.622"/><path style="fill:none;stroke:#000;stroke-width:.0264583" id="path1464" d="m 91.2812,152.757 c 13.67027,-7.89233 27.34053,-15.78467 41.0108,-23.677"/><path style="fill:none;stroke:#000;stroke-width:.0264583" id="path1466" d="m 88.6354,152.757 c 14.5522,-8.40167 29.1044,-16.80333 43.6566,-25.205"/><path style="fill:none;stroke:#000;stroke-width:.0264583" id="path1468" d="m 85.9896,152.757 c 15.43413,-8.91067 30.86827,-17.82133 46.3024,-26.732"/><path style="fill:none;stroke:#000;stroke-width:.0264583" id="path1470" d="m 83.3438,152.757 c 16.316067,-9.42 32.63213,-18.84 48.9482,-28.26"/><path style="fill:none;stroke:#000;stroke-width:.0264583" id="path1472" d="m 78.0521,152.757 c 18.079967,-10.43833 36.15993,-20.87667 54.2399,-31.315"/><path style="fill:none;stroke:#000;stroke-width:.0264583" id="path1474" d="m 75.4062,152.757 c 18.961933,-10.94733 37.92387,-21.89467 56.8858,-32.842"/><path style="fill:none;stroke:#000;stroke-width:.0264583" id="path1476" d="m 72.7604,152.757 c 19.843867,-11.45667 39.68773,-22.91333 59.5316,-34.37"/><path style="fill:none;stroke:#000;stroke-width:.0264583" id="path1478" d="m 70.1146,152.757 c 20.7258,-11.966 41.4516,-23.932 62.1774,-35.898"/><path style="fill:none;stroke:#000;stroke-width:.0264583" id="path1480" d="m 64.8229,152.757 c 22.4897,-12.98433 44.9794,-25.96867 67.4691,-38.953"/><path style="fill:none;stroke:#000;stroke-width:.0264583" id="path1482" d="m 62.1771,152.757 c 23.371633,-13.49333 46.74327,-26.98667 70.1149,-40.48"/><path style="fill:none;stroke:#000;stroke-width:.0264583" id="path1484" d="m 59.5312,152.757 c 24.2536,-14.00267 48.5072,-28.00533 72.7608,-42.008"/><path style="fill:none;stroke:#000;stroke-width:.0264583" id="path1486" d="m 56.8854,152.757 c 25.135533,-14.512 50.27107,-29.024 75.4066,-43.536"/><path style="fill:none;stroke:#000;stroke-width:.0264583" id="path1488" d="m 51.5938,152.757 c 26.8994,-15.53033 53.7988,-31.06067 80.6982,-46.591"/><path style="fill:none;stroke:#000;stroke-width:.0264583" id="path1490" d="m 48.9479,152.757 c 27.781367,-16.03933 55.56273,-32.07867 83.3441,-48.118"/><path style="fill:none;stroke:#000;stroke-width:.0264583" id="path1492" d="m 46.3021,152.757 c 28.6633,-16.54867 57.3266,-33.09733 85.9899,-49.646"/><path style="fill:none;stroke:#000;stroke-width:.0264583" id="path1494" d="m 43.6562,152.757 c 29.545267,-17.05767 59.09053,-34.11533 88.6358,-51.173"/><path style="fill:none;stroke:#000;stroke-width:.0264583" id="path1496" d="M 38.3646,152.757 C 69.673733,134.68083 100.98287,116.60467 132.292,98.5285"/><path style="fill:none;stroke:#000;stroke-width:.0264583" id="path1498" d="M 35.7188,152.757 C 67.909867,134.17163 100.10093,115.58627 132.292,97.0009"/><path style="fill:none;stroke:#000;stroke-width:.0264583" id="path1500" d="M 33.0729,152.757 C 66.145933,133.66243 99.218967,114.56787 132.292,95.4733"/><path style="fill:none;stroke:#000;stroke-width:.0264583" id="path1502" d="M 30.4271,152.757 C 64.382067,133.15327 98.337033,113.54953 132.292,93.9458"/><path style="fill:none;stroke:#000;stroke-width:.0264583" id="path1504" d="M 25.1354,152.757 C 60.854267,132.13487 96.573133,111.51273 132.292,90.8906"/><path style="fill:none;stroke:#000;stroke-width:.0264583" id="path1506" d="M 22.4896,152.757 C 59.0904,131.62567 95.6912,110.49433 132.292,89.363"/><path style="fill:none;stroke:#000;stroke-width:.0264583" id="path1508" d="M 19.8438,152.757 C 57.326533,131.1165 94.809267,109.476 132.292,87.8355"/><path style="fill:none;stroke:#000;stroke-width:.0264583" id="path1510" d="M 17.1979,152.757 C 55.5626,130.6073 93.9273,108.4576 132.292,86.3079"/><path style="fill:none;stroke:#000;stroke-width:.0264583" id="path1512" d="M 11.9062,152.757 C 52.0348,129.5889 92.1634,106.4208 132.292,83.2527"/><path style="fill:none;stroke:#000;stroke-width:.0264583" id="path1514" d="M 9.26042,152.757 C 50.270947,129.07973 91.281473,105.40247 132.292,81.7252"/><path style="fill:none;stroke:#000;stroke-width:.0264583" id="path1516" d="M 6.61458,152.757 C 48.507053,128.57053 90.399527,104.38407 132.292,80.1976"/><path style="fill:none;stroke:#000;stroke-width:.0264583" id="path1518" d="M 3.96875,152.757 C 46.743167,128.06133 89.517583,103.36567 132.292,78.67"/><path style="fill:none;stroke:#000;stroke-width:.0264583" id="path1520" d="M 0,151.994 C 44.097333,126.5343 88.194667,101.0746 132.292,75.6149"/><path style="fill:none;stroke:#000;stroke-width:.0264583" id="path1522" d="M 0,150.466 C 44.097333,125.00643 88.194667,99.546867 132.292,74.0873"/><path style="fill:none;stroke:#000;stroke-width:.0264583" id="path1524" d="M 0,148.938 C 44.097333,123.47857 88.194667,98.019133 132.292,72.5597"/><path style="fill:none;stroke:#000;stroke-width:.0264583" id="path1526" d="M 0,147.411 C 44.097333,121.9514 88.194667,96.4918 132.292,71.0322"/><path style="fill:none;stroke:#000;stroke-width:.0264583" id="path1528" d="M 0,144.356 C 44.097333,118.89633 88.194667,93.436667 132.292,67.977"/><path style="fill:none;stroke:#000;stroke-width:.0264583" id="path1530" d="M 0,142.828 C 44.097333,117.36847 88.194667,91.908933 132.292,66.4494"/><path style="fill:none;stroke:#000;stroke-width:.0264583" id="path1532" d="M 0,141.301 C 44.097333,115.8413 88.194667,90.3816 132.292,64.9219"/><path style="fill:none;stroke:#000;stroke-width:.0264583" id="path1534" d="M 0,139.773 C 44.097333,114.31343 88.194667,88.853867 132.292,63.3943"/><path style="fill:none;stroke:#000;stroke-width:.0264583" id="path1536" d="M 0,136.718 C 44.097333,111.25837 88.194667,85.798733 132.292,60.3391"/><path style="fill:none;stroke:#000;stroke-width:.0264583" id="path1538" d="M 0,135.19 C 44.097333,109.73053 88.194667,84.271067 132.292,58.8116"/><path style="fill:none;stroke:#000;stroke-width:.0264583" id="path1540" d="M 0,133.663 C 44.097333,108.20333 88.194667,82.743667 132.292,57.284"/><path style="fill:none;stroke:#000;stroke-width:.0264583" id="path1542" d="M 0,132.135 C 44.097333,106.67547 88.194667,81.215933 132.292,55.7564"/><path style="fill:none;stroke:#000;stroke-width:.0264583" id="path1544" d="M 0,129.08 C 44.097333,103.62043 88.194667,78.160867 132.292,52.7013"/><path style="fill:none;stroke:#000;stroke-width:.0264583" id="path1546" d="M 0,127.552 C 44.097333,102.09257 88.194667,76.633133 132.292,51.1737"/><path style="fill:none;stroke:#000;stroke-width:.0264583" id="path1548" d="M 0,126.025 C 44.097333,100.56537 88.194667,75.105733 132.292,49.6461"/><path style="fill:none;stroke:#000;stroke-width:.0264583" id="path1550" d="M 0,124.497 C 44.097333,99.037533 88.194667,73.578067 132.292,48.1186"/><path style="fill:none;stroke:#000;stroke-width:.0264583" id="path1552" d="M 0,121.442 C 44.097333,95.982467 88.194667,70.522933 132.292,45.0634"/><path style="fill:none;stroke:#000;stroke-width:.0264583" id="path1554" d="M 0,119.915 C 44.097333,94.455267 88.194667,68.995533 132.292,43.5358"/><path style="fill:none;stroke:#000;stroke-width:.0264583" id="path1556" d="M 0,118.387 C 44.097333,92.927433 88.194667,67.467867 132.292,42.0083"/><path style="fill:none;stroke:#000;stroke-width:.0264583" id="path1558" d="M 0,116.859 C 44.097333,91.399567 88.194667,65.940133 132.292,40.4807"/><path style="fill:none;stroke:#000;stroke-width:.0264583" id="path1560" d="M 0,113.804 C 44.097333,88.3445 88.194667,62.885 132.292,37.4255"/><path style="fill:none;stroke:#000;stroke-width:.0264583" id="path1562" d="M 0,112.277 C 44.097333,86.817333 88.194667,61.357667 132.292,35.898"/><path style="fill:none;stroke:#000;stroke-width:.0264583" id="path1564" d="M 0,110.749 C 44.097333,85.289467 88.194667,59.829933 132.292,34.3704"/><path style="fill:none;stroke:#000;stroke-width:.0264583" id="path1566" d="M 0,109.221 C 44.097333,83.7616 88.194667,58.3022 132.292,32.8428"/><path style="fill:none;stroke:#000;stroke-width:.0264583" id="path1568" d="M 0,106.166 C 44.097333,80.706567 88.194667,55.247133 132.292,29.7877"/><path style="fill:none;stroke:#000;stroke-width:.0264583" id="path1570" d="M 0,104.639 C 44.097333,79.179367 88.194667,53.719733 132.292,28.2601"/><path style="fill:none;stroke:#000;stroke-width:.0264583" id="path1572" d="M 0,103.111 C 44.097333,77.6515 88.194667,52.192 132.292,26.7325"/><path style="fill:none;stroke:#000;stroke-width:.0264583" id="path1574" d="M 0,101.584 C 44.097333,76.124333 88.194667,50.664667 132.292,25.205"/><path style="fill:none;stroke:#000;stroke-width:.0264583" id="path1576" d="M 0,98.5285 C 44.097333,73.068933 88.194667,47.609367 132.292,22.1498"/><path style="fill:none;stroke:#000;stroke-width:.0264583" id="path1578" d="M 0,97.0009 C 44.097333,71.541333 88.194667,46.081767 132.292,20.6222"/><path style="fill:none;stroke:#000;stroke-width:.0264583" id="path1580" d="M 0,95.4733 C 44.097333,70.013767 88.194667,44.554233 132.292,19.0947"/><path style="fill:none;stroke:#000;stroke-width:.0264583" id="path1582" d="M 0,93.9458 C 44.097333,68.486233 88.194667,43.026667 132.292,17.5671"/><path style="fill:none;stroke:#000;stroke-width:.0264583" id="path1584" d="M 0,90.8906 C 44.097333,65.431033 88.194667,39.971467 132.292,14.5119"/><path style="fill:none;stroke:#000;stroke-width:.0264583" id="path1586" d="M 0,89.363 C 44.097333,63.903467 88.194667,38.443933 132.292,12.9844"/><path style="fill:none;stroke:#000;stroke-width:.0264583" id="path1588" d="M 0,87.8355 C 44.097333,62.375933 88.194667,36.916367 132.292,11.4568"/><path style="fill:none;stroke:#000;stroke-width:.0264583" id="path1590" d="M 0,86.3079 C 44.097333,60.848343 88.194667,35.388787 132.292,9.92923"/><path style="fill:none;stroke:#000;stroke-width:.0264583" id="path1592" d="M 0,83.2527 C 44.097333,57.79316 88.194667,32.33362 132.292,6.87408"/><path style="fill:none;stroke:#000;stroke-width:.0264583" id="path1594" d="M 0,81.7252 C 44.097333,56.265637 88.194667,30.806073 132.292,5.34651"/><path style="fill:none;stroke:#000;stroke-width:.0264583" id="path1596" d="M 0,80.1976 C 44.097333,54.738043 88.194667,29.278487 132.292,3.81893"/><path style="fill:none;stroke:#000;stroke-width:.0264583" id="path1598" d="M 0,78.67 C 44.097333,53.210453 88.194667,27.750907 132.292,2.29136"/><path style="fill:none;stroke:#000;stroke-width:.0264583" id="path1600" d="M 0,75.6149 C 43.656333,50.409933 87.312667,25.204967 130.969,0"/><path style="fill:none;stroke:#000;stroke-width:.0264583" id="path1602" d="M 0,74.0873 C 42.774333,49.391533 85.548667,24.695767 128.323,0"/><path style="fill:none;stroke:#000;stroke-width:.0264583" id="path1604" d="M 0,72.5597 C 41.892333,48.373133 83.784667,24.186567 125.677,0"/><path style="fill:none;stroke:#000;stroke-width:.0264583" id="path1606" d="M 0,71.0322 C 41.010333,47.3548 82.020667,23.6774 123.031,0"/><path style="fill:none;stroke:#000;stroke-width:.0264583" id="path1608" d="M 0,67.977 C 39.246667,45.318 78.493333,22.659 117.74,0"/><path style="fill:none;stroke:#000;stroke-width:.0264583" id="path1610" d="M 0,66.4494 C 38.364667,44.2996 76.729333,22.1498 115.094,0"/><path style="fill:none;stroke:#000;stroke-width:.0264583" id="path1612" d="M 0,64.9219 C 37.482667,43.281267 74.965333,21.640633 112.448,0"/><path style="fill:none;stroke:#000;stroke-width:.0264583" id="path1614" d="M 0,63.3943 C 36.600667,42.262867 73.201333,21.131433 109.802,0"/><path style="fill:none;stroke:#000;stroke-width:.0264583" id="path1616" d="M 0,60.3391 C 34.836667,40.226067 69.673333,20.113033 104.51,0"/><path style="fill:none;stroke:#000;stroke-width:.0264583" id="path1618" d="M 0,58.8116 C 33.955,39.207733 67.91,19.603867 101.865,0"/><path style="fill:none;stroke:#000;stroke-width:.0264583" id="path1620" d="M 0,57.284 C 33.072933,38.189333 66.145867,19.094667 99.2188,0"/><path style="fill:none;stroke:#000;stroke-width:.0264583" id="path1622" d="M 0,55.7564 C 32.190967,37.170933 64.381933,18.585467 96.5729,0"/><path style="fill:none;stroke:#000;stroke-width:.0264583" id="path1624" d="M 0,52.7013 C 30.427067,35.1342 60.854133,17.5671 91.2812,0"/><path style="fill:none;stroke:#000;stroke-width:.0264583" id="path1626" d="M 0,51.1737 C 29.545133,34.1158 59.090267,17.0579 88.6354,0"/><path style="fill:none;stroke:#000;stroke-width:.0264583" id="path1628" d="M 0,49.6461 C 28.6632,33.0974 57.3264,16.5487 85.9896,0"/><path style="fill:none;stroke:#000;stroke-width:.0264583" id="path1630" d="M 0,48.1186 C 27.781267,32.079067 55.562533,16.039533 83.3438,0"/><path style="fill:none;stroke:#000;stroke-width:.0264583" id="path1632" d="M 0,45.0634 C 26.017367,30.042267 52.034733,15.021133 78.0521,0"/><path style="fill:none;stroke:#000;stroke-width:.0264583" id="path1634" d="M 0,43.5358 C 25.1354,29.023867 50.2708,14.511933 75.4062,0"/><path style="fill:none;stroke:#000;stroke-width:.0264583" id="path1636" d="M 0,42.0083 C 24.253467,28.005533 48.506933,14.002767 72.7604,0"/><path style="fill:none;stroke:#000;stroke-width:.0264583" id="path1638" d="M 0,40.4807 C 23.371533,26.987133 46.743067,13.493567 70.1146,0"/><path style="fill:none;stroke:#000;stroke-width:.0264583" id="path1640" d="M 0,37.4255 C 21.607633,24.950333 43.215267,12.475167 64.8229,0"/><path style="fill:none;stroke:#000;stroke-width:.0264583" id="path1642" d="M 0,35.898 C 20.7257,23.932 41.4514,11.966 62.1771,0"/><path style="fill:none;stroke:#000;stroke-width:.0264583" id="path1644" d="M 0,34.3704 C 19.843733,22.9136 39.687467,11.4568 59.5312,0"/><path style="fill:none;stroke:#000;stroke-width:.0264583" id="path1646" d="M 0,32.8428 C 18.9618,21.8952 37.9236,10.9476 56.8854,0"/><path style="fill:none;stroke:#000;stroke-width:.0264583" id="path1648" d="M 0,29.7877 C 17.197933,19.858467 34.395867,9.9292333 51.5938,0"/><path style="fill:none;stroke:#000;stroke-width:.0264583" id="path1650" d="M 0,28.2601 C 16.315967,18.840067 32.631933,9.4200333 48.9479,0"/><path style="fill:none;stroke:#000;stroke-width:.0264583" id="path1652" d="M 0,26.7325 C 15.434033,17.821667 30.868067,8.9108333 46.3021,0"/><path style="fill:none;stroke:#000;stroke-width:.0264583" id="path1654" d="M 0,25.205 C 14.552067,16.803333 29.104133,8.4016667 43.6562,0"/><path style="fill:none;stroke:#000;stroke-width:.0264583" id="path1656" d="M 0,22.1498 C 12.7882,14.766533 25.5764,7.3832667 38.3646,0"/><path style="fill:none;stroke:#000;stroke-width:.0264583" id="path1658" d="M 0,20.6222 C 11.906267,13.748133 23.812533,6.8740667 35.7188,0"/><path style="fill:none;stroke:#000;stroke-width:.0264583" id="path1660" d="M 0,19.0947 C 11.0243,12.7298 22.0486,6.3649 33.0729,0"/><path style="fill:none;stroke:#000;stroke-width:.0264583" id="path1662" d="M 0,17.5671 C 10.142367,11.7114 20.284733,5.8557 30.4271,0"/><path style="fill:none;stroke:#000;stroke-width:.0264583" id="path1664" d="M 0,14.5119 C 8.3784667,9.6746 16.756933,4.8373 25.1354,0"/><path style="fill:none;stroke:#000;stroke-width:.0264583" id="path1666" d="M 0,12.9844 C 7.4965333,8.6562667 14.993067,4.3281333 22.4896,0"/><path style="fill:none;stroke:#000;stroke-width:.0264583" id="path1668" d="M 0,11.4568 C 6.6146,7.6378667 13.2292,3.8189333 19.8438,0"/><path style="fill:none;stroke:#000;stroke-width:.0264583" id="path1670" d="M 0,9.92923 C 5.7326333,6.6194867 11.465267,3.3097433 17.1979,0"/><path style="fill:none;stroke:#000;stroke-width:.0264583" id="path1672" d="M 0,6.87408 C 3.9687333,4.58272 7.9374667,2.29136 11.9062,0"/><path style="fill:none;stroke:#000;stroke-width:.0264583" id="path1674" d="M 0,5.34651 C 3.0868067,3.56434 6.1736133,1.78217 9.26042,0"/><path style="fill:none;stroke:#000;stroke-width:.0264583" id="path1676" d="M 0,3.81893 C 2.20486,2.5459533 4.40972,1.2729767 6.61458,0"/><path style="fill:none;stroke:#000;stroke-width:.0264583" id="path1678" d="M 0,2.29136 C 1.3229167,1.5275733 2.6458333,0.76378667 3.96875,0"/></g><path style="fill:none;stroke:#000;stroke-width:.79375" id="rect1682" d="m 0,0 c 44.097223,0 88.194447,0 132.29167,0 0,50.919107 0,101.83821 0,152.75732 -44.097223,0 -88.194447,0 -132.29167,0 C 0,101.83821 0,50.919107 0,0 Z"/></g></g></svg>