<?xml version="1.0" encoding="UTF-8" standalone="no"?>
<svg
   xmlns:dc="http://purl.org/dc/elements/1.1/"
   xmlns:cc="http://creativecommons.org/ns#"
   xmlns:rdf="http://www.w3.org/1999/02/22-rdf-syntax-ns#"
   xmlns:svg="http://www.w3.org/2000/svg"
   xmlns="http://www.w3.org/2000/svg"
   xmlns:sodipodi="http://sodipodi.sourceforge.net/DTD/sodipodi-0.dtd"
   xmlns:inkscape="http://www.inkscape.org/namespaces/inkscape"
   width="9216.4219"
   height="3020.6492"
   viewBox="0 0 2438.5116 799.21348"
   version="1.1"
   id="svg8"
   inkscape:version="1.0 (4035a4fb49, 2020-05-01)"
   sodipodi:docname="synth_hills.svg">
  <defs
     id="defs2">
    <inkscape:path-effect
       overflow_perspective="false"
       vertical_mirror="false"
       horizontal_mirror="false"
       deform_type="perspective"
       lpeversion="1"
       is_visible="true"
       id="path-effect837"
       down_right_point="1011.1145,526.36649"
       down_left_point="-924.55492,526.36649"
       up_right_point="1011.1145,-9.1257556"
       up_left_point="-924.55492,-9.1257556"
       effect="perspective-envelope" />
    <clipPath
       id="cp6">
      <path
         transform="scale(0.24)"
         d="M 655.99417,529.0874 H 905.9888 v 505.7775 H 655.99417 Z"
         fill-rule="evenodd"
         id="path42" />
    </clipPath>
  </defs>
  <sodipodi:namedview
     inkscape:window-maximized="1"
     inkscape:window-y="-8"
     inkscape:window-x="1358"
     inkscape:window-height="1017"
     inkscape:window-width="1920"
     inkscape:pagecheckerboard="true"
     units="px"
     showgrid="false"
     inkscape:document-rotation="0"
     inkscape:current-layer="layer1"
     inkscape:document-units="mm"
     inkscape:cy="2403.9315"
     inkscape:cx="2578.4788"
     inkscape:zoom="0.175"
     inkscape:pageshadow="2"
     inkscape:pageopacity="0.0"
     borderopacity="1.0"
     bordercolor="#666666"
     pagecolor="#ffffff"
     id="base" />
  <metadata
     id="metadata5">
    <rdf:RDF>
      <cc:Work
         rdf:about="">
        <dc:format>image/svg+xml</dc:format>
        <dc:type
           rdf:resource="http://purl.org/dc/dcmitype/StillImage" />
        <dc:title />
      </cc:Work>
    </rdf:RDF>
  </metadata>
  <g
     transform="translate(1212.2618,106.05362)"
     id="layer1"
     inkscape:groupmode="layer"
     inkscape:label="Synth"
     style="display:inline">
    <path
       d="m 1292.7279,449.39674 c -879.21615,0.41653 -1758.43237,0.83153 -2637.6486,1.24737 m 2664.9642,32.67692 c -897.9502,0.39066 -1795.90034,0.77973 -2693.8504,1.16958 m 2722.3577,34.23323 c -917.49953,0.36238 -1834.99916,0.72312 -2752.4988,1.08701 m 2782.2774,35.89322 c -937.9184,0.33178 -1875.83692,0.66192 -2813.7553,0.99271 m 2844.8909,37.67355 c -959.26825,0.29879 -1918.53667,0.59354 -2877.8051,0.8913 m 2910.3931,39.58112 c -981.61168,0.25873 -1963.22349,0.51817 -2944.8355,0.7781 m 2978.9815,41.62787 c -1005.02121,0.21659 -2010.04243,0.43338 -3015.0637,0.65081 m 3050.8824,43.8302 c -1029.57428,0.16928 -2059.14875,0.34151 -3088.7232,0.51172 m 3126.3368,46.19995 c -1055.35704,0.12017 -2110.71422,0.24022 -3166.0716,0.36079 m 3205.6218,48.75601 c -1082.46483,0.0635 -2164.92983,0.12702 -3247.3949,0.18848 m 3289.0333,51.5243 c -1111.00094,0 -2222.00209,0 -3333.0035,0 M 1292.7279,449.39674 c 112.6978,139.95788 225.3945,279.91639 338.092,419.87442 M 1028.2597,449.52171 c 89.3787,139.91614 178.755,279.83342 268.1341,419.74945 M 763.94612,449.64667 c 66.09055,139.87521 132.18272,279.74982 198.27475,419.62449 M 499.7775,449.77166 c 42.83478,139.83292 85.66682,279.66648 128.50114,419.4995 M 235.78013,449.89662 c 19.60975,139.79142 39.21841,279.58294 58.82635,419.37454 M -28.059197,450.0216 c -3.585488,139.74985 -7.169409,279.49973 -10.756179,419.24956 M -291.74045,450.14659 c -26.74787,139.70833 -53.49734,279.41644 -80.24649,419.12457 M -555.26692,450.27155 c -49.87977,139.66645 -99.75791,279.33332 -149.6383,418.99961 M -818.6513,450.39654 c -72.98049,139.62493 -145.96159,279.24964 -218.942,418.87462 m -44.2706,-418.74966 c -96.0505,139.5828 -192.0994,279.16644 -288.1491,418.74966 m 25.0923,-418.62705 c -119.087,139.54277 -238.1755,279.08452 -357.2629,418.62705 M -242.93246,381.74038 c 95.10962,23.38285 190.219256,46.76569 285.328885,70.14854 M -185.86665,349.86434 c 76.08769,34.00819 152.175373,68.01638 228.263075,102.02458 M 228.32038,404.05359 c -61.9829,15.91997 -124.04713,31.60903 -185.923955,47.83533 M 1102.7153,276.54942 c 30.7067,69.34064 109.8448,105.27282 167.7976,155.81882 7.4051,5.67617 14.81,11.35233 22.215,17.0285 M 1060.3761,292.48745 c 6.6824,38.85513 31.3917,64.84462 74.1807,77.9309 52.7237,26.32613 105.4474,52.65226 158.1711,78.97839 M 994.10615,287.70605 c 10.67285,37.05757 34.67375,65.22817 73.71285,83.37139 40.2416,26.16638 80.4832,52.33276 120.7251,78.49914 M 832.11308,254.23619 c 75.8199,83.00401 185.62662,131.75129 281.07182,195.5396 M 716.14064,273.36181 c 47.6283,48.48373 98.09594,94.05625 164.1316,123.66663 31.42502,17.61566 62.85009,35.23131 94.27518,52.84697 M 513.64925,225.54774 c 18.19255,39.16265 39.225,76.30967 84.87837,95.98228 66.54838,42.98102 133.09677,85.96204 199.64519,128.94307 M 340.61112,249.45476 c 49.12297,54.65581 103.35945,104.67113 170.48167,142.99268 29.1166,19.44151 58.23318,38.88301 87.34976,58.3245 M 274.34117,290.89365 c 65.72172,51.06174 126.32536,106.79304 189.49055,160.17714 M 191.50374,337.11392 c 53.35382,14.67092 111.62956,21.94337 146.99475,63.65427 21.10678,16.86713 42.21351,33.73427 63.32025,50.60141 M 228.32038,404.05359 c 35.81186,-21.49667 74.5302,-40.69878 90.20071,-78.09632 53.06485,2.42426 108.40287,17.73524 156.09926,-10.27414 39.59471,-14.09421 78.6613,-36.39358 120.55128,-14.82658 70.0249,14.84413 140.55669,39.95179 210.26893,48.46521 48.95863,-14.86624 96.63391,-42.23351 149.15426,-22.40552 60.12608,8.44737 123.15988,26.65067 181.25538,2.22863 28.2261,4.25014 56.4522,8.50027 84.6781,12.75042 M -624.79276,450.17294 c 24.48204,-37.94505 33.06815,-87.40378 67.5446,-118.10968 45.52523,-30.04715 107.89315,-47.16276 123.90903,-99.86657 19.28896,-33.02983 38.57789,-66.05966 57.86684,-99.08949 m -75.58575,318.48702 c 17.13658,-41.55305 12.54216,-95.51132 65.85721,-116.41177 40.5266,-18.43717 59.61981,-50.57223 71.23672,-87.48536 20.60921,-46.69691 41.21835,-93.39383 61.82752,-140.09074 m -115.39712,344.1617 c 17.82869,-45.63499 43.39576,-86.74731 88.20621,-116.61294 40.73838,-44.1956 67.73673,-99.00719 102.90362,-146.99967 m -700.2096,262.09527 c 27.08653,-49.68344 39.05086,-108.47623 95.62252,-140.39827 39.0259,-30.24632 81.11082,-58.72596 90.47108,-106.10528 19.11708,-44.26608 38.23413,-88.53217 57.35121,-132.798266 m 390.25621,310.791486 c -64.31731,5.32135 -126.05172,-5.56495 -187.21283,-21.76457 -80.12826,-13.96683 -160.34502,-26.83802 -242.311,-18.06164 -185.73483,-1.23555 -367.40651,35.64902 -550.82921,56.10636 -13.2324,1.71218 -26.465,3.42437 -39.6977,5.13655 m 988.75663,48.51135 c 17.17264,-35.69847 23.99214,-78.70122 71.98354,-92.65649 5.45878,-3.0492 10.91758,-6.0984 16.37638,-9.1476 m -1079.18735,-1.4942 c 185.2752,-36.07481 372.85407,-65.85926 559.59659,-93.57224 118.51185,12.37417 240.51896,9.29785 353.11381,47.82717 55.33686,16.14644 110.34599,33.17473 166.47695,47.23927 21.47637,-38.25127 42.95272,-76.50253 64.42908,-114.7538 m -922.25653,-41.43885 c -36.0037,44.93902 -55.9154,102.75279 -102.924,138.88714 -66.1009,39.36176 -132.2018,78.72351 -198.3026,118.08528 m 135.5518,-175.6885 c 89.2369,-44.00394 176.2778,-92.22015 276.83277,-114.51517 102.04591,-28.09372 203.75667,-65.732366 306.01124,-87.884306 85.94906,18.69407 171.72409,45.472976 257.78093,59.159916 39.21814,-4.02762 85.92882,-25.75111 120.70308,-19.28309 35.95671,45.82692 75.02552,89.19461 126.60331,122.67758 54.475938,72.33616 109.533178,144.34416 163.833995,216.77838 26.439069,-55.33566 71.051505,-93.15288 136.937135,-109.93264 34.18099,-22.4708 63.93148,-47.85772 106.22341,-58.07591 36.00068,-30.43609 80.91265,-42.20131 130.19617,-44.80726 53.14747,-7.69455 106.62828,-20.72784 157.96008,0.65746 65.50057,10.35529 129.86571,45.89429 196.79029,24.66598 70.66552,-22.75451 139.84401,10.41824 209.63835,20.42431 41.29574,6.78467 85.54524,13.42014 122.57344,-8.27144 40.9126,17.12176 100.1212,15.17674 114.6349,59.80939 25.126,37.67931 50.2518,75.35861 75.3777,113.03793 -879.21457,2.56177 -1758.43111,2.5998 -2637.6486,1.24737 45.184,-58.56284 90.3679,-117.12567 135.5518,-175.6885 z"
       inkscape:label="grid"
       style="display:inline;fill:#28170b;fill-opacity:0;fill-rule:evenodd;stroke:#000000;stroke-width:3.645;stroke-miterlimit:4;stroke-dasharray:none;stroke-opacity:1"
       id="path46" />
    <g
       style="fill:#000000;fill-opacity:1;stroke-width:0.99992286;stroke-miterlimit:4;stroke-dasharray:none"
       transform="matrix(5.864202,0,0,6.2323336,-561.71332,-689.6564)"
       id="layer1-4"
       inkscape:label="Layer 1">
      <path
         d="m 103.01659,183.16492 c 1.11455,-1.87261 2.22982,-3.74595 3.34437,-5.61929 2.67709,-4.4982 5.35418,-8.9964 8.03128,-13.4946 3.22489,-5.41884 6.44979,-10.83694 9.67469,-16.25578 2.80166,-4.70668 5.60259,-9.41408 8.40425,-14.12148 0.92733,-1.55771 1.85466,-3.11543 2.78199,-4.67314 0.4196,-0.70487 0.99799,-1.43963 1.30978,-2.20136 0.0138,-0.0343 0.0401,-0.0671 0.059,-0.0991 0.0517,-0.0867 0.0408,-0.22014 -0.0379,-0.29011 -3.80621,-3.41284 -7.61315,-6.82494 -11.41935,-10.23704 -6.0149,-5.39187 -12.02981,-10.78373 -18.04471,-16.174869 -1.38043,-1.237716 -2.76086,-2.474704 -4.1413,-3.71242 -0.10053,-0.09039 -0.23821,-0.09039 -0.33873,0 -3.806211,3.412105 -7.613151,6.824209 -11.419361,10.236309 -6.0149,5.39186 -12.0298,10.78373 -18.0447,16.1756 -1.38044,1.23771 -2.76087,2.4747 -4.1413,3.71241 -0.0779,0.07 -0.0896,0.20264 -0.0371,0.29012 1.11454,1.87334 2.22982,3.74668 3.34436,5.62002 2.67709,4.4982 5.35419,8.9964 8.03128,13.4946 3.2249,5.41883 6.4498,10.83694 9.67469,16.25505 2.80094,4.7074 5.60259,9.41481 8.40426,14.12221 0.92733,1.55771 1.853931,3.11543 2.781261,4.67314 0.41813,0.70269 0.78674,1.57011 1.3105,2.20209 0.0233,0.0277 0.0393,0.0663 0.059,0.0977 0.15734,0.26533 0.57184,0.0248 0.41376,-0.242 -1.11527,-1.87334 -2.22982,-3.74668 -3.345091,-5.61929 -2.6771,-4.49893 -5.35419,-8.9964 -8.03128,-13.4946 -3.22417,-5.41884 -6.44906,-10.83695 -9.67397,-16.25578 -2.80165,-4.70668 -5.60332,-9.41408 -8.40498,-14.12148 -0.9266,-1.55772 -1.85393,-3.11543 -2.78126,-4.67315 -0.28628,-0.48109 -0.57257,-0.96218 -0.85886,-1.44327 -0.11436,-0.19244 -0.26734,-0.62396 -0.45164,-0.75881 -0.0233,-0.0175 -0.0422,-0.0714 -0.0583,-0.0984 -0.0124,0.0969 -0.0248,0.1939 -0.0379,0.29084 3.80694,-3.4121 7.61315,-6.8242 11.42008,-10.2363 6.01491,-5.39187 12.02981,-10.78373 18.04471,-16.1756 1.380431,-1.237715 2.760141,-2.474701 4.140571,-3.712419 -0.11291,0 -0.22582,0 -0.33873,0 3.8062,3.412109 7.61314,6.824929 11.41935,10.237039 6.0149,5.39186 12.0298,10.78373 18.0447,16.17487 1.38044,1.23771 2.76087,2.4747 4.1413,3.71242 -0.0124,-0.0969 -0.0248,-0.1939 -0.0379,-0.29085 -1.11454,1.87334 -2.22981,3.74668 -3.34436,5.62002 -2.67709,4.49821 -5.35419,8.99641 -8.03128,13.4946 -3.2249,5.41811 -6.4498,10.83695 -9.67469,16.25506 -2.80093,4.7074 -5.60259,9.4148 -8.40425,14.12148 -0.92733,1.55844 -1.85467,3.11616 -2.78127,4.67387 -0.41668,0.69904 -1.0111,1.44109 -1.3105,2.20136 -0.0138,0.0343 -0.0401,0.0671 -0.0583,0.0984 -0.15881,0.26605 0.25569,0.50806 0.41377,0.242"
         fill="#fe9a38"
         id="path30"
         style="display:inline;fill:#000000;fill-opacity:1;stroke-width:0.99992286;stroke-miterlimit:4;stroke-dasharray:none" />
      <path
         d="m 132.16523,145.71052 c -1.57931,-4.67751 -3.15861,-9.35576 -4.73791,-14.034 -2.51465,-7.44817 -5.0293,-14.89561 -7.54395,-22.34377 -0.5733,-1.6984 -1.14732,-3.3968 -1.72062,-5.0952 -0.024,-0.0722 -0.0845,-0.15599 -0.16682,-0.16692 -3.4733,-0.47453 -6.9466,-0.94833 -10.4199,-1.42213 -5.5312,-0.75444 -11.063141,-1.50961 -16.594341,-2.26405 -1.26388,-0.17275 -2.52703,-0.34478 -3.79091,-0.517536 -0.1304,-0.01749 -0.25424,0.02989 -0.29503,0.167656 -1.52248,5.17318 -3.04496,10.3471 -4.56745,15.52102 -2.41703,8.21208 -4.83406,16.42416 -7.25037,24.63624 -0.36787,1.24792 -0.73502,2.49656 -1.10216,3.74448 -0.15444,0.5241 -0.46695,1.16483 -0.5041,1.71298 -0.0219,0.32 0.22656,0.53066 0.42251,0.78287 0.5886,0.75881 1.17719,1.51762 1.76579,2.27571 4.99287,6.43422 9.98574,12.86845 14.97861,19.30268 3.91839,5.05 7.83751,10.1 11.755911,15.15 0.0656,0.0845 0.13112,0.16911 0.19668,0.25367 0.0736,0.094 0.26662,0.0933 0.33947,0 3.28535,-4.21975 6.57071,-8.43951 9.85607,-12.65926 5.2369,-6.72653 10.47381,-13.45233 15.70999,-20.17813 1.20269,-1.54459 2.40465,-3.08846 3.60661,-4.63232 0.18794,-0.24128 -0.14934,-0.58314 -0.33874,-0.33968 -3.28536,4.21975 -6.57072,8.4395 -9.85607,12.65925 -5.23691,6.72654 -10.47381,13.45233 -15.71072,20.17886 -1.20196,1.54387 -2.40392,3.08773 -3.60661,4.63233 0.11364,0 0.22655,0 0.33947,0 -3.286821,-4.23579 -6.572911,-8.47158 -9.859721,-12.70664 -5.22453,-6.73309 -10.44978,-13.46545 -15.6743,-20.19854 -0.79402,-1.02341 -1.58804,-2.04682 -2.3828,-3.07023 -0.2433,-0.31417 -0.4866,-0.62761 -0.72991,-0.94178 -0.0903,-0.1159 -0.24986,-0.43225 -0.38609,-0.49712 -0.0583,-0.0277 -0.086,0.22815 0.0517,0.0634 0.11219,-0.1334 0.14643,-0.49567 0.1945,-0.66041 0.28556,-0.97093 0.57112,-1.94186 0.85667,-2.91279 2.30485,-7.83158 4.61043,-15.66388 6.91456,-23.49547 1.15606,-3.92818 2.31213,-7.85563 3.4682,-11.78308 0.40138,-1.36455 0.80276,-2.7291 1.20487,-4.09365 0.22291,-0.75881 0.54343,-1.54533 0.68402,-2.32381 0.0175,-0.0984 0.0575,-0.19682 0.086,-0.29304 -0.0984,0.0554 -0.19668,0.11153 -0.29503,0.16766 4.65997,0.63562 9.31993,1.27124 13.979901,1.9076 5.49624,0.74933 10.99247,1.4994 16.48798,2.24946 0.094,0.0131 0.24185,0.0641 0.33582,0.0459 -0.20251,0.0394 -0.17046,-0.32364 -0.0925,0.0518 0.11,0.52847 0.3584,1.06059 0.53032,1.57156 0.75979,2.2502 1.51957,4.50039 2.28008,6.75132 2.23055,6.60844 4.46256,13.21762 6.69383,19.82605 1.44818,4.29046 2.76014,8.65891 4.35401,12.89762 0.0255,0.0685 0.0466,0.13849 0.0699,0.20701 0.0983,0.29157 0.56165,0.1662 0.46258,-0.12756"
         fill="#fe9a38"
         id="path32"
         style="display:inline;fill:#000000;fill-opacity:1;stroke-width:0.99992286;stroke-miterlimit:4;stroke-dasharray:none" />
      <g
         transform="matrix(0.35277777,0,0,0.35277777,36.307683,82.148322)"
         clip-path="url(#cp6)"
         id="g47"
         style="display:inline;fill:#000000;fill-opacity:1;stroke:none;stroke-opacity:1;stroke-width:2.83442707;stroke-miterlimit:4;stroke-dasharray:none">
        <path
           style="fill:#000000;fill-opacity:1;stroke:none;stroke-opacity:1;stroke-width:18.81272259;stroke-miterlimit:4;stroke-dasharray:none"
           transform="matrix(0.15030059,0,0,0.15103117,157.43859,126.98097)"
           d="m 306.28126,687.78518 63.79297,-159.8789 24.21875,17.76562 z m -11.83203,18.33202 -51.52735,-32.3555 10.28125,-19.49214 c 0.0156,-0.0313 0.0156,-0.0586 0.0273,-0.0899 0.0117,-0.0234 0.0352,-0.043 0.0469,-0.0703 l 25.17579,-59.20703 c 0.0859,-0.20707 0.14062,-0.42578 0.15625,-0.64457 l 2.04296,-24.5117 39.73829,69.4336 c 0.13671,0.2422 0.32812,0.4297 0.53125,0.58986 z M 215.80078,797.78518 201.6914,727.6211 v -44.02342 l 38.03907,-6.88672 52.21876,32.79294 z m -55.38671,-125.16798 -7.32032,-13.8711 14.6836,8.48439 c 0.3164,0.1836 0.67968,0.28121 1.04687,0.28121 h 61.53906 c 0.3711,0 0.73047,-0.0976 1.05079,-0.28121 l 14.67968,-8.48439 -7.3164,13.8711 -39.1836,7.09767 z m 37.07812,55.02736 -9.91406,70.14062 -80.33594,-88.28128 52.22266,-32.79294 38.02734,6.88672 z m -119.226562,-87.875 c 0.207032,-0.16016 0.394532,-0.34766 0.535152,-0.58986 l 39.73438,-69.4336 2.04297,24.5117 c 0.0195,0.21879 0.0742,0.4375 0.16015,0.64457 l 25.17579,59.20703 c 0.0117,0.0273 0.0312,0.0469 0.0469,0.0703 0.0117,0.0313 0.0117,0.0586 0.0273,0.0899 l 10.28125,19.49214 -51.53125,32.3555 z M 4.8945314,545.6719 29.117188,527.90628 92.90625,687.78518 Z M 18.71875,520.6875 26.1875,524.85159 8.953125,537.4883 Z M 52.398439,493.4922 29.539063,521.91799 21.71875,517.5586 Z m 13.207031,-9.72656 57.25,61.85936 -4.96484,14.1953 c -0.0547,0.16019 -0.0859,0.32426 -0.10157,0.4922 -0.004,0.0547 -0.004,0.1094 -0.004,0.16409 0,0.0703 -0.0117,0.14061 -0.004,0.21091 l 0.14063,1.6875 -41.562502,72.6172 -43.894533,-110.01952 z m 25.73437,-123.05469 2.19532,33.03515 c 0.0039,0.0274 0.01172,0.0586 0.01562,0.0899 0.01563,0.11328 0.03125,0.22655 0.06641,0.33984 0.0039,0.0195 0.0039,0.043 0.01172,0.0625 l 30.82422,97.79297 -56.50391,-13.0625 z m -9.86718,-67.38281 -3.85938,-18.47657 10.90625,11.29688 2.94531,3.05078 0.5625,14.63281 z m -5.37891,-25.9375 c -0.0039,-0.004 -0.0039,-0.008 -0.0078,-0.008 l -3.10547,-1.61716 3.62109,-3.7461 14.17578,8.44141 0.457038,12.45703 L 76.625,267.78517 c -0.16016,-0.16407 -0.33594,-0.29297 -0.53125,-0.39453 z m 32.30078,-76.83204 7.59766,69.59766 -22.87891,6.8125 -14,-8.33986 z m -0.96484,-42.63672 31.00391,-19.64844 -11.03126,42.89844 -16.07421,8.03515 z M 86.5625,127.64063 71.66016,72.265628 77.63281,33.91797 118.49219,49.492189 139.33985,122.73047 105.39453,144.2461 Z M 87.19141,6.6914064 97.49609,22.144532 c 0.02735,0.04297 0.0586,0.08594 0.08985,0.125 L 113.94922,43.26953 78.64844,29.8125 Z m 52.70703,85.8476536 9.20313,18.73047 -6.40625,7.92969 -14.12892,-49.63281 z m 12.83984,20.90235 6.14844,-1.3125 37.82422,48.54297 -53.49219,45.84765 -11.83203,-33.99218 12.31641,-47.89844 z m 0.1875,120.96094 -8.22656,-23.62891 52.79297,-45.24609 v 112.58594 z m -10.96484,72.25391 10.58203,-66.75391 44.94922,44.08985 v 43.6367 z m 2.91016,154.14453 52.62109,-120.11329 v 155.72657 z m 1.20703,108.75781 -7.03125,-12.0742 34.36719,-47.87892 24.07812,-6.49609 V 583.8594 Z M 157.71875,640.1797 143,596.6875 l 3.41797,-22.6797 51.07422,14.20707 v 26.73823 z m 0.2461,4.8125 39.52734,-25.0664 v 43.3906 h -28.10547 l -18.27344,-10.5625 z m -22.48438,-85.293 7.03125,12.07036 -3.73437,24.79294 c -0.0508,0.33206 -0.0195,0.66799 0.0859,0.9844 l 15.34766,45.35547 -5.73828,6.50391 -23.74219,-55.83598 -2.57031,-30.8711 c 0,-0.004 0,-0.008 0,-0.008 l -0.0391,-0.46481 z m -9.91016,-9.1211 1.66407,-4.7617 9.17187,-26.22653 30.60157,-8.25392 -31.67188,44.12501 -12.28516,2.31641 z m 0.34766,-53.90231 6.66016,21.14061 -8.15235,23.3242 -52.75781,-57.00387 z m 10.4336,-75.82031 3.78906,40.66016 -6.1875,46.69531 -8.76172,-27.78516 z m -25.8086,-47.39063 24.27735,32.78125 -12.30469,65.6836 -24.59766,-78.03516 z m 22.97266,-45.14455 -24.92969,40.33596 c -0.004,0.004 -0.008,0.004 -0.008,0.008 l -11.28907,18.26953 -5.179682,-77.89453 0.9375,0.66407 v 0.004 c 0,0 0,0 0,0 l 0.02343,0.0156 c 0.01172,0.008 0.02344,0.0117 0.03516,0.0195 0.09766,0.0664 0.19531,0.1289 0.30469,0.17969 z m -0.8125,53.3594 1.5625,16.7656 -21.34766,-28.8242 21.27735,-34.42187 -1.5,46.21484 c -0.004,0.0898 0,0.17578 0.008,0.26563 z m 7.32812,-89.65235 -2.48047,15.65625 v 0.004 l -2.64062,16.65626 -38.57422,-17.69922 -0.70703,-18.40625 -0.64063,-17.44922 22.53125,-6.71093 z m 0.88672,-5.58595 -20.62891,-25.61326 -8.42968,-77.19532 L 128,175.5625 148.95313,235.75 Z m 2.96485,178.7539 50.73828,34.34377 -57.33594,15.46873 z m -0.29688,-11.91795 -6.69141,-71.85546 1.7461,-53.81641 2.65234,-16.71875 55.49219,20.96094 z m 53.90625,-349.39454 v 50.96876 l -34.04687,-43.69923 z m 4.19921,516.03518 39.53517,25.07421 6.84765,7.7617 -18.26953,10.5625 H 201.6914 Z m 0,-31.69921 51.08204,-14.21098 3.41406,22.6797 -14.71484,43.4922 -39.78126,-25.2266 z m 0,-85.10939 24.08595,6.49609 34.36719,47.87892 -7.03516,12.0742 -51.41798,14.3008 z m 0,-162.4336 52.625,120.125 -52.625,35.6211 z m 0,-56.67969 44.95313,-44.08985 10.58595,66.75001 -55.53908,20.97654 z m 0,-118.47266 52.79688,45.25 -8.22656,23.62891 -44.57032,43.71485 z m 0,-61.64453 34.05079,7.27343 -34.05079,43.70704 z m 44.75782,9.5625 9.03516,11.1875 12.31641,47.89844 -11.83204,33.99218 -53.48828,-45.84765 37.82422,-48.54297 z m 24.15626,-43.8125 -14.10938,49.57031 -6.40625,-7.92969 z M 280.69923,49.492189 321.5547,33.91797 327.52735,72.265628 312.625,127.64063 293.79689,144.2461 259.85157,122.73047 Z m 20.90234,-27.222657 c 0.0352,-0.03906 0.0625,-0.08203 0.0937,-0.125 L 311.9961,6.6914064 320.53907,29.8125 285.23829,43.26953 Z m -13.74218,156.937498 -16.07422,-8.03515 -11.02737,-42.89844 31,19.64844 z m 32.21875,79.42187 -14.00391,8.33986 -22.87893,-6.8125 7.60159,-69.60157 z m 6.1289,7.13674 -3.10156,1.61716 c -0.004,0 -0.008,0.004 -0.0117,0.008 -0.19141,0.10156 -0.37109,0.23046 -0.52736,0.39453 l -14.60936,15.13281 0.45313,-12.45703 14.17968,-8.44141 z m -8.48828,28.80076 -10.55469,9.26564 0.5586,-13.39844 11.59763,-12.00781 2.25784,-3.57422 z m 13.52344,184.40236 -56.50781,13.0625 30.82811,-97.79297 c 0.008,-0.0195 0.004,-0.043 0.0117,-0.0625 0.0312,-0.11329 0.0508,-0.22656 0.0625,-0.33984 0.004,-0.0274 0.0156,-0.0625 0.0156,-0.0899 l 2.19922,-33.03515 z m -68.46094,40.62111 9.17578,26.22653 4.17969,11.96097 -12.27734,-2.31641 -31.67579,-44.12501 z m -0.875,-4.58207 -57.33986,-15.46873 50.7422,-34.34377 z m -1.35937,-187.40232 1.75,53.81641 -6.69142,71.85546 -53.20312,-121.42968 55.4961,-20.96094 z m 18.35546,-66.77734 -20.63281,25.61326 -8.03516,-50.6914 20.95702,-60.1875 16.13674,8.07032 z m 24.66015,27.41015 -0.70702,18.40625 -38.57813,17.69922 -2.63671,-16.65236 c 0,-0.004 0,-0.008 0,-0.0117 l -2.48438,-15.64844 22.51563,-27.95312 22.53125,6.71093 z m -12.95311,80.42188 -24.9336,-40.33987 40.10156,-18.39841 c 0.10938,-0.0508 0.21094,-0.11329 0.3086,-0.1836 0.0117,-0.004 0.0234,-0.008 0.0312,-0.0156 l 0.0234,-0.0117 c 0,-0.004 0.004,-0.008 0.004,-0.008 l 0.9375,-0.66407 -5.17969,77.89453 z m -25.61719,-33.46094 21.27734,34.42577 -21.34375,28.8203 1.5586,-16.7656 c 0.0117,-0.0899 0.0156,-0.1758 0.0117,-0.26563 z m -0.6211,71.04687 24.27344,-32.78125 12.62891,20.42969 -24.59766,78.03516 z m 63.15235,77.89063 -52.75781,57.00387 -8.15625,-23.3242 6.66406,-21.14061 z m -62.28516,24.07422 -6.1875,-46.69531 3.78906,-40.66016 11.15625,59.57031 z m -4.82812,88.35155 -3.73438,-24.79294 7.03125,-12.07036 13.36326,2.52739 -0.039,0.46481 -0.004,0.004 c 0,0 0,0 0,0 l -2.57031,30.875 -23.73829,55.83598 -5.73828,-6.50391 15.34376,-45.35547 c 0.10937,-0.31641 0.13672,-0.65234 0.0859,-0.9844 z m 106.3164,-71.58982 -43.89843,110.01952 -41.5586,-72.6172 0.14063,-1.6875 c 0.004,-0.0703 -0.004,-0.14451 -0.008,-0.21872 0,-0.0508 0.004,-0.10158 0,-0.15238 -0.0196,-0.16794 -0.0469,-0.33591 -0.10156,-0.4961 l -4.96484,-14.1953 57.24609,-61.85936 z m 10.7461,-7.41408 -7.82032,4.35939 -22.85937,-28.42189 z m 12.76172,19.9297 -17.23049,-12.63671 7.46486,-4.16409 z m 8.90234,7.1836 c -0.043,-0.20312 -0.11328,-0.4102 -0.22266,-0.6016 L 383.0625,516.7969 c -0.0273,-0.043 -0.0586,-0.082 -0.0898,-0.125 -0.0469,-0.0664 -0.0859,-0.13281 -0.14063,-0.19531 -0.0547,-0.0625 -0.11719,-0.11329 -0.17969,-0.16799 -0.0351,-0.039 -0.0664,-0.0742 -0.10937,-0.1094 l -46.94141,-36.81247 -26.67187,-134.85938 2.49219,-37.50781 9.625,-9.67969 c 0.0586,-0.0469 0.10156,-0.0976 0.15234,-0.14845 0.043,-0.039 0.0859,-0.0781 0.125,-0.1211 0.0703,-0.082 0.12891,-0.16795 0.18357,-0.2578 0.0196,-0.0351 0.0469,-0.0625 0.0664,-0.0976 0.0703,-0.1289 0.12891,-0.26171 0.16797,-0.39845 0.0117,-0.0312 0.0117,-0.0625 0.0234,-0.0937 0.0273,-0.11328 0.0469,-0.22267 0.0586,-0.33594 0,-0.0156 0.008,-0.0273 0.008,-0.0391 l 4.25391,-25.28517 4.55469,-2.375 c 0.58593,-0.3047 0.99216,-0.8711 1.09765,-1.52343 0.10938,-0.65234 -0.10156,-1.3164 -0.55859,-1.79297 l -6.94141,-7.1836 -32.51172,-75.58593 4.25782,-34.19532 19.89061,-17.53906 c 0.3086,-0.27344 0.53126,-0.62891 0.64064,-1.02734 l 15.1795,-56.41411 c 0.0782,-0.28125 0.0938,-0.57812 0.0469,-0.86719 l -6.4375,-41.347652 c 0,0 -0.004,-0.0039 -0.004,-0.0078 -0.004,-0.03516 -0.0195,-0.07031 -0.0273,-0.105468 -0.0196,-0.09766 -0.043,-0.195313 -0.0782,-0.289063 l -10.6914,-28.9375 c -0.27342,-0.738282 -0.9414,-1.261719 -1.72264,-1.355469 -0.78906,-0.09375001 -1.55469,0.261719 -1.99219,0.9218751 L 298.2422,19.753907 277.3125,46.617189 c -0.039,0.04687 -0.0664,0.105469 -0.0976,0.15625 -0.0351,0.05078 -0.0703,0.101561 -0.0976,0.15625 -0.008,0.01563 -0.0234,0.03125 -0.0274,0.04687 l -21.56641,43.710936 -9.07031,18.464835 -46.42188,-9.917957 c -0.004,0 -0.0117,0 -0.0156,0 -0.0859,-0.01954 -0.17578,-0.02344 -0.26953,-0.03125 -0.0508,-0.0039 -0.10157,-0.01172 -0.15235,-0.01172 -0.0469,0 -0.0976,0.0078 -0.14843,0.01172 -0.0937,0.0078 -0.1875,0.01171 -0.27344,0.03125 -0.008,0 -0.0117,0 -0.0156,0 l -46.42187,9.917957 -30.63282,-62.175771 c -0.008,-0.01563 -0.0234,-0.03125 -0.0312,-0.05078 -0.0273,-0.05078 -0.0625,-0.10156 -0.0937,-0.152341 -0.0352,-0.05078 -0.0625,-0.109375 -0.0977,-0.15625 L 100.94531,19.753907 88.39844,0.9375001 C 87.96094,0.277344 87.19531,-0.0703125 86.40625,0.015625 85.625,0.109375 84.96094,0.632812 84.68359,1.371094 l -10.6914,28.9375 c -0.02344,0.05859 -0.03125,0.125 -0.05078,0.1875 -0.01953,0.07031 -0.04297,0.140625 -0.05078,0.214844 L 67.44531,72.05859 c -0.04297,0.28907 -0.02734,0.58594 0.04688,0.86719 l 15.18359,56.41407 c 0.10547,0.39843 0.32813,0.7539 0.63672,1.02734 l 19.89063,17.53906 4.26171,34.19532 -32.51562,75.58593 -6.9375,7.1836 c -0.46094,0.47657 -0.66797,1.14063 -0.5625,1.79297 0.10547,0.65233 0.51562,1.21873 1.10156,1.52343 l 4.55078,2.375 4.25391,24.05079 c 0.0039,0.0117 0.0078,0.0234 0.0078,0.0352 0.01172,0.12109 0.03516,0.23828 0.06641,0.35545 0.0039,0.0235 0.0078,0.0508 0.01562,0.0742 0.04297,0.14062 0.09766,0.27343 0.17188,0.40234 0.01562,0.0312 0.03906,0.0547 0.05469,0.082 0.05859,0.0977 0.121092,0.1875 0.195312,0.27345 0.03906,0.0429 0.07812,0.0781 0.12109,0.11719 0.05078,0.0508 0.09375,0.10546 0.152348,0.14843 l 9.628902,10.91797 2.49219,37.50781 -26.671875,134.85545 -46.945313,36.8164 c -0.04297,0.0352 -0.07813,0.0782 -0.117188,0.1133 -0.05859,0.0547 -0.117187,0.10549 -0.167969,0.16409 -0.05469,0.0625 -0.101562,0.13281 -0.148437,0.20311 -0.02734,0.043 -0.05859,0.0742 -0.08594,0.1172 l -0.01953,0.0391 h -0.0039 L 0.277344,544.0703 c -0.113282,0.1914 -0.17968779,0.39848 -0.22656279,0.6016 -0.0078124,0.0312 -0.015625,0.0625 -0.01953121,0.0937 -0.0429688,0.2227 -0.0390625,0.44927 -0.0078125,0.668 0.0078125,0.0352 0.01171871,0.0703 0.015625,0.10549 0.04687502,0.22261 0.1289065,0.4414 0.24609349,0.64451 0.0117191,0.0117 0.0117191,0.0313 0.019532,0.0469 L 101.94141,710.33987 c 0,0 0.004,0.004 0.004,0.004 0,0.004 0,0.004 0,0.008 0.0312,0.043 0.0703,0.0781 0.0977,0.11719 0.0469,0.0625 0.0977,0.12109 0.14844,0.17968 0.0469,0.0468 0.0859,0.10154 0.13672,0.14844 0.0117,0.008 0.0156,0.0156 0.0234,0.0234 l 85.08204,92.39066 c 0.38672,0.33203 0.875,0.50782 1.375,0.50782 0.21484,0 0.42968,-0.0352 0.63672,-0.10158 0.69921,-0.21874 1.22656,-0.7891 1.40234,-1.5 l 8.74609,-65.32421 12.9375,65.32421 c 0.17188,0.7109 0.70703,1.28126 1.40235,1.5 0.21093,0.0664 0.42578,0.10158 0.63672,0.10158 0.5,0 0.98828,-0.17579 1.375,-0.50782 l 80.89453,-92.39066 c 0.008,-0.008 0.0117,-0.0156 0.0195,-0.0234 0.0508,-0.043 0.0898,-0.0977 0.13671,-0.14844 0.0547,-0.0547 0.10157,-0.11718 0.14844,-0.17968 0.0312,-0.043 0.0703,-0.0742 0.0977,-0.11719 0,-0.004 0,-0.004 0.004,-0.008 0,0 0,-0.004 0,-0.004 L 398.8828,546.23049 c 0.0117,-0.0156 0.0117,-0.0352 0.0196,-0.0508 0.11719,-0.20311 0.19922,-0.4141 0.2461,-0.64061 0.008,-0.0352 0.0117,-0.0703 0.0156,-0.10549 0.0312,-0.21873 0.0352,-0.4453 -0.004,-0.668 -0.008,-0.0312 -0.0156,-0.0625 -0.0234,-0.0937"
           fill="#fe9a38"
           id="path45" />
      </g>
    </g>
  </g>
</svg>
