<?xml version="1.0" encoding="UTF-8" standalone="no"?>
<svg
   xmlns:dc="http://purl.org/dc/elements/1.1/"
   xmlns:cc="http://creativecommons.org/ns#"
   xmlns:rdf="http://www.w3.org/1999/02/22-rdf-syntax-ns#"
   xmlns:svg="http://www.w3.org/2000/svg"
   xmlns="http://www.w3.org/2000/svg"
   xmlns:sodipodi="http://sodipodi.sourceforge.net/DTD/sodipodi-0.dtd"
   xmlns:inkscape="http://www.inkscape.org/namespaces/inkscape"
   sodipodi:docname="isometric-cubes.svg"
   inkscape:version="1.0 (4035a4fb49, 2020-05-01)"
   id="svg8"
   version="1.1"
   viewBox="0 0 133.08542 153.55108"
   height="580.35052"
   width="503.00003">
  <defs
     id="defs2" />
  <sodipodi:namedview
     inkscape:window-maximized="1"
     inkscape:window-y="-8"
     inkscape:window-x="1358"
     inkscape:window-height="1017"
     inkscape:window-width="1920"
     width="500px"
     units="px"
     inkscape:pagecheckerboard="true"
     showgrid="false"
     inkscape:document-rotation="0"
     inkscape:current-layer="layer1"
     inkscape:document-units="mm"
     inkscape:cy="289.70031"
     inkscape:cx="205.56385"
     inkscape:zoom="1.4"
     inkscape:pageshadow="2"
     inkscape:pageopacity="0.0"
     borderopacity="1.0"
     bordercolor="#666666"
     pagecolor="#ffffff"
     id="base" />
  <metadata
     id="metadata5">
    <rdf:RDF>
      <cc:Work
         rdf:about="">
        <dc:format>image/svg+xml</dc:format>
        <dc:type
           rdf:resource="http://purl.org/dc/dcmitype/StillImage" />
        <dc:title></dc:title>
      </cc:Work>
    </rdf:RDF>
  </metadata>
  <g
     transform="translate(-105.43613,-147.77013)"
     id="layer1"
     inkscape:groupmode="layer"
     inkscape:label="Layer 1">
    <g
       style="fill:#000000;fill-opacity:1;stroke:#000000;stroke-opacity:1"
       inkscape:label="Grid_Polar:X5:Y5"
       transform="translate(105.833,148.167)"
       id="g4122">
      <g
         style="fill:#000000;fill-opacity:1;stroke:#000000;stroke-opacity:1"
         inkscape:label="MajorXGridlines"
         id="g4054">
        <path
           d="m 13.2292,0 c 0,50.919 0,101.838 0,152.757"
           inkscape:label="MajorXDiv1"
           style="fill:#000000;stroke:#000000;stroke-width:0.529167;fill-opacity:1;stroke-opacity:1"
           id="path4036" />
        <path
           d="m 26.4583,0 c 0,50.919 0,101.838 0,152.757"
           inkscape:label="MajorXDiv2"
           style="fill:#000000;stroke:#000000;stroke-width:0.529167;fill-opacity:1;stroke-opacity:1"
           id="path4038" />
        <path
           d="m 39.6875,0 c 0,50.919 0,101.838 0,152.757"
           inkscape:label="MajorXDiv3"
           style="fill:#000000;stroke:#000000;stroke-width:0.529167;fill-opacity:1;stroke-opacity:1"
           id="path4040" />
        <path
           d="m 52.9167,0 c 0,50.919 0,101.838 0,152.757"
           inkscape:label="MajorXDiv4"
           style="fill:#000000;stroke:#000000;stroke-width:0.529167;fill-opacity:1;stroke-opacity:1"
           id="path4042" />
        <path
           d="m 66.1458,0 c 0,50.919 0,101.838 0,152.757"
           inkscape:label="MajorXDiv5"
           style="fill:#000000;stroke:#000000;stroke-width:0.529167;fill-opacity:1;stroke-opacity:1"
           id="path4044" />
        <path
           d="m 79.375,0 c 0,50.919 0,101.838 0,152.757"
           inkscape:label="MajorXDiv6"
           style="fill:#000000;stroke:#000000;stroke-width:0.529167;fill-opacity:1;stroke-opacity:1"
           id="path4046" />
        <path
           d="m 92.6042,0 c 0,50.919 0,101.838 0,152.757"
           inkscape:label="MajorXDiv7"
           style="fill:#000000;stroke:#000000;stroke-width:0.529167;fill-opacity:1;stroke-opacity:1"
           id="path4048" />
        <path
           d="m 105.833,0 c 0,50.919 0,101.838 0,152.757"
           inkscape:label="MajorXDiv8"
           style="fill:#000000;stroke:#000000;stroke-width:0.529167;fill-opacity:1;stroke-opacity:1"
           id="path4050" />
        <path
           d="m 119.062,0 c 0,50.919 0,101.838 0,152.757"
           inkscape:label="MajorXDiv9"
           style="fill:#000000;stroke:#000000;stroke-width:0.529167;fill-opacity:1;stroke-opacity:1"
           id="path4052" />
      </g>
      <g
         style="fill:#000000;fill-opacity:1;stroke:#000000;stroke-opacity:1"
         inkscape:label="MajorYGridlines"
         id="g4086">
        <path
           d="M 13.2292,152.757 C 8.8194667,150.211 4.4097333,147.665 0,145.119"
           inkscape:label="MajorYDiv9"
           style="fill:#000000;stroke:#000000;stroke-width:0.529167;fill-opacity:1;stroke-opacity:1"
           id="path4056" />
        <path
           d="M 39.6875,152.757 C 26.458333,145.11933 13.229167,137.48167 0,129.844"
           inkscape:label="MajorYDiv9"
           style="fill:#000000;stroke:#000000;stroke-width:0.529167;fill-opacity:1;stroke-opacity:1"
           id="path4058" />
        <path
           d="M 66.1458,152.757 C 44.0972,140.02733 22.0486,127.29767 0,114.568"
           inkscape:label="MajorYDiv9"
           style="fill:#000000;stroke:#000000;stroke-width:0.529167;fill-opacity:1;stroke-opacity:1"
           id="path4060" />
        <path
           d="M 92.6042,152.757 C 61.736133,134.93543 30.868067,117.11387 0,99.2923"
           inkscape:label="MajorYDiv9"
           style="fill:#000000;stroke:#000000;stroke-width:0.529167;fill-opacity:1;stroke-opacity:1"
           id="path4062" />
        <path
           d="M 119.062,152.757 C 79.374667,129.8435 39.687333,106.93 0,84.0165"
           inkscape:label="MajorYDiv9"
           style="fill:#000000;stroke:#000000;stroke-width:0.529167;fill-opacity:1;stroke-opacity:1"
           id="path4064" />
        <path
           d="M 132.292,145.119 C 88.194667,119.6596 44.097333,94.2002 0,68.7408"
           inkscape:label="MajorYDiv9"
           style="fill:#000000;stroke:#000000;stroke-width:0.529167;fill-opacity:1;stroke-opacity:1"
           id="path4066" />
        <path
           d="M 132.292,129.844 C 88.194667,104.38437 44.097333,78.924733 0,53.4651"
           inkscape:label="MajorYDiv9"
           style="fill:#000000;stroke:#000000;stroke-width:0.529167;fill-opacity:1;stroke-opacity:1"
           id="path4068" />
        <path
           d="M 132.292,114.568 C 88.194667,89.108433 44.097333,63.648867 0,38.1893"
           inkscape:label="MajorYDiv9"
           style="fill:#000000;stroke:#000000;stroke-width:0.529167;fill-opacity:1;stroke-opacity:1"
           id="path4070" />
        <path
           d="M 132.292,99.2923 C 88.194667,73.832733 44.097333,48.373167 0,22.9136"
           inkscape:label="MajorYDiv9"
           style="fill:#000000;stroke:#000000;stroke-width:0.529167;fill-opacity:1;stroke-opacity:1"
           id="path4072" />
        <path
           d="M 132.292,84.0165 C 88.194667,58.556957 44.097333,33.097413 0,7.63787"
           inkscape:label="MajorYDiv9"
           style="fill:#000000;stroke:#000000;stroke-width:0.529167;fill-opacity:1;stroke-opacity:1"
           id="path4074" />
        <path
           d="M 132.292,68.7408 C 92.6044,45.8272 52.9168,22.9136 13.2292,0"
           inkscape:label="MajorYDiv9"
           style="fill:#000000;stroke:#000000;stroke-width:0.529167;fill-opacity:1;stroke-opacity:1"
           id="path4076" />
        <path
           d="M 132.292,53.4651 C 101.42383,35.6434 70.555667,17.8217 39.6875,0"
           inkscape:label="MajorYDiv9"
           style="fill:#000000;stroke:#000000;stroke-width:0.529167;fill-opacity:1;stroke-opacity:1"
           id="path4078" />
        <path
           d="M 132.292,38.1893 C 110.24327,25.459533 88.194533,12.729767 66.1458,0"
           inkscape:label="MajorYDiv9"
           style="fill:#000000;stroke:#000000;stroke-width:0.529167;fill-opacity:1;stroke-opacity:1"
           id="path4080" />
        <path
           d="M 132.292,22.9136 C 119.06273,15.275733 105.83347,7.6378667 92.6042,0"
           inkscape:label="MajorYDiv9"
           style="fill:#000000;stroke:#000000;stroke-width:0.529167;fill-opacity:1;stroke-opacity:1"
           id="path4082" />
        <path
           d="M 132.292,7.63787 C 127.882,5.0919133 123.472,2.5459567 119.062,0"
           inkscape:label="MajorYDiv9"
           style="fill:#000000;stroke:#000000;stroke-width:0.529167;fill-opacity:1;stroke-opacity:1"
           id="path4084" />
      </g>
      <g
         style="fill:#000000;fill-opacity:1;stroke:#000000;stroke-opacity:1"
         inkscape:label="MajorZGridlines"
         id="g4118">
        <path
           d="m 119.062,152.757 c 4.41,-2.546 8.82,-5.092 13.23,-7.638"
           inkscape:label="MajorZDiv1"
           style="fill:#000000;stroke:#000000;stroke-width:0.529167;fill-opacity:1;stroke-opacity:1"
           id="path4088" />
        <path
           d="m 92.6042,152.757 c 13.22927,-7.63767 26.45853,-15.27533 39.6878,-22.913"
           inkscape:label="MajorZDiv2"
           style="fill:#000000;stroke:#000000;stroke-width:0.529167;fill-opacity:1;stroke-opacity:1"
           id="path4090" />
        <path
           d="m 66.1458,152.757 c 22.048733,-12.72967 44.09747,-25.45933 66.1462,-38.189"
           inkscape:label="MajorZDiv3"
           style="fill:#000000;stroke:#000000;stroke-width:0.529167;fill-opacity:1;stroke-opacity:1"
           id="path4092" />
        <path
           d="M 39.6875,152.757 C 70.555667,134.93543 101.42383,117.11387 132.292,99.2923"
           inkscape:label="MajorZDiv4"
           style="fill:#000000;stroke:#000000;stroke-width:0.529167;fill-opacity:1;stroke-opacity:1"
           id="path4094" />
        <path
           d="M 13.2292,152.757 C 52.9168,129.8435 92.6044,106.93 132.292,84.0165"
           inkscape:label="MajorZDiv5"
           style="fill:#000000;stroke:#000000;stroke-width:0.529167;fill-opacity:1;stroke-opacity:1"
           id="path4096" />
        <path
           d="M 0,145.119 C 44.097333,119.6596 88.194667,94.2002 132.292,68.7408"
           inkscape:label="MajorZDiv6"
           style="fill:#000000;stroke:#000000;stroke-width:0.529167;fill-opacity:1;stroke-opacity:1"
           id="path4098" />
        <path
           d="M 0,129.844 C 44.097333,104.38437 88.194667,78.924733 132.292,53.4651"
           inkscape:label="MajorZDiv7"
           style="fill:#000000;stroke:#000000;stroke-width:0.529167;fill-opacity:1;stroke-opacity:1"
           id="path4100" />
        <path
           d="M 0,114.568 C 44.097333,89.108433 88.194667,63.648867 132.292,38.1893"
           inkscape:label="MajorZDiv8"
           style="fill:#000000;stroke:#000000;stroke-width:0.529167;fill-opacity:1;stroke-opacity:1"
           id="path4102" />
        <path
           d="M 0,99.2923 C 44.097333,73.832733 88.194667,48.373167 132.292,22.9136"
           inkscape:label="MajorZDiv9"
           style="fill:#000000;stroke:#000000;stroke-width:0.529167;fill-opacity:1;stroke-opacity:1"
           id="path4104" />
        <path
           d="M 0,84.0165 C 44.097333,58.556957 88.194667,33.097413 132.292,7.63787"
           inkscape:label="MajorZDiv10"
           style="fill:#000000;stroke:#000000;stroke-width:0.529167;fill-opacity:1;stroke-opacity:1"
           id="path4106" />
        <path
           d="M 0,68.7408 C 39.687333,45.8272 79.374667,22.9136 119.062,0"
           inkscape:label="MajorZDiv11"
           style="fill:#000000;stroke:#000000;stroke-width:0.529167;fill-opacity:1;stroke-opacity:1"
           id="path4108" />
        <path
           d="M 0,53.4651 C 30.868067,35.6434 61.736133,17.8217 92.6042,0"
           inkscape:label="MajorZDiv12"
           style="fill:#000000;stroke:#000000;stroke-width:0.529167;fill-opacity:1;stroke-opacity:1"
           id="path4110" />
        <path
           d="M 0,38.1893 C 22.0486,25.459533 44.0972,12.729767 66.1458,0"
           inkscape:label="MajorZDiv13"
           style="fill:#000000;stroke:#000000;stroke-width:0.529167;fill-opacity:1;stroke-opacity:1"
           id="path4112" />
        <path
           d="M 0,22.9136 C 13.229167,15.275733 26.458333,7.6378667 39.6875,0"
           inkscape:label="MajorZDiv14"
           style="fill:#000000;stroke:#000000;stroke-width:0.529167;fill-opacity:1;stroke-opacity:1"
           id="path4114" />
        <path
           d="M 0,7.63787 C 4.4097333,5.0919133 8.8194667,2.5459567 13.2292,0"
           inkscape:label="MajorZDiv15"
           style="fill:#000000;stroke:#000000;stroke-width:0.529167;fill-opacity:1;stroke-opacity:1"
           id="path4116" />
      </g>
    </g>
  </g>
</svg>
