<svg xmlns="http://www.w3.org/2000/svg" xmlns:svg="http://www.w3.org/2000/svg" id="svg8" width="1866.668" height="1306.669" version="1.1" viewBox="0 0 493.889 345.723"><metadata id="metadata5"/><g id="layer1" transform="translate(329.34338,169.08159)"><g id="g18" transform="matrix(0.35277777,0,0,-0.35277777,-329.34334,176.64098)"><path style="fill:#fff;fill-opacity:1;fill-rule:nonzero;stroke:none" id="path20" d="M 0,490 H 350 V 980.001 H 0 Z"/><path style="fill:#238cc5;fill-opacity:1;fill-rule:nonzero;stroke:none" id="path22" d="M 0,490 H 350 V 661.622 H 0 Z"/><g id="g24" transform="translate(0,524.367)"><path style="fill:#238cc5;fill-opacity:1;fill-rule:nonzero;stroke:none" id="path26" d="M 0,0 V -34.367 L 43.75,9.373 87.5,-34.367 V 0 L 43.75,43.741 Z"/></g><g id="g28" transform="translate(0,558.6912)"><path style="fill:#238cc5;fill-opacity:1;fill-rule:nonzero;stroke:none" id="path30" d="M 0,0 V -34.366 L 43.75,9.374 87.5,-34.366 V 0 L 43.75,43.741 Z"/></g><g id="g32" transform="translate(0,593.0154)"><path style="fill:#51b3da;fill-opacity:1;fill-rule:nonzero;stroke:none" id="path34" d="M 0,0 V -34.367 L 43.75,9.374 87.5,-34.367 V 0 L 43.75,43.741 Z"/></g><g id="g36" transform="translate(0,627.3405)"><path style="fill:#51b3da;fill-opacity:1;fill-rule:nonzero;stroke:none" id="path38" d="M 0,0 V -34.367 L 43.75,9.373 87.5,-34.367 V 0 L 43.75,43.74 Z"/></g><g id="g40" transform="translate(0,661.6647)"><path style="fill:#80d0e1;fill-opacity:1;fill-rule:nonzero;stroke:none" id="path42" d="M 0,0 V -34.367 L 43.75,9.374 87.5,-34.367 V 0 L 43.75,43.741 Z"/></g><g id="g44" transform="translate(0,695.9889)"><path style="fill:#80d0e1;fill-opacity:1;fill-rule:nonzero;stroke:none" id="path46" d="M 0,0 V -34.367 L 43.75,9.373 87.5,-34.367 V 0 L 43.75,43.741 Z"/></g><g id="g48" transform="translate(0,730.3131)"><path style="fill:#e8f2fb;fill-opacity:1;fill-rule:nonzero;stroke:none" id="path50" d="M 0,0 V -34.367 L 43.75,9.373 87.5,-34.367 V 0 L 43.75,43.741 Z"/></g><g id="g52" transform="translate(0,764.6373)"><path style="fill:#e8f2fb;fill-opacity:1;fill-rule:nonzero;stroke:none" id="path54" d="M 0,0 V -34.366 L 43.75,9.374 87.5,-34.366 V 0 L 43.75,43.741 Z"/></g><g id="g56" transform="translate(0,798.9615)"><path style="fill:#e8f2fb;fill-opacity:1;fill-rule:nonzero;stroke:none" id="path58" d="M 0,0 V -34.367 L 43.75,9.374 87.5,-34.367 V 0 L 43.75,43.741 Z"/></g><g id="g60" transform="translate(0,833.2866)"><path style="fill:#e8f2fb;fill-opacity:1;fill-rule:nonzero;stroke:none" id="path62" d="M 0,0 V -34.367 L 43.75,9.374 87.5,-34.367 V 0 L 43.75,43.74 Z"/></g><g id="g64" transform="translate(0,867.6108)"><path style="fill:#e8f2fb;fill-opacity:1;fill-rule:nonzero;stroke:none" id="path66" d="M 0,0 V -34.367 L 43.75,9.374 87.5,-34.367 V 0 L 43.75,43.741 Z"/></g><g id="g68" transform="translate(0,901.935)"><path style="fill:#fff;fill-opacity:1;fill-rule:nonzero;stroke:none" id="path70" d="M 0,0 V -34.367 L 43.75,9.373 87.5,-34.367 V 0 L 43.75,43.741 Z"/></g><g id="g72" transform="translate(43.7499,980.0001)"><path style="fill:#fff;fill-opacity:1;fill-rule:nonzero;stroke:none" id="path74" d="M 0,0 -43.75,-43.741 V -78.108 L 0,-34.367 43.75,-78.108 v 34.367 z"/></g><g id="g76" transform="translate(131.25,568.1078)"><path style="fill:#238cc5;fill-opacity:1;fill-rule:nonzero;stroke:none" id="path78" d="M 0,0 -43.75,-43.741 V -78.108 L 0,-34.367 43.75,-78.108 v 34.367 z"/></g><g id="g80" transform="translate(131.25,602.4322)"><path style="fill:#51b3da;fill-opacity:1;fill-rule:nonzero;stroke:none" id="path82" d="M 0,0 -43.75,-43.741 V -78.108 L 0,-34.367 43.75,-78.108 v 34.367 z"/></g><g id="g84" transform="translate(131.25,636.7565)"><path style="fill:#51b3da;fill-opacity:1;fill-rule:nonzero;stroke:none" id="path86" d="M 0,0 -43.75,-43.741 V -78.108 L 0,-34.367 43.75,-78.108 v 34.367 z"/></g><g id="g88" transform="translate(131.25,671.0809)"><path style="fill:#80d0e1;fill-opacity:1;fill-rule:nonzero;stroke:none" id="path90" d="M 0,0 -43.75,-43.741 V -78.108 L 0,-34.367 43.75,-78.108 v 34.367 z"/></g><g id="g92" transform="translate(131.25,705.4052)"><path style="fill:#80d0e1;fill-opacity:1;fill-rule:nonzero;stroke:none" id="path94" d="M 0,0 -43.75,-43.741 V -78.108 L 0,-34.367 43.75,-78.108 v 34.367 z"/></g><g id="g96" transform="translate(131.25,739.7296)"><path style="fill:#e8f2fb;fill-opacity:1;fill-rule:nonzero;stroke:none" id="path98" d="M 0,0 -43.75,-43.741 V -78.108 L 0,-34.367 43.75,-78.108 v 34.367 z"/></g><g id="g100" transform="translate(131.25,774.0539)"><path style="fill:#e8f2fb;fill-opacity:1;fill-rule:nonzero;stroke:none" id="path102" d="M 0,0 -43.75,-43.741 V -78.108 L 0,-34.367 43.75,-78.108 v 34.367 z"/></g><g id="g104" transform="translate(131.25,808.3782)"><path style="fill:#fff;fill-opacity:1;fill-rule:nonzero;stroke:none" id="path106" d="M 0,0 -43.75,-43.741 V -78.108 L 0,-34.367 43.75,-78.108 v 34.367 z"/></g><g id="g108" transform="translate(131.25,842.7026)"><path style="fill:#fff;fill-opacity:1;fill-rule:nonzero;stroke:none" id="path110" d="M 0,0 -43.75,-43.741 V -78.108 L 0,-34.367 43.75,-78.108 v 34.367 z"/></g><g id="g112" transform="translate(131.25,877.027)"><path style="fill:#fff;fill-opacity:1;fill-rule:nonzero;stroke:none" id="path114" d="M 0,0 -43.75,-43.741 V -78.108 L 0,-34.367 43.75,-78.108 v 34.367 z"/></g><g id="g116" transform="translate(131.25,911.3513)"><path style="fill:#fff;fill-opacity:1;fill-rule:nonzero;stroke:none" id="path118" d="M 0,0 -43.75,-43.741 V -78.108 L 0,-34.367 43.75,-78.108 v 34.367 z"/></g><g id="g120" transform="translate(131.25,945.6757)"><path style="fill:#fff;fill-opacity:1;fill-rule:nonzero;stroke:none" id="path122" d="M 0,0 -43.75,-43.741 V -78.108 L 0,-34.367 43.75,-78.108 v 34.367 z"/></g><g id="g124" transform="translate(131.2497,980.0001)"><path style="fill:#fff;fill-opacity:1;fill-rule:nonzero;stroke:none" id="path126" d="M 0,0 -43.75,-43.741 V -78.108 L 0,-34.367 43.75,-78.108 v 34.367 z"/></g><g id="g128" transform="translate(218.75,568.1078)"><path style="fill:#238cc5;fill-opacity:1;fill-rule:nonzero;stroke:none" id="path130" d="M 0,0 -43.75,-43.741 V -78.108 L 0,-34.367 43.75,-78.108 v 34.367 z"/></g><g id="g132" transform="translate(218.75,602.4322)"><path style="fill:#238cc5;fill-opacity:1;fill-rule:nonzero;stroke:none" id="path134" d="M 0,0 -43.75,-43.741 V -78.108 L 0,-34.367 43.75,-78.108 v 34.367 z"/></g><g id="g136" transform="translate(218.75,636.7565)"><path style="fill:#238cc5;fill-opacity:1;fill-rule:nonzero;stroke:none" id="path138" d="M 0,0 -43.75,-43.741 V -78.108 L 0,-34.367 43.75,-78.108 v 34.367 z"/></g><g id="g140" transform="translate(218.75,671.0809)"><path style="fill:#51b3da;fill-opacity:1;fill-rule:nonzero;stroke:none" id="path142" d="M 0,0 -43.75,-43.741 V -78.108 L 0,-34.367 43.75,-78.108 v 34.367 z"/></g><g id="g144" transform="translate(218.75,705.4052)"><path style="fill:#51b3da;fill-opacity:1;fill-rule:nonzero;stroke:none" id="path146" d="M 0,0 -43.75,-43.741 V -78.108 L 0,-34.367 43.75,-78.108 v 34.367 z"/></g><g id="g148" transform="translate(218.75,739.7296)"><path style="fill:#80d0e1;fill-opacity:1;fill-rule:nonzero;stroke:none" id="path150" d="M 0,0 -43.75,-43.741 V -78.108 L 0,-34.367 43.75,-78.108 v 34.367 z"/></g><g id="g152" transform="translate(218.75,774.0539)"><path style="fill:#80d0e1;fill-opacity:1;fill-rule:nonzero;stroke:none" id="path154" d="M 0,0 -43.75,-43.741 V -78.108 L 0,-34.367 43.75,-78.108 v 34.367 z"/></g><g id="g156" transform="translate(218.75,808.3782)"><path style="fill:#e8f2fb;fill-opacity:1;fill-rule:nonzero;stroke:none" id="path158" d="M 0,0 -43.75,-43.741 V -78.108 L 0,-34.367 43.75,-78.108 v 34.367 z"/></g><g id="g160" transform="translate(218.75,842.7026)"><path style="fill:#e8f2fb;fill-opacity:1;fill-rule:nonzero;stroke:none" id="path162" d="M 0,0 -43.75,-43.741 V -78.108 L 0,-34.367 43.75,-78.108 v 34.367 z"/></g><g id="g164" transform="translate(218.75,877.027)"><path style="fill:#fff;fill-opacity:1;fill-rule:nonzero;stroke:none" id="path166" d="M 0,0 -43.75,-43.741 V -78.108 L 0,-34.367 43.75,-78.108 v 34.367 z"/></g><g id="g168" transform="translate(218.75,911.3513)"><path style="fill:#fff;fill-opacity:1;fill-rule:nonzero;stroke:none" id="path170" d="M 0,0 -43.75,-43.741 V -78.108 L 0,-34.367 43.75,-78.108 v 34.367 z"/></g><g id="g172" transform="translate(218.75,945.6757)"><path style="fill:#fff;fill-opacity:1;fill-rule:nonzero;stroke:none" id="path174" d="M 0,0 -43.75,-43.741 V -78.108 L 0,-34.367 43.75,-78.108 v 34.367 z"/></g><g id="g176" transform="translate(218.7504,980.0001)"><path style="fill:#fff;fill-opacity:1;fill-rule:nonzero;stroke:none" id="path178" d="M 0,0 -43.751,-43.741 V -78.108 L 0,-34.367 43.75,-78.108 v 34.367 z"/></g><g id="g180" transform="translate(306.25,568.1078)"><path style="fill:#238cc5;fill-opacity:1;fill-rule:nonzero;stroke:none" id="path182" d="M 0,0 -43.75,-43.741 V -78.108 L 0,-34.367 43.75,-78.108 v 34.367 z"/></g><g id="g184" transform="translate(306.25,602.4322)"><path style="fill:#238cc5;fill-opacity:1;fill-rule:nonzero;stroke:none" id="path186" d="M 0,0 -43.75,-43.741 V -78.108 L 0,-34.367 43.75,-78.108 v 34.367 z"/></g><g id="g188" transform="translate(306.25,636.7565)"><path style="fill:#238cc5;fill-opacity:1;fill-rule:nonzero;stroke:none" id="path190" d="M 0,0 -43.75,-43.741 V -78.108 L 0,-34.367 43.75,-78.108 v 34.367 z"/></g><g id="g192" transform="translate(306.25,671.0809)"><path style="fill:#238cc5;fill-opacity:1;fill-rule:nonzero;stroke:none" id="path194" d="M 0,0 -43.75,-43.741 V -78.108 L 0,-34.367 43.75,-78.108 v 34.367 z"/></g><g id="g196" transform="translate(306.25,705.4052)"><path style="fill:#51b3da;fill-opacity:1;fill-rule:nonzero;stroke:none" id="path198" d="M 0,0 -43.75,-43.741 V -78.108 L 0,-34.367 43.75,-78.108 v 34.367 z"/></g><g id="g200" transform="translate(306.25,739.7296)"><path style="fill:#51b3da;fill-opacity:1;fill-rule:nonzero;stroke:none" id="path202" d="M 0,0 -43.75,-43.741 V -78.108 L 0,-34.367 43.75,-78.108 v 34.367 z"/></g><g id="g204" transform="translate(306.25,774.0539)"><path style="fill:#80d0e1;fill-opacity:1;fill-rule:nonzero;stroke:none" id="path206" d="M 0,0 -43.75,-43.741 V -78.108 L 0,-34.367 43.75,-78.108 v 34.367 z"/></g><g id="g208" transform="translate(306.25,808.3782)"><path style="fill:#80d0e1;fill-opacity:1;fill-rule:nonzero;stroke:none" id="path210" d="M 0,0 -43.75,-43.741 V -78.108 L 0,-34.367 43.75,-78.108 v 34.367 z"/></g><g id="g212" transform="translate(306.25,842.7026)"><path style="fill:#e8f2fb;fill-opacity:1;fill-rule:nonzero;stroke:none" id="path214" d="M 0,0 -43.75,-43.741 V -78.108 L 0,-34.367 43.75,-78.108 v 34.367 z"/></g><g id="g216" transform="translate(306.25,877.027)"><path style="fill:#e8f2fb;fill-opacity:1;fill-rule:nonzero;stroke:none" id="path218" d="M 0,0 -43.75,-43.741 V -78.108 L 0,-34.367 43.75,-78.108 v 34.367 z"/></g><g id="g220" transform="translate(306.25,911.3513)"><path style="fill:#fff;fill-opacity:1;fill-rule:nonzero;stroke:none" id="path222" d="M 0,0 -43.75,-43.741 V -78.108 L 0,-34.367 43.75,-78.108 v 34.367 z"/></g><g id="g224" transform="translate(306.25,945.6757)"><path style="fill:#fff;fill-opacity:1;fill-rule:nonzero;stroke:none" id="path226" d="M 0,0 -43.75,-43.741 V -78.108 L 0,-34.367 43.75,-78.108 v 34.367 z"/></g><g id="g228" transform="translate(306.2502,980.0001)"><path style="fill:#fff;fill-opacity:1;fill-rule:nonzero;stroke:none" id="path230" d="M 0,0 -43.75,-43.741 V -78.108 L 0,-34.367 43.75,-78.108 v 34.367 z"/></g><g id="g232" transform="translate(0,489.9996)"><path style="fill:#fff;fill-opacity:1;fill-rule:nonzero;stroke:none" id="path234" d="M 0,0 V -490 L 350,0 Z"/></g><path style="fill:#3a549d;fill-opacity:1;fill-rule:nonzero;stroke:none" id="path236" d="M 0,0 H 350 V 490 H 0 Z"/><path style="fill:#238cc5;fill-opacity:1;fill-rule:nonzero;stroke:none" id="path238" d="M 0,240.27 H 350 V 489.999 H 0 Z"/><g id="g240" transform="translate(0,34.3674)"><path style="fill:#3a549d;fill-opacity:1;fill-rule:nonzero;stroke:none" id="path242" d="M 0,0 V -34.367 L 43.75,9.374 87.5,-34.367 V 0 L 43.75,43.74 Z"/></g><g id="g244" transform="translate(0,68.6916)"><path style="fill:#416db4;fill-opacity:1;fill-rule:nonzero;stroke:none" id="path246" d="M 0,0 V -34.367 L 43.75,9.374 87.5,-34.367 V 0 L 43.75,43.741 Z"/></g><g id="g248" transform="translate(0,103.0158)"><path style="fill:#416db4;fill-opacity:1;fill-rule:nonzero;stroke:none" id="path250" d="M 0,0 V -34.367 L 43.75,9.373 87.5,-34.367 V 0 L 43.75,43.741 Z"/></g><g id="g252" transform="translate(0,137.34)"><path style="fill:#416db4;fill-opacity:1;fill-rule:nonzero;stroke:none" id="path254" d="M 0,0 V -34.367 L 43.75,9.374 87.5,-34.367 V 0 L 43.75,43.741 Z"/></g><g id="g256" transform="translate(0,171.6642)"><path style="fill:#416db4;fill-opacity:1;fill-rule:nonzero;stroke:none" id="path258" d="M 0,0 V -34.367 L 43.75,9.373 87.5,-34.367 V 0 L 43.75,43.741 Z"/></g><g id="g260" transform="translate(0,205.9884)"><path style="fill:#4b77bb;fill-opacity:1;fill-rule:nonzero;stroke:none" id="path262" d="M 0,0 V -34.367 L 43.75,9.374 87.5,-34.367 V 0 L 43.75,43.741 Z"/></g><g id="g264" transform="translate(0,240.3135)"><path style="fill:#4b77bb;fill-opacity:1;fill-rule:nonzero;stroke:none" id="path266" d="M 0,0 V -34.367 L 43.75,9.374 87.5,-34.367 V 0 L 43.75,43.74 Z"/></g><g id="g268" transform="translate(0,274.6377)"><path style="fill:#4b77bb;fill-opacity:1;fill-rule:nonzero;stroke:none" id="path270" d="M 0,0 V -34.367 L 43.75,9.374 87.5,-34.367 V 0 L 43.75,43.741 Z"/></g><g id="g272" transform="translate(0,308.9619)"><path style="fill:#4b77bb;fill-opacity:1;fill-rule:nonzero;stroke:none" id="path274" d="M 0,0 V -34.367 L 43.75,9.374 87.5,-34.367 V 0 L 43.75,43.741 Z"/></g><g id="g276" transform="translate(0,343.2861)"><path style="fill:#4b77bb;fill-opacity:1;fill-rule:nonzero;stroke:none" id="path278" d="M 0,0 V -34.367 L 43.75,9.374 87.5,-34.367 V 0 L 43.75,43.741 Z"/></g><g id="g280" transform="translate(0,377.6103)"><path style="fill:#4881c2;fill-opacity:1;fill-rule:nonzero;stroke:none" id="path282" d="M 0,0 V -34.366 L 43.75,9.374 87.5,-34.366 V 0 L 43.75,43.741 Z"/></g><g id="g284" transform="translate(0,411.9345)"><path style="fill:#4881c2;fill-opacity:1;fill-rule:nonzero;stroke:none" id="path286" d="M 0,0 V -34.367 L 43.75,9.374 87.5,-34.367 V 0 L 43.75,43.741 Z"/></g><g id="g288" transform="translate(0,446.2596)"><path style="fill:#4881c2;fill-opacity:1;fill-rule:nonzero;stroke:none" id="path290" d="M 0,0 V -34.367 L 43.75,9.374 87.5,-34.367 V 0 L 43.75,43.74 Z"/></g><g id="g292" transform="translate(87.4998,34.3674)"><path style="fill:#3a549d;fill-opacity:1;fill-rule:nonzero;stroke:none" id="path294" d="M 0,0 V -34.367 L 43.75,9.374 87.5,-34.367 V 0 L 43.75,43.74 Z"/></g><g id="g296" transform="translate(131.25,112.4322)"><path style="fill:#3a549d;fill-opacity:1;fill-rule:nonzero;stroke:none" id="path298" d="M 0,0 -43.75,-43.741 V -78.108 L 0,-34.367 43.75,-78.108 v 34.367 z"/></g><g id="g300" transform="translate(131.25,146.7565)"><path style="fill:#416db4;fill-opacity:1;fill-rule:nonzero;stroke:none" id="path302" d="M 0,0 -43.75,-43.741 V -78.108 L 0,-34.367 43.75,-78.108 v 34.367 z"/></g><g id="g304" transform="translate(131.25,181.0809)"><path style="fill:#416db4;fill-opacity:1;fill-rule:nonzero;stroke:none" id="path306" d="M 0,0 -43.75,-43.741 V -78.108 L 0,-34.367 43.75,-78.108 v 34.367 z"/></g><g id="g308" transform="translate(131.25,215.4052)"><path style="fill:#416db4;fill-opacity:1;fill-rule:nonzero;stroke:none" id="path310" d="M 0,0 -43.75,-43.741 V -78.108 L 0,-34.367 43.75,-78.108 v 34.367 z"/></g><g id="g312" transform="translate(131.25,249.7296)"><path style="fill:#416db4;fill-opacity:1;fill-rule:nonzero;stroke:none" id="path314" d="M 0,0 -43.75,-43.741 V -78.108 L 0,-34.367 43.75,-78.108 v 34.367 z"/></g><g id="g316" transform="translate(131.25,284.0539)"><path style="fill:#416db4;fill-opacity:1;fill-rule:nonzero;stroke:none" id="path318" d="M 0,0 -43.75,-43.741 V -78.108 L 0,-34.367 43.75,-78.108 v 34.367 z"/></g><g id="g320" transform="translate(131.25,318.3783)"><path style="fill:#416db4;fill-opacity:1;fill-rule:nonzero;stroke:none" id="path322" d="M 0,0 -43.75,-43.741 V -78.108 L 0,-34.367 43.75,-78.108 v 34.367 z"/></g><g id="g324" transform="translate(131.25,352.7026)"><path style="fill:#416db4;fill-opacity:1;fill-rule:nonzero;stroke:none" id="path326" d="M 0,0 -43.75,-43.741 V -78.108 L 0,-34.367 43.75,-78.108 v 34.367 z"/></g><g id="g328" transform="translate(131.25,387.0269)"><path style="fill:#416db4;fill-opacity:1;fill-rule:nonzero;stroke:none" id="path330" d="M 0,0 -43.75,-43.741 V -78.108 L 0,-34.367 43.75,-78.108 v 34.367 z"/></g><g id="g332" transform="translate(131.25,421.3513)"><path style="fill:#4b77bb;fill-opacity:1;fill-rule:nonzero;stroke:none" id="path334" d="M 0,0 -43.75,-43.741 V -78.108 L 0,-34.367 43.75,-78.108 v 34.367 z"/></g><g id="g336" transform="translate(131.25,455.6757)"><path style="fill:#4b77bb;fill-opacity:1;fill-rule:nonzero;stroke:none" id="path338" d="M 0,0 -43.75,-43.741 V -78.108 L 0,-34.367 43.75,-78.108 v 34.367 z"/></g><g id="g340" transform="translate(131.25,490)"><path style="fill:#4881c2;fill-opacity:1;fill-rule:nonzero;stroke:none" id="path342" d="M 0,0 -43.75,-43.741 V -78.108 L 0,-34.367 43.75,-78.108 v 34.367 z"/></g><g id="g344" transform="translate(174.9996,34.3674)"><path style="fill:#3a549d;fill-opacity:1;fill-rule:nonzero;stroke:none" id="path346" d="M 0,0 V -34.367 L 43.751,9.374 87.501,-34.367 V 0 l -43.75,43.74 z"/></g><g id="g348" transform="translate(218.75,112.4322)"><path style="fill:#3a549d;fill-opacity:1;fill-rule:nonzero;stroke:none" id="path350" d="M 0,0 -43.75,-43.741 V -78.108 L 0,-34.367 43.75,-78.108 v 34.367 z"/></g><g id="g352" transform="translate(218.75,146.7565)"><path style="fill:#3a549d;fill-opacity:1;fill-rule:nonzero;stroke:none" id="path354" d="M 0,0 -43.75,-43.741 V -78.108 L 0,-34.367 43.75,-78.108 v 34.367 z"/></g><g id="g356" transform="translate(218.75,181.0809)"><path style="fill:#416db4;fill-opacity:1;fill-rule:nonzero;stroke:none" id="path358" d="M 0,0 -43.75,-43.741 V -78.108 L 0,-34.367 43.75,-78.108 v 34.367 z"/></g><g id="g360" transform="translate(218.75,215.4052)"><path style="fill:#416db4;fill-opacity:1;fill-rule:nonzero;stroke:none" id="path362" d="M 0,0 -43.75,-43.741 V -78.108 L 0,-34.367 43.75,-78.108 v 34.367 z"/></g><g id="g364" transform="translate(218.75,249.7296)"><path style="fill:#416db4;fill-opacity:1;fill-rule:nonzero;stroke:none" id="path366" d="M 0,0 -43.75,-43.741 V -78.108 L 0,-34.367 43.75,-78.108 v 34.367 z"/></g><g id="g368" transform="translate(218.75,284.0539)"><path style="fill:#416db4;fill-opacity:1;fill-rule:nonzero;stroke:none" id="path370" d="M 0,0 -43.75,-43.741 V -78.108 L 0,-34.367 43.75,-78.108 v 34.367 z"/></g><g id="g372" transform="translate(218.75,318.3783)"><path style="fill:#416db4;fill-opacity:1;fill-rule:nonzero;stroke:none" id="path374" d="M 0,0 -43.75,-43.741 V -78.108 L 0,-34.367 43.75,-78.108 v 34.367 z"/></g><g id="g376" transform="translate(218.75,352.7026)"><path style="fill:#4b77bb;fill-opacity:1;fill-rule:nonzero;stroke:none" id="path378" d="M 0,0 -43.75,-43.741 V -78.108 L 0,-34.367 43.75,-78.108 v 34.367 z"/></g><g id="g380" transform="translate(218.75,387.0269)"><path style="fill:#4b77bb;fill-opacity:1;fill-rule:nonzero;stroke:none" id="path382" d="M 0,0 -43.75,-43.741 V -78.108 L 0,-34.367 43.75,-78.108 v 34.367 z"/></g><g id="g384" transform="translate(218.75,421.3513)"><path style="fill:#4b77bb;fill-opacity:1;fill-rule:nonzero;stroke:none" id="path386" d="M 0,0 -43.75,-43.741 V -78.108 L 0,-34.367 43.75,-78.108 v 34.367 z"/></g><g id="g388" transform="translate(218.75,455.6757)"><path style="fill:#4881c2;fill-opacity:1;fill-rule:nonzero;stroke:none" id="path390" d="M 0,0 -43.75,-43.741 V -78.108 L 0,-34.367 43.75,-78.108 v 34.367 z"/></g><g id="g392" transform="translate(218.75,490)"><path style="fill:#238cc5;fill-opacity:1;fill-rule:nonzero;stroke:none" id="path394" d="M 0,0 -43.75,-43.741 V -78.108 L 0,-34.367 43.75,-78.108 v 34.367 z"/></g><g id="g396" transform="translate(262.5003,34.3674)"><path style="fill:#3a549d;fill-opacity:1;fill-rule:nonzero;stroke:none" id="path398" d="M 0,0 V -34.367 L 43.75,9.374 87.5,-34.367 V 0 L 43.75,43.74 Z"/></g><g id="g400" transform="translate(306.25,112.4322)"><path style="fill:#3a549d;fill-opacity:1;fill-rule:nonzero;stroke:none" id="path402" d="M 0,0 -43.75,-43.741 V -78.108 L 0,-34.367 43.75,-78.108 v 34.367 z"/></g><g id="g404" transform="translate(306.25,146.7565)"><path style="fill:#416db4;fill-opacity:1;fill-rule:nonzero;stroke:none" id="path406" d="M 0,0 -43.75,-43.741 V -78.108 L 0,-34.367 43.75,-78.108 v 34.367 z"/></g><g id="g408" transform="translate(306.25,181.0809)"><path style="fill:#416db4;fill-opacity:1;fill-rule:nonzero;stroke:none" id="path410" d="M 0,0 -43.75,-43.741 V -78.108 L 0,-34.367 43.75,-78.108 v 34.367 z"/></g><g id="g412" transform="translate(306.25,215.4052)"><path style="fill:#416db4;fill-opacity:1;fill-rule:nonzero;stroke:none" id="path414" d="M 0,0 -43.75,-43.741 V -78.108 L 0,-34.367 43.75,-78.108 v 34.367 z"/></g><g id="g416" transform="translate(306.25,249.7296)"><path style="fill:#416db4;fill-opacity:1;fill-rule:nonzero;stroke:none" id="path418" d="M 0,0 -43.75,-43.741 V -78.108 L 0,-34.367 43.75,-78.108 v 34.367 z"/></g><g id="g420" transform="translate(306.25,284.0539)"><path style="fill:#416db4;fill-opacity:1;fill-rule:nonzero;stroke:none" id="path422" d="M 0,0 -43.75,-43.741 V -78.108 L 0,-34.367 43.75,-78.108 v 34.367 z"/></g><g id="g424" transform="translate(306.25,318.3783)"><path style="fill:#416db4;fill-opacity:1;fill-rule:nonzero;stroke:none" id="path426" d="M 0,0 -43.75,-43.741 V -78.108 L 0,-34.367 43.75,-78.108 v 34.367 z"/></g><g id="g428" transform="translate(306.25,352.7026)"><path style="fill:#416db4;fill-opacity:1;fill-rule:nonzero;stroke:none" id="path430" d="M 0,0 -43.75,-43.741 V -78.108 L 0,-34.367 43.75,-78.108 v 34.367 z"/></g><g id="g432" transform="translate(306.25,387.0269)"><path style="fill:#4b77bb;fill-opacity:1;fill-rule:nonzero;stroke:none" id="path434" d="M 0,0 -43.75,-43.741 V -78.108 L 0,-34.367 43.75,-78.108 v 34.367 z"/></g><g id="g436" transform="translate(306.25,421.3513)"><path style="fill:#4b77bb;fill-opacity:1;fill-rule:nonzero;stroke:none" id="path438" d="M 0,0 -43.75,-43.741 V -78.108 L 0,-34.367 43.75,-78.108 v 34.367 z"/></g><g id="g440" transform="translate(306.25,455.6757)"><path style="fill:#4881c2;fill-opacity:1;fill-rule:nonzero;stroke:none" id="path442" d="M 0,0 -43.75,-43.741 V -78.108 L 0,-34.367 43.75,-78.108 v 34.367 z"/></g><g id="g444" transform="translate(306.25,490)"><path style="fill:#4881c2;fill-opacity:1;fill-rule:nonzero;stroke:none" id="path446" d="M 0,0 -43.75,-43.741 V -78.108 L 0,-34.367 43.75,-78.108 v 34.367 z"/></g><g id="g448" transform="translate(131.25,774.054)"><path style="fill:#fff;fill-opacity:1;fill-rule:nonzero;stroke:none" id="path450" d="m 0,0 v -318.378 0 l 9.292,-9.29 9.291,9.29 V 0 Z"/></g><g id="g452" transform="translate(218.75,842.7026)"><path style="fill:#fff;fill-opacity:1;fill-rule:nonzero;stroke:none" id="path454" d="m 0,0 v -258.593 0 l 9.292,-9.29 9.291,9.29 V 0 Z"/></g><g id="g456" transform="translate(68.9167,717.8378)"><path style="fill:#e8f2fb;fill-opacity:1;fill-rule:nonzero;stroke:none" id="path458" d="m 0,0 v -318.378 l 9.292,-9.29 9.291,9.29 v 0 V 0 Z"/></g><g id="g460" transform="translate(287.6667,808.3783)"><path style="fill:#e8f2fb;fill-opacity:1;fill-rule:nonzero;stroke:none" id="path462" d="m 0,0 v -318.378 l 9.292,-9.29 9.291,9.29 v 0 V 0 Z"/></g><g id="g464" transform="translate(296.9583,430.5563)"><path style="fill:#e8f2fb;fill-opacity:1;fill-rule:nonzero;stroke:none" id="path466" d="M 0,0 -9.292,-9.29 0,-18.579 9.292,-9.29 Z"/></g><g id="g468" transform="translate(131.2497,402.433)"><path style="fill:#e8f2fb;fill-opacity:1;fill-rule:nonzero;stroke:none" id="path470" d="M 0,0 -24.87,-24.865 0.001,-49.73 24.871,-24.865 Z"/></g><g id="g472" transform="translate(296.9583,461.8063)"><path style="fill:#e8f2fb;fill-opacity:1;fill-rule:nonzero;stroke:none" id="path474" d="M 0,0 -9.292,-9.29 0,-18.579 9.292,-9.29 Z"/></g><g id="g476" transform="translate(228.0415,527.6027)"><path style="fill:#fff;fill-opacity:1;fill-rule:nonzero;stroke:none" id="path478" d="M 0,0 -9.292,-9.29 0,-18.579 9.292,-9.29 Z"/></g><g id="g480" transform="translate(197.3748,504.936)"><path style="fill:#fff;fill-opacity:1;fill-rule:nonzero;stroke:none" id="path482" d="M 0,0 -15.958,-15.955 0,-31.91 15.959,-15.955 Z"/></g><path style="fill:#fff;fill-opacity:1;fill-rule:nonzero;stroke:none" id="path484" d="M 350,490 H 700 V 980.001 H 350 Z"/><path style="fill:#238cc5;fill-opacity:1;fill-rule:nonzero;stroke:none" id="path486" d="M 700,661.622 H 350 V 490 h 350 z"/><g id="g488" transform="translate(393.75,568.1078)"><path style="fill:#238cc5;fill-opacity:1;fill-rule:nonzero;stroke:none" id="path490" d="M 0,0 -43.75,-43.741 V -78.108 L 0,-34.367 43.75,-78.108 v 34.367 z"/></g><g id="g492" transform="translate(393.75,602.4322)"><path style="fill:#238cc5;fill-opacity:1;fill-rule:nonzero;stroke:none" id="path494" d="M 0,0 -43.75,-43.741 V -78.108 L 0,-34.367 43.75,-78.108 v 34.367 z"/></g><g id="g496" transform="translate(393.75,636.7565)"><path style="fill:#51b3da;fill-opacity:1;fill-rule:nonzero;stroke:none" id="path498" d="M 0,0 -43.75,-43.741 V -78.108 L 0,-34.367 43.75,-78.108 v 34.367 z"/></g><g id="g500" transform="translate(393.75,671.0809)"><path style="fill:#51b3da;fill-opacity:1;fill-rule:nonzero;stroke:none" id="path502" d="M 0,0 -43.75,-43.741 V -78.108 L 0,-34.367 43.75,-78.108 v 34.367 z"/></g><g id="g504" transform="translate(393.75,705.4052)"><path style="fill:#80d0e1;fill-opacity:1;fill-rule:nonzero;stroke:none" id="path506" d="M 0,0 -43.75,-43.741 V -78.108 L 0,-34.367 43.75,-78.108 v 34.367 z"/></g><g id="g508" transform="translate(393.75,739.7296)"><path style="fill:#80d0e1;fill-opacity:1;fill-rule:nonzero;stroke:none" id="path510" d="M 0,0 -43.75,-43.741 V -78.108 L 0,-34.367 43.75,-78.108 v 34.367 z"/></g><g id="g512" transform="translate(393.75,774.0539)"><path style="fill:#e8f2fb;fill-opacity:1;fill-rule:nonzero;stroke:none" id="path514" d="M 0,0 -43.75,-43.741 V -78.108 L 0,-34.367 43.75,-78.108 v 34.367 z"/></g><g id="g516" transform="translate(393.75,808.3782)"><path style="fill:#e8f2fb;fill-opacity:1;fill-rule:nonzero;stroke:none" id="path518" d="M 0,0 -43.75,-43.741 V -78.108 L 0,-34.367 43.75,-78.108 v 34.367 z"/></g><g id="g520" transform="translate(393.75,842.7026)"><path style="fill:#e8f2fb;fill-opacity:1;fill-rule:nonzero;stroke:none" id="path522" d="M 0,0 -43.75,-43.741 V -78.108 L 0,-34.367 43.75,-78.108 v 34.367 z"/></g><g id="g524" transform="translate(393.75,877.027)"><path style="fill:#e8f2fb;fill-opacity:1;fill-rule:nonzero;stroke:none" id="path526" d="M 0,0 -43.75,-43.741 V -78.108 L 0,-34.367 43.75,-78.108 v 34.367 z"/></g><g id="g528" transform="translate(393.75,911.3513)"><path style="fill:#e8f2fb;fill-opacity:1;fill-rule:nonzero;stroke:none" id="path530" d="M 0,0 -43.75,-43.741 V -78.108 L 0,-34.367 43.75,-78.108 v 34.367 z"/></g><g id="g532" transform="translate(393.75,945.6757)"><path style="fill:#fff;fill-opacity:1;fill-rule:nonzero;stroke:none" id="path534" d="M 0,0 -43.75,-43.741 V -78.108 L 0,-34.367 43.75,-78.108 v 34.367 z"/></g><g id="g536" transform="translate(393.75,980.0001)"><path style="fill:#fff;fill-opacity:1;fill-rule:nonzero;stroke:none" id="path538" d="M 0,0 -43.75,-43.741 V -78.108 L 0,-34.367 43.75,-78.108 v 34.367 z"/></g><g id="g540" transform="translate(481.25,568.1078)"><path style="fill:#238cc5;fill-opacity:1;fill-rule:nonzero;stroke:none" id="path542" d="M 0,0 -43.75,-43.741 V -78.108 L 0,-34.367 43.75,-78.108 v 34.367 z"/></g><g id="g544" transform="translate(481.25,602.4322)"><path style="fill:#51b3da;fill-opacity:1;fill-rule:nonzero;stroke:none" id="path546" d="M 0,0 -43.75,-43.741 V -78.108 L 0,-34.367 43.75,-78.108 v 34.367 z"/></g><g id="g548" transform="translate(481.25,636.7565)"><path style="fill:#51b3da;fill-opacity:1;fill-rule:nonzero;stroke:none" id="path550" d="M 0,0 -43.75,-43.741 V -78.108 L 0,-34.367 43.75,-78.108 v 34.367 z"/></g><g id="g552" transform="translate(481.25,671.0809)"><path style="fill:#80d0e1;fill-opacity:1;fill-rule:nonzero;stroke:none" id="path554" d="M 0,0 -43.75,-43.741 V -78.108 L 0,-34.367 43.75,-78.108 v 34.367 z"/></g><g id="g556" transform="translate(481.25,705.4052)"><path style="fill:#80d0e1;fill-opacity:1;fill-rule:nonzero;stroke:none" id="path558" d="M 0,0 -43.75,-43.741 V -78.108 L 0,-34.367 43.75,-78.108 v 34.367 z"/></g><g id="g560" transform="translate(481.25,739.7296)"><path style="fill:#e8f2fb;fill-opacity:1;fill-rule:nonzero;stroke:none" id="path562" d="M 0,0 -43.75,-43.741 V -78.108 L 0,-34.367 43.75,-78.108 v 34.367 z"/></g><g id="g564" transform="translate(481.25,774.0539)"><path style="fill:#e8f2fb;fill-opacity:1;fill-rule:nonzero;stroke:none" id="path566" d="M 0,0 -43.75,-43.741 V -78.108 L 0,-34.367 43.75,-78.108 v 34.367 z"/></g><g id="g568" transform="translate(481.25,808.3782)"><path style="fill:#fff;fill-opacity:1;fill-rule:nonzero;stroke:none" id="path570" d="M 0,0 -43.75,-43.741 V -78.108 L 0,-34.367 43.75,-78.108 v 34.367 z"/></g><g id="g572" transform="translate(481.25,842.7026)"><path style="fill:#fff;fill-opacity:1;fill-rule:nonzero;stroke:none" id="path574" d="M 0,0 -43.75,-43.741 V -78.108 L 0,-34.367 43.75,-78.108 v 34.367 z"/></g><g id="g576" transform="translate(481.25,877.027)"><path style="fill:#fff;fill-opacity:1;fill-rule:nonzero;stroke:none" id="path578" d="M 0,0 -43.75,-43.741 V -78.108 L 0,-34.367 43.75,-78.108 v 34.367 z"/></g><g id="g580" transform="translate(481.25,911.3513)"><path style="fill:#fff;fill-opacity:1;fill-rule:nonzero;stroke:none" id="path582" d="M 0,0 -43.75,-43.741 V -78.108 L 0,-34.367 43.75,-78.108 v 34.367 z"/></g><g id="g584" transform="translate(481.25,945.6757)"><path style="fill:#fff;fill-opacity:1;fill-rule:nonzero;stroke:none" id="path586" d="M 0,0 -43.75,-43.741 V -78.108 L 0,-34.367 43.75,-78.108 v 34.367 z"/></g><g id="g588" transform="translate(481.2498,980.0001)"><path style="fill:#fff;fill-opacity:1;fill-rule:nonzero;stroke:none" id="path590" d="M 0,0 -43.75,-43.741 V -78.108 L 0,-34.367 43.75,-78.108 v 34.367 z"/></g><g id="g592" transform="translate(568.75,568.1078)"><path style="fill:#238cc5;fill-opacity:1;fill-rule:nonzero;stroke:none" id="path594" d="M 0,0 -43.75,-43.741 V -78.108 L 0,-34.367 43.75,-78.108 v 34.367 z"/></g><g id="g596" transform="translate(568.75,602.4322)"><path style="fill:#238cc5;fill-opacity:1;fill-rule:nonzero;stroke:none" id="path598" d="M 0,0 -43.75,-43.741 V -78.108 L 0,-34.367 43.75,-78.108 v 34.367 z"/></g><g id="g600" transform="translate(568.75,636.7565)"><path style="fill:#238cc5;fill-opacity:1;fill-rule:nonzero;stroke:none" id="path602" d="M 0,0 -43.75,-43.741 V -78.108 L 0,-34.367 43.75,-78.108 v 34.367 z"/></g><g id="g604" transform="translate(568.75,671.0809)"><path style="fill:#51b3da;fill-opacity:1;fill-rule:nonzero;stroke:none" id="path606" d="M 0,0 -43.75,-43.741 V -78.108 L 0,-34.367 43.75,-78.108 v 34.367 z"/></g><g id="g608" transform="translate(568.75,705.4052)"><path style="fill:#51b3da;fill-opacity:1;fill-rule:nonzero;stroke:none" id="path610" d="M 0,0 -43.75,-43.741 V -78.108 L 0,-34.367 43.75,-78.108 v 34.367 z"/></g><g id="g612" transform="translate(568.75,739.7296)"><path style="fill:#80d0e1;fill-opacity:1;fill-rule:nonzero;stroke:none" id="path614" d="M 0,0 -43.75,-43.741 V -78.108 L 0,-34.367 43.75,-78.108 v 34.367 z"/></g><g id="g616" transform="translate(568.75,774.0539)"><path style="fill:#80d0e1;fill-opacity:1;fill-rule:nonzero;stroke:none" id="path618" d="M 0,0 -43.75,-43.741 V -78.108 L 0,-34.367 43.75,-78.108 v 34.367 z"/></g><g id="g620" transform="translate(568.75,808.3782)"><path style="fill:#e8f2fb;fill-opacity:1;fill-rule:nonzero;stroke:none" id="path622" d="M 0,0 -43.75,-43.741 V -78.108 L 0,-34.367 43.75,-78.108 v 34.367 z"/></g><g id="g624" transform="translate(568.75,842.7026)"><path style="fill:#e8f2fb;fill-opacity:1;fill-rule:nonzero;stroke:none" id="path626" d="M 0,0 -43.75,-43.741 V -78.108 L 0,-34.367 43.75,-78.108 v 34.367 z"/></g><g id="g628" transform="translate(568.75,877.027)"><path style="fill:#fff;fill-opacity:1;fill-rule:nonzero;stroke:none" id="path630" d="M 0,0 -43.75,-43.741 V -78.108 L 0,-34.367 43.75,-78.108 v 34.367 z"/></g><g id="g632" transform="translate(568.75,911.3513)"><path style="fill:#fff;fill-opacity:1;fill-rule:nonzero;stroke:none" id="path634" d="M 0,0 -43.75,-43.741 V -78.108 L 0,-34.367 43.75,-78.108 v 34.367 z"/></g><g id="g636" transform="translate(568.75,945.6757)"><path style="fill:#fff;fill-opacity:1;fill-rule:nonzero;stroke:none" id="path638" d="M 0,0 -43.75,-43.741 V -78.108 L 0,-34.367 43.75,-78.108 v 34.367 z"/></g><g id="g640" transform="translate(568.7496,980.0001)"><path style="fill:#fff;fill-opacity:1;fill-rule:nonzero;stroke:none" id="path642" d="M 0,0 -43.75,-43.741 V -78.108 L 0,-34.367 43.751,-78.108 v 34.367 z"/></g><g id="g644" transform="translate(656.25,568.1078)"><path style="fill:#238cc5;fill-opacity:1;fill-rule:nonzero;stroke:none" id="path646" d="M 0,0 -43.75,-43.741 V -78.108 L 0,-34.367 43.75,-78.108 v 34.367 z"/></g><g id="g648" transform="translate(656.25,602.4322)"><path style="fill:#238cc5;fill-opacity:1;fill-rule:nonzero;stroke:none" id="path650" d="M 0,0 -43.75,-43.741 V -78.108 L 0,-34.367 43.75,-78.108 v 34.367 z"/></g><g id="g652" transform="translate(656.25,636.7565)"><path style="fill:#238cc5;fill-opacity:1;fill-rule:nonzero;stroke:none" id="path654" d="M 0,0 -43.75,-43.741 V -78.108 L 0,-34.367 43.75,-78.108 v 34.367 z"/></g><g id="g656" transform="translate(656.25,671.0809)"><path style="fill:#238cc5;fill-opacity:1;fill-rule:nonzero;stroke:none" id="path658" d="M 0,0 -43.75,-43.741 V -78.108 L 0,-34.367 43.75,-78.108 v 34.367 z"/></g><g id="g660" transform="translate(656.25,705.4052)"><path style="fill:#51b3da;fill-opacity:1;fill-rule:nonzero;stroke:none" id="path662" d="M 0,0 -43.75,-43.741 V -78.108 L 0,-34.367 43.75,-78.108 v 34.367 z"/></g><g id="g664" transform="translate(656.25,739.7296)"><path style="fill:#51b3da;fill-opacity:1;fill-rule:nonzero;stroke:none" id="path666" d="M 0,0 -43.75,-43.741 V -78.108 L 0,-34.367 43.75,-78.108 v 34.367 z"/></g><g id="g668" transform="translate(656.25,774.0539)"><path style="fill:#80d0e1;fill-opacity:1;fill-rule:nonzero;stroke:none" id="path670" d="M 0,0 -43.75,-43.741 V -78.108 L 0,-34.367 43.75,-78.108 v 34.367 z"/></g><g id="g672" transform="translate(656.25,808.3782)"><path style="fill:#80d0e1;fill-opacity:1;fill-rule:nonzero;stroke:none" id="path674" d="M 0,0 -43.75,-43.741 V -78.108 L 0,-34.367 43.75,-78.108 v 34.367 z"/></g><g id="g676" transform="translate(656.25,842.7026)"><path style="fill:#e8f2fb;fill-opacity:1;fill-rule:nonzero;stroke:none" id="path678" d="M 0,0 -43.75,-43.741 V -78.108 L 0,-34.367 43.75,-78.108 v 34.367 z"/></g><g id="g680" transform="translate(656.25,877.027)"><path style="fill:#e8f2fb;fill-opacity:1;fill-rule:nonzero;stroke:none" id="path682" d="M 0,0 -43.75,-43.741 V -78.108 L 0,-34.367 43.75,-78.108 v 34.367 z"/></g><g id="g684" transform="translate(656.25,911.3513)"><path style="fill:#fff;fill-opacity:1;fill-rule:nonzero;stroke:none" id="path686" d="M 0,0 -43.75,-43.741 V -78.108 L 0,-34.367 43.75,-78.108 v 34.367 z"/></g><g id="g688" transform="translate(656.25,945.6757)"><path style="fill:#fff;fill-opacity:1;fill-rule:nonzero;stroke:none" id="path690" d="M 0,0 -43.75,-43.741 V -78.108 L 0,-34.367 43.75,-78.108 v 34.367 z"/></g><g id="g692" transform="translate(656.2503,980.0001)"><path style="fill:#fff;fill-opacity:1;fill-rule:nonzero;stroke:none" id="path694" d="M 0,0 -43.75,-43.741 V -78.108 L 0,-34.367 43.75,-78.108 v 34.367 z"/></g><g id="g696" transform="translate(350.0001,489.9996)"><path style="fill:#fff;fill-opacity:1;fill-rule:nonzero;stroke:none" id="path698" d="M 0,0 V -490 L 350,0 Z"/></g><path style="fill:#3a549d;fill-opacity:1;fill-rule:nonzero;stroke:none" id="path700" d="M 350,0 H 700 V 490 H 350 Z"/><path style="fill:#238cc5;fill-opacity:1;fill-rule:nonzero;stroke:none" id="path702" d="M 700,240.27 H 350 V 490 h 350 z"/><g id="g704" transform="translate(350.0001,34.3674)"><path style="fill:#3a549d;fill-opacity:1;fill-rule:nonzero;stroke:none" id="path706" d="M 0,0 V -34.367 L 43.75,9.374 87.5,-34.367 V 0 L 43.75,43.74 Z"/></g><g id="g708" transform="translate(393.75,112.4322)"><path style="fill:#416db4;fill-opacity:1;fill-rule:nonzero;stroke:none" id="path710" d="M 0,0 -43.75,-43.741 V -78.108 L 0,-34.367 43.75,-78.108 v 34.367 z"/></g><g id="g712" transform="translate(393.75,146.7565)"><path style="fill:#416db4;fill-opacity:1;fill-rule:nonzero;stroke:none" id="path714" d="M 0,0 -43.75,-43.741 V -78.108 L 0,-34.367 43.75,-78.108 v 34.367 z"/></g><g id="g716" transform="translate(393.75,181.0809)"><path style="fill:#416db4;fill-opacity:1;fill-rule:nonzero;stroke:none" id="path718" d="M 0,0 -43.75,-43.741 V -78.108 L 0,-34.367 43.75,-78.108 v 34.367 z"/></g><g id="g720" transform="translate(393.75,215.4052)"><path style="fill:#416db4;fill-opacity:1;fill-rule:nonzero;stroke:none" id="path722" d="M 0,0 -43.75,-43.741 V -78.108 L 0,-34.367 43.75,-78.108 v 34.367 z"/></g><g id="g724" transform="translate(393.75,249.7296)"><path style="fill:#4b77bb;fill-opacity:1;fill-rule:nonzero;stroke:none" id="path726" d="M 0,0 -43.75,-43.741 V -78.108 L 0,-34.367 43.75,-78.108 v 34.367 z"/></g><g id="g728" transform="translate(393.75,284.0539)"><path style="fill:#4b77bb;fill-opacity:1;fill-rule:nonzero;stroke:none" id="path730" d="M 0,0 -43.75,-43.741 V -78.108 L 0,-34.367 43.75,-78.108 v 34.367 z"/></g><g id="g732" transform="translate(393.75,318.3783)"><path style="fill:#4b77bb;fill-opacity:1;fill-rule:nonzero;stroke:none" id="path734" d="M 0,0 -43.75,-43.741 V -78.108 L 0,-34.367 43.75,-78.108 v 34.367 z"/></g><g id="g736" transform="translate(393.75,352.7026)"><path style="fill:#4b77bb;fill-opacity:1;fill-rule:nonzero;stroke:none" id="path738" d="M 0,0 -43.75,-43.741 V -78.108 L 0,-34.367 43.75,-78.108 v 34.367 z"/></g><g id="g740" transform="translate(393.75,387.0269)"><path style="fill:#4b77bb;fill-opacity:1;fill-rule:nonzero;stroke:none" id="path742" d="M 0,0 -43.75,-43.741 V -78.108 L 0,-34.367 43.75,-78.108 v 34.367 z"/></g><g id="g744" transform="translate(393.75,421.3513)"><path style="fill:#4881c2;fill-opacity:1;fill-rule:nonzero;stroke:none" id="path746" d="M 0,0 -43.75,-43.741 V -78.108 L 0,-34.367 43.75,-78.108 v 34.367 z"/></g><g id="g748" transform="translate(393.75,455.6757)"><path style="fill:#4881c2;fill-opacity:1;fill-rule:nonzero;stroke:none" id="path750" d="M 0,0 -43.75,-43.741 V -78.108 L 0,-34.367 43.75,-78.108 v 34.367 z"/></g><g id="g752" transform="translate(393.75,490)"><path style="fill:#4881c2;fill-opacity:1;fill-rule:nonzero;stroke:none" id="path754" d="M 0,0 -43.75,-43.741 V -78.108 L 0,-34.367 43.75,-78.108 v 34.367 z"/></g><g id="g756" transform="translate(437.4999,34.3674)"><path style="fill:#3a549d;fill-opacity:1;fill-rule:nonzero;stroke:none" id="path758" d="M 0,0 V -34.367 L 43.75,9.374 87.5,-34.367 V 0 L 43.75,43.74 Z"/></g><g id="g760" transform="translate(481.25,112.4322)"><path style="fill:#3a549d;fill-opacity:1;fill-rule:nonzero;stroke:none" id="path762" d="M 0,0 -43.75,-43.741 V -78.108 L 0,-34.367 43.75,-78.108 v 34.367 z"/></g><g id="g764" transform="translate(481.25,146.7565)"><path style="fill:#416db4;fill-opacity:1;fill-rule:nonzero;stroke:none" id="path766" d="M 0,0 -43.75,-43.741 V -78.108 L 0,-34.367 43.75,-78.108 v 34.367 z"/></g><g id="g768" transform="translate(481.25,181.0809)"><path style="fill:#416db4;fill-opacity:1;fill-rule:nonzero;stroke:none" id="path770" d="M 0,0 -43.75,-43.741 V -78.108 L 0,-34.367 43.75,-78.108 v 34.367 z"/></g><g id="g772" transform="translate(481.25,215.4052)"><path style="fill:#416db4;fill-opacity:1;fill-rule:nonzero;stroke:none" id="path774" d="M 0,0 -43.75,-43.741 V -78.108 L 0,-34.367 43.75,-78.108 v 34.367 z"/></g><g id="g776" transform="translate(481.25,249.7296)"><path style="fill:#416db4;fill-opacity:1;fill-rule:nonzero;stroke:none" id="path778" d="M 0,0 -43.75,-43.741 V -78.108 L 0,-34.367 43.75,-78.108 v 34.367 z"/></g><g id="g780" transform="translate(481.25,284.0539)"><path style="fill:#416db4;fill-opacity:1;fill-rule:nonzero;stroke:none" id="path782" d="M 0,0 -43.75,-43.741 V -78.108 L 0,-34.367 43.75,-78.108 v 34.367 z"/></g><g id="g784" transform="translate(481.25,318.3783)"><path style="fill:#416db4;fill-opacity:1;fill-rule:nonzero;stroke:none" id="path786" d="M 0,0 -43.75,-43.741 V -78.108 L 0,-34.367 43.75,-78.108 v 34.367 z"/></g><g id="g788" transform="translate(481.25,352.7026)"><path style="fill:#416db4;fill-opacity:1;fill-rule:nonzero;stroke:none" id="path790" d="M 0,0 -43.75,-43.741 V -78.108 L 0,-34.367 43.75,-78.108 v 34.367 z"/></g><g id="g792" transform="translate(481.25,387.0269)"><path style="fill:#416db4;fill-opacity:1;fill-rule:nonzero;stroke:none" id="path794" d="M 0,0 -43.75,-43.741 V -78.108 L 0,-34.367 43.75,-78.108 v 34.367 z"/></g><g id="g796" transform="translate(481.25,421.3513)"><path style="fill:#4b77bb;fill-opacity:1;fill-rule:nonzero;stroke:none" id="path798" d="M 0,0 -43.75,-43.741 V -78.108 L 0,-34.367 43.75,-78.108 v 34.367 z"/></g><g id="g800" transform="translate(481.25,455.6757)"><path style="fill:#4b77bb;fill-opacity:1;fill-rule:nonzero;stroke:none" id="path802" d="M 0,0 -43.75,-43.741 V -78.108 L 0,-34.367 43.75,-78.108 v 34.367 z"/></g><g id="g804" transform="translate(481.25,490)"><path style="fill:#4881c2;fill-opacity:1;fill-rule:nonzero;stroke:none" id="path806" d="M 0,0 -43.75,-43.741 V -78.108 L 0,-34.367 43.75,-78.108 v 34.367 z"/></g><g id="g808" transform="translate(524.9997,34.3674)"><path style="fill:#3a549d;fill-opacity:1;fill-rule:nonzero;stroke:none" id="path810" d="M 0,0 V -34.367 L 43.75,9.374 87.501,-34.367 V 0 L 43.75,43.74 Z"/></g><g id="g812" transform="translate(568.75,112.4322)"><path style="fill:#3a549d;fill-opacity:1;fill-rule:nonzero;stroke:none" id="path814" d="M 0,0 -43.75,-43.741 V -78.108 L 0,-34.367 43.75,-78.108 v 34.367 z"/></g><g id="g816" transform="translate(568.75,146.7565)"><path style="fill:#3a549d;fill-opacity:1;fill-rule:nonzero;stroke:none" id="path818" d="M 0,0 -43.75,-43.741 V -78.108 L 0,-34.367 43.75,-78.108 v 34.367 z"/></g><g id="g820" transform="translate(568.75,181.0809)"><path style="fill:#416db4;fill-opacity:1;fill-rule:nonzero;stroke:none" id="path822" d="M 0,0 -43.75,-43.741 V -78.108 L 0,-34.367 43.75,-78.108 v 34.367 z"/></g><g id="g824" transform="translate(568.75,215.4052)"><path style="fill:#416db4;fill-opacity:1;fill-rule:nonzero;stroke:none" id="path826" d="M 0,0 -43.75,-43.741 V -78.108 L 0,-34.367 43.75,-78.108 v 34.367 z"/></g><g id="g828" transform="translate(568.75,249.7296)"><path style="fill:#416db4;fill-opacity:1;fill-rule:nonzero;stroke:none" id="path830" d="M 0,0 -43.75,-43.741 V -78.108 L 0,-34.367 43.75,-78.108 v 34.367 z"/></g><g id="g832" transform="translate(568.75,284.0539)"><path style="fill:#416db4;fill-opacity:1;fill-rule:nonzero;stroke:none" id="path834" d="M 0,0 -43.75,-43.741 V -78.108 L 0,-34.367 43.75,-78.108 v 34.367 z"/></g><g id="g836" transform="translate(568.75,318.3783)"><path style="fill:#416db4;fill-opacity:1;fill-rule:nonzero;stroke:none" id="path838" d="M 0,0 -43.75,-43.741 V -78.108 L 0,-34.367 43.75,-78.108 v 34.367 z"/></g><g id="g840" transform="translate(568.75,352.7026)"><path style="fill:#4b77bb;fill-opacity:1;fill-rule:nonzero;stroke:none" id="path842" d="M 0,0 -43.75,-43.741 V -78.108 L 0,-34.367 43.75,-78.108 v 34.367 z"/></g><g id="g844" transform="translate(568.75,387.0269)"><path style="fill:#4b77bb;fill-opacity:1;fill-rule:nonzero;stroke:none" id="path846" d="M 0,0 -43.75,-43.741 V -78.108 L 0,-34.367 43.75,-78.108 v 34.367 z"/></g><g id="g848" transform="translate(568.75,421.3513)"><path style="fill:#4b77bb;fill-opacity:1;fill-rule:nonzero;stroke:none" id="path850" d="M 0,0 -43.75,-43.741 V -78.108 L 0,-34.367 43.75,-78.108 v 34.367 z"/></g><g id="g852" transform="translate(568.75,455.6757)"><path style="fill:#4881c2;fill-opacity:1;fill-rule:nonzero;stroke:none" id="path854" d="M 0,0 -43.75,-43.741 V -78.108 L 0,-34.367 43.75,-78.108 v 34.367 z"/></g><g id="g856" transform="translate(568.75,490)"><path style="fill:#238cc5;fill-opacity:1;fill-rule:nonzero;stroke:none" id="path858" d="M 0,0 -43.75,-43.741 V -78.108 L 0,-34.367 43.75,-78.108 v 34.367 z"/></g><g id="g860" transform="translate(612.5004,34.3674)"><path style="fill:#3a549d;fill-opacity:1;fill-rule:nonzero;stroke:none" id="path862" d="M 0,0 V -34.367 L 43.75,9.374 87.5,-34.367 V 0 L 43.75,43.74 Z"/></g><g id="g864" transform="translate(656.25,112.4322)"><path style="fill:#3a549d;fill-opacity:1;fill-rule:nonzero;stroke:none" id="path866" d="M 0,0 -43.75,-43.741 V -78.108 L 0,-34.367 43.75,-78.108 v 34.367 z"/></g><g id="g868" transform="translate(656.25,146.7565)"><path style="fill:#416db4;fill-opacity:1;fill-rule:nonzero;stroke:none" id="path870" d="M 0,0 -43.75,-43.741 V -78.108 L 0,-34.367 43.75,-78.108 v 34.367 z"/></g><g id="g872" transform="translate(656.25,181.0809)"><path style="fill:#416db4;fill-opacity:1;fill-rule:nonzero;stroke:none" id="path874" d="M 0,0 -43.75,-43.741 V -78.108 L 0,-34.367 43.75,-78.108 v 34.367 z"/></g><g id="g876" transform="translate(656.25,215.4052)"><path style="fill:#416db4;fill-opacity:1;fill-rule:nonzero;stroke:none" id="path878" d="M 0,0 -43.75,-43.741 V -78.108 L 0,-34.367 43.75,-78.108 v 34.367 z"/></g><g id="g880" transform="translate(656.25,249.7296)"><path style="fill:#416db4;fill-opacity:1;fill-rule:nonzero;stroke:none" id="path882" d="M 0,0 -43.75,-43.741 V -78.108 L 0,-34.367 43.75,-78.108 v 34.367 z"/></g><g id="g884" transform="translate(656.25,284.0539)"><path style="fill:#416db4;fill-opacity:1;fill-rule:nonzero;stroke:none" id="path886" d="M 0,0 -43.75,-43.741 V -78.108 L 0,-34.367 43.75,-78.108 v 34.367 z"/></g><g id="g888" transform="translate(656.25,318.3783)"><path style="fill:#416db4;fill-opacity:1;fill-rule:nonzero;stroke:none" id="path890" d="M 0,0 -43.75,-43.741 V -78.108 L 0,-34.367 43.75,-78.108 v 34.367 z"/></g><g id="g892" transform="translate(656.25,352.7026)"><path style="fill:#416db4;fill-opacity:1;fill-rule:nonzero;stroke:none" id="path894" d="M 0,0 -43.75,-43.741 V -78.108 L 0,-34.367 43.75,-78.108 v 34.367 z"/></g><g id="g896" transform="translate(656.25,387.0269)"><path style="fill:#4b77bb;fill-opacity:1;fill-rule:nonzero;stroke:none" id="path898" d="M 0,0 -43.75,-43.741 V -78.108 L 0,-34.367 43.75,-78.108 v 34.367 z"/></g><g id="g900" transform="translate(656.25,421.3513)"><path style="fill:#4b77bb;fill-opacity:1;fill-rule:nonzero;stroke:none" id="path902" d="M 0,0 -43.75,-43.741 V -78.108 L 0,-34.367 43.75,-78.108 v 34.367 z"/></g><g id="g904" transform="translate(656.25,455.6757)"><path style="fill:#4881c2;fill-opacity:1;fill-rule:nonzero;stroke:none" id="path906" d="M 0,0 -43.75,-43.741 V -78.108 L 0,-34.367 43.75,-78.108 v 34.367 z"/></g><g id="g908" transform="translate(656.25,490)"><path style="fill:#4881c2;fill-opacity:1;fill-rule:nonzero;stroke:none" id="path910" d="M 0,0 -43.75,-43.741 V -78.108 L 0,-34.367 43.75,-78.108 v 34.367 z"/></g><g id="g912" transform="translate(481.25,774.054)"><path style="fill:#fff;fill-opacity:1;fill-rule:nonzero;stroke:none" id="path914" d="m 0,0 v -318.378 0 l 9.292,-9.29 9.291,9.29 V 0 Z"/></g><g id="g916" transform="translate(568.75,842.7026)"><path style="fill:#fff;fill-opacity:1;fill-rule:nonzero;stroke:none" id="path918" d="m 0,0 v -258.593 0 l 9.292,-9.29 9.291,9.29 V 0 Z"/></g><g id="g920" transform="translate(418.9167,717.8378)"><path style="fill:#e8f2fb;fill-opacity:1;fill-rule:nonzero;stroke:none" id="path922" d="m 0,0 v -318.378 l 9.292,-9.29 9.291,9.29 v 0 V 0 Z"/></g><g id="g924" transform="translate(637.6667,808.3783)"><path style="fill:#e8f2fb;fill-opacity:1;fill-rule:nonzero;stroke:none" id="path926" d="m 0,0 v -318.378 l 9.292,-9.29 9.291,9.29 v 0 V 0 Z"/></g><g id="g928" transform="translate(646.9583,430.5563)"><path style="fill:#e8f2fb;fill-opacity:1;fill-rule:nonzero;stroke:none" id="path930" d="M 0,0 -9.292,-9.29 0,-18.579 9.292,-9.29 Z"/></g><g id="g932" transform="translate(481.2497,402.433)"><path style="fill:#e8f2fb;fill-opacity:1;fill-rule:nonzero;stroke:none" id="path934" d="M 0,0 -24.87,-24.865 0.001,-49.73 24.871,-24.865 Z"/></g><g id="g936" transform="translate(646.9583,461.8063)"><path style="fill:#e8f2fb;fill-opacity:1;fill-rule:nonzero;stroke:none" id="path938" d="M 0,0 -9.292,-9.29 0,-18.579 9.292,-9.29 Z"/></g><g id="g940" transform="translate(578.0416,527.6027)"><path style="fill:#fff;fill-opacity:1;fill-rule:nonzero;stroke:none" id="path942" d="M 0,0 -9.292,-9.29 0,-18.579 9.292,-9.29 Z"/></g><g id="g944" transform="translate(547.3748,504.936)"><path style="fill:#fff;fill-opacity:1;fill-rule:nonzero;stroke:none" id="path946" d="M 0,0 -15.958,-15.955 0,-31.91 15.958,-15.955 Z"/></g><path style="fill:#fff;fill-opacity:1;fill-rule:nonzero;stroke:none" id="path948" d="m 700,490 h 350 V 980.001 H 700 Z"/><path style="fill:#238cc5;fill-opacity:1;fill-rule:nonzero;stroke:none" id="path950" d="M 1050,661.622 H 700 V 490 h 350 z"/><g id="g952" transform="translate(743.75,568.1078)"><path style="fill:#238cc5;fill-opacity:1;fill-rule:nonzero;stroke:none" id="path954" d="M 0,0 -43.75,-43.741 V -78.108 L 0,-34.367 43.75,-78.108 v 34.367 z"/></g><g id="g956" transform="translate(743.75,602.4322)"><path style="fill:#238cc5;fill-opacity:1;fill-rule:nonzero;stroke:none" id="path958" d="M 0,0 -43.75,-43.741 V -78.108 L 0,-34.367 43.75,-78.108 v 34.367 z"/></g><g id="g960" transform="translate(743.75,636.7565)"><path style="fill:#51b3da;fill-opacity:1;fill-rule:nonzero;stroke:none" id="path962" d="M 0,0 -43.75,-43.741 V -78.108 L 0,-34.367 43.75,-78.108 v 34.367 z"/></g><g id="g964" transform="translate(743.75,671.0809)"><path style="fill:#51b3da;fill-opacity:1;fill-rule:nonzero;stroke:none" id="path966" d="M 0,0 -43.75,-43.741 V -78.108 L 0,-34.367 43.75,-78.108 v 34.367 z"/></g><g id="g968" transform="translate(743.75,705.4052)"><path style="fill:#80d0e1;fill-opacity:1;fill-rule:nonzero;stroke:none" id="path970" d="M 0,0 -43.75,-43.741 V -78.108 L 0,-34.367 43.75,-78.108 v 34.367 z"/></g><g id="g972" transform="translate(743.75,739.7296)"><path style="fill:#80d0e1;fill-opacity:1;fill-rule:nonzero;stroke:none" id="path974" d="M 0,0 -43.75,-43.741 V -78.108 L 0,-34.367 43.75,-78.108 v 34.367 z"/></g><g id="g976" transform="translate(743.75,774.0539)"><path style="fill:#e8f2fb;fill-opacity:1;fill-rule:nonzero;stroke:none" id="path978" d="M 0,0 -43.75,-43.741 V -78.108 L 0,-34.367 43.75,-78.108 v 34.367 z"/></g><g id="g980" transform="translate(743.75,808.3782)"><path style="fill:#e8f2fb;fill-opacity:1;fill-rule:nonzero;stroke:none" id="path982" d="M 0,0 -43.75,-43.741 V -78.108 L 0,-34.367 43.75,-78.108 v 34.367 z"/></g><g id="g984" transform="translate(743.75,842.7026)"><path style="fill:#e8f2fb;fill-opacity:1;fill-rule:nonzero;stroke:none" id="path986" d="M 0,0 -43.75,-43.741 V -78.108 L 0,-34.367 43.75,-78.108 v 34.367 z"/></g><g id="g988" transform="translate(743.75,877.027)"><path style="fill:#e8f2fb;fill-opacity:1;fill-rule:nonzero;stroke:none" id="path990" d="M 0,0 -43.75,-43.741 V -78.108 L 0,-34.367 43.75,-78.108 v 34.367 z"/></g><g id="g992" transform="translate(743.75,911.3513)"><path style="fill:#e8f2fb;fill-opacity:1;fill-rule:nonzero;stroke:none" id="path994" d="M 0,0 -43.75,-43.741 V -78.108 L 0,-34.367 43.75,-78.108 v 34.367 z"/></g><g id="g996" transform="translate(743.75,945.6757)"><path style="fill:#fff;fill-opacity:1;fill-rule:nonzero;stroke:none" id="path998" d="M 0,0 -43.75,-43.741 V -78.108 L 0,-34.367 43.75,-78.108 v 34.367 z"/></g><g id="g1000" transform="translate(743.7501,980.0001)"><path style="fill:#fff;fill-opacity:1;fill-rule:nonzero;stroke:none" id="path1002" d="M 0,0 -43.75,-43.741 V -78.108 L 0,-34.367 43.75,-78.108 v 34.367 z"/></g><g id="g1004" transform="translate(831.25,568.1078)"><path style="fill:#238cc5;fill-opacity:1;fill-rule:nonzero;stroke:none" id="path1006" d="M 0,0 -43.75,-43.741 V -78.108 L 0,-34.367 43.75,-78.108 v 34.367 z"/></g><g id="g1008" transform="translate(831.25,602.4322)"><path style="fill:#51b3da;fill-opacity:1;fill-rule:nonzero;stroke:none" id="path1010" d="M 0,0 -43.75,-43.741 V -78.108 L 0,-34.367 43.75,-78.108 v 34.367 z"/></g><g id="g1012" transform="translate(831.25,636.7565)"><path style="fill:#51b3da;fill-opacity:1;fill-rule:nonzero;stroke:none" id="path1014" d="M 0,0 -43.75,-43.741 V -78.108 L 0,-34.367 43.75,-78.108 v 34.367 z"/></g><g id="g1016" transform="translate(831.25,671.0809)"><path style="fill:#80d0e1;fill-opacity:1;fill-rule:nonzero;stroke:none" id="path1018" d="M 0,0 -43.75,-43.741 V -78.108 L 0,-34.367 43.75,-78.108 v 34.367 z"/></g><g id="g1020" transform="translate(831.25,705.4052)"><path style="fill:#80d0e1;fill-opacity:1;fill-rule:nonzero;stroke:none" id="path1022" d="M 0,0 -43.75,-43.741 V -78.108 L 0,-34.367 43.75,-78.108 v 34.367 z"/></g><g id="g1024" transform="translate(831.25,739.7296)"><path style="fill:#e8f2fb;fill-opacity:1;fill-rule:nonzero;stroke:none" id="path1026" d="M 0,0 -43.75,-43.741 V -78.108 L 0,-34.367 43.75,-78.108 v 34.367 z"/></g><g id="g1028" transform="translate(831.25,774.0539)"><path style="fill:#e8f2fb;fill-opacity:1;fill-rule:nonzero;stroke:none" id="path1030" d="M 0,0 -43.75,-43.741 V -78.108 L 0,-34.367 43.75,-78.108 v 34.367 z"/></g><g id="g1032" transform="translate(831.25,808.3782)"><path style="fill:#fff;fill-opacity:1;fill-rule:nonzero;stroke:none" id="path1034" d="M 0,0 -43.75,-43.741 V -78.108 L 0,-34.367 43.75,-78.108 v 34.367 z"/></g><g id="g1036" transform="translate(831.25,842.7026)"><path style="fill:#fff;fill-opacity:1;fill-rule:nonzero;stroke:none" id="path1038" d="M 0,0 -43.75,-43.741 V -78.108 L 0,-34.367 43.75,-78.108 v 34.367 z"/></g><g id="g1040" transform="translate(831.25,877.027)"><path style="fill:#fff;fill-opacity:1;fill-rule:nonzero;stroke:none" id="path1042" d="M 0,0 -43.75,-43.741 V -78.108 L 0,-34.367 43.75,-78.108 v 34.367 z"/></g><g id="g1044" transform="translate(831.25,911.3513)"><path style="fill:#fff;fill-opacity:1;fill-rule:nonzero;stroke:none" id="path1046" d="M 0,0 -43.75,-43.741 V -78.108 L 0,-34.367 43.75,-78.108 v 34.367 z"/></g><g id="g1048" transform="translate(831.25,945.6757)"><path style="fill:#fff;fill-opacity:1;fill-rule:nonzero;stroke:none" id="path1050" d="M 0,0 -43.75,-43.741 V -78.108 L 0,-34.367 43.75,-78.108 v 34.367 z"/></g><g id="g1052" transform="translate(831.2499,980.0001)"><path style="fill:#fff;fill-opacity:1;fill-rule:nonzero;stroke:none" id="path1054" d="M 0,0 -43.75,-43.741 V -78.108 L 0,-34.367 43.75,-78.108 v 34.367 z"/></g><g id="g1056" transform="translate(918.75,568.1078)"><path style="fill:#238cc5;fill-opacity:1;fill-rule:nonzero;stroke:none" id="path1058" d="M 0,0 -43.75,-43.741 V -78.108 L 0,-34.367 43.75,-78.108 v 34.367 z"/></g><g id="g1060" transform="translate(918.75,602.4322)"><path style="fill:#238cc5;fill-opacity:1;fill-rule:nonzero;stroke:none" id="path1062" d="M 0,0 -43.75,-43.741 V -78.108 L 0,-34.367 43.75,-78.108 v 34.367 z"/></g><g id="g1064" transform="translate(918.75,636.7565)"><path style="fill:#238cc5;fill-opacity:1;fill-rule:nonzero;stroke:none" id="path1066" d="M 0,0 -43.75,-43.741 V -78.108 L 0,-34.367 43.75,-78.108 v 34.367 z"/></g><g id="g1068" transform="translate(918.75,671.0809)"><path style="fill:#51b3da;fill-opacity:1;fill-rule:nonzero;stroke:none" id="path1070" d="M 0,0 -43.75,-43.741 V -78.108 L 0,-34.367 43.75,-78.108 v 34.367 z"/></g><g id="g1072" transform="translate(918.75,705.4052)"><path style="fill:#51b3da;fill-opacity:1;fill-rule:nonzero;stroke:none" id="path1074" d="M 0,0 -43.75,-43.741 V -78.108 L 0,-34.367 43.75,-78.108 v 34.367 z"/></g><g id="g1076" transform="translate(918.75,739.7296)"><path style="fill:#80d0e1;fill-opacity:1;fill-rule:nonzero;stroke:none" id="path1078" d="M 0,0 -43.75,-43.741 V -78.108 L 0,-34.367 43.75,-78.108 v 34.367 z"/></g><g id="g1080" transform="translate(918.75,774.0539)"><path style="fill:#80d0e1;fill-opacity:1;fill-rule:nonzero;stroke:none" id="path1082" d="M 0,0 -43.75,-43.741 V -78.108 L 0,-34.367 43.75,-78.108 v 34.367 z"/></g><g id="g1084" transform="translate(918.75,808.3782)"><path style="fill:#e8f2fb;fill-opacity:1;fill-rule:nonzero;stroke:none" id="path1086" d="M 0,0 -43.75,-43.741 V -78.108 L 0,-34.367 43.75,-78.108 v 34.367 z"/></g><g id="g1088" transform="translate(918.75,842.7026)"><path style="fill:#e8f2fb;fill-opacity:1;fill-rule:nonzero;stroke:none" id="path1090" d="M 0,0 -43.75,-43.741 V -78.108 L 0,-34.367 43.75,-78.108 v 34.367 z"/></g><g id="g1092" transform="translate(918.75,877.027)"><path style="fill:#fff;fill-opacity:1;fill-rule:nonzero;stroke:none" id="path1094" d="M 0,0 -43.75,-43.741 V -78.108 L 0,-34.367 43.75,-78.108 v 34.367 z"/></g><g id="g1096" transform="translate(918.75,911.3513)"><path style="fill:#fff;fill-opacity:1;fill-rule:nonzero;stroke:none" id="path1098" d="M 0,0 -43.75,-43.741 V -78.108 L 0,-34.367 43.75,-78.108 v 34.367 z"/></g><g id="g1100" transform="translate(918.75,945.6757)"><path style="fill:#fff;fill-opacity:1;fill-rule:nonzero;stroke:none" id="path1102" d="M 0,0 -43.75,-43.741 V -78.108 L 0,-34.367 43.75,-78.108 v 34.367 z"/></g><g id="g1104" transform="translate(918.7497,980.0001)"><path style="fill:#fff;fill-opacity:1;fill-rule:nonzero;stroke:none" id="path1106" d="M 0,0 -43.75,-43.741 V -78.108 L 0,-34.367 43.75,-78.108 v 34.367 z"/></g><g id="g1108" transform="translate(1006.25,568.1078)"><path style="fill:#238cc5;fill-opacity:1;fill-rule:nonzero;stroke:none" id="path1110" d="M 0,0 -43.75,-43.741 V -78.108 L 0,-34.367 43.75,-78.108 v 34.367 z"/></g><g id="g1112" transform="translate(1006.25,602.4322)"><path style="fill:#238cc5;fill-opacity:1;fill-rule:nonzero;stroke:none" id="path1114" d="M 0,0 -43.75,-43.741 V -78.108 L 0,-34.367 43.75,-78.108 v 34.367 z"/></g><g id="g1116" transform="translate(1006.25,636.7565)"><path style="fill:#238cc5;fill-opacity:1;fill-rule:nonzero;stroke:none" id="path1118" d="M 0,0 -43.75,-43.741 V -78.108 L 0,-34.367 43.75,-78.108 v 34.367 z"/></g><g id="g1120" transform="translate(1006.25,671.0809)"><path style="fill:#238cc5;fill-opacity:1;fill-rule:nonzero;stroke:none" id="path1122" d="M 0,0 -43.75,-43.741 V -78.108 L 0,-34.367 43.75,-78.108 v 34.367 z"/></g><g id="g1124" transform="translate(1006.25,705.4052)"><path style="fill:#51b3da;fill-opacity:1;fill-rule:nonzero;stroke:none" id="path1126" d="M 0,0 -43.75,-43.741 V -78.108 L 0,-34.367 43.75,-78.108 v 34.367 z"/></g><g id="g1128" transform="translate(1006.25,739.7296)"><path style="fill:#51b3da;fill-opacity:1;fill-rule:nonzero;stroke:none" id="path1130" d="M 0,0 -43.75,-43.741 V -78.108 L 0,-34.367 43.75,-78.108 v 34.367 z"/></g><g id="g1132" transform="translate(1006.25,774.0539)"><path style="fill:#80d0e1;fill-opacity:1;fill-rule:nonzero;stroke:none" id="path1134" d="M 0,0 -43.75,-43.741 V -78.108 L 0,-34.367 43.75,-78.108 v 34.367 z"/></g><g id="g1136" transform="translate(1006.25,808.3782)"><path style="fill:#80d0e1;fill-opacity:1;fill-rule:nonzero;stroke:none" id="path1138" d="M 0,0 -43.75,-43.741 V -78.108 L 0,-34.367 43.75,-78.108 v 34.367 z"/></g><g id="g1140" transform="translate(1006.25,842.7026)"><path style="fill:#e8f2fb;fill-opacity:1;fill-rule:nonzero;stroke:none" id="path1142" d="M 0,0 -43.75,-43.741 V -78.108 L 0,-34.367 43.75,-78.108 v 34.367 z"/></g><g id="g1144" transform="translate(1006.25,877.027)"><path style="fill:#e8f2fb;fill-opacity:1;fill-rule:nonzero;stroke:none" id="path1146" d="M 0,0 -43.75,-43.741 V -78.108 L 0,-34.367 43.75,-78.108 v 34.367 z"/></g><g id="g1148" transform="translate(1006.25,911.3513)"><path style="fill:#fff;fill-opacity:1;fill-rule:nonzero;stroke:none" id="path1150" d="M 0,0 -43.75,-43.741 V -78.108 L 0,-34.367 43.75,-78.108 v 34.367 z"/></g><g id="g1152" transform="translate(1006.25,945.6757)"><path style="fill:#fff;fill-opacity:1;fill-rule:nonzero;stroke:none" id="path1154" d="M 0,0 -43.75,-43.741 V -78.108 L 0,-34.367 43.75,-78.108 v 34.367 z"/></g><g id="g1156" transform="translate(1006.2504,980.0001)"><path style="fill:#fff;fill-opacity:1;fill-rule:nonzero;stroke:none" id="path1158" d="M 0,0 -43.751,-43.741 V -78.108 L 0,-34.367 43.75,-78.108 v 34.367 z"/></g><g id="g1160" transform="translate(700.0002,489.9996)"><path style="fill:#fff;fill-opacity:1;fill-rule:nonzero;stroke:none" id="path1162" d="M 0,0 V -490 L 350,0 Z"/></g><path style="fill:#3a549d;fill-opacity:1;fill-rule:nonzero;stroke:none" id="path1164" d="m 700,0 h 350 V 490 H 700 Z"/><path style="fill:#238cc5;fill-opacity:1;fill-rule:nonzero;stroke:none" id="path1166" d="M 1050,240.27 H 700 V 490 h 350 z"/><g id="g1168" transform="translate(700.0002,34.3674)"><path style="fill:#3a549d;fill-opacity:1;fill-rule:nonzero;stroke:none" id="path1170" d="M 0,0 V -34.367 L 43.75,9.374 87.5,-34.367 V 0 L 43.75,43.74 Z"/></g><g id="g1172" transform="translate(743.75,112.4322)"><path style="fill:#416db4;fill-opacity:1;fill-rule:nonzero;stroke:none" id="path1174" d="M 0,0 -43.75,-43.741 V -78.108 L 0,-34.367 43.75,-78.108 v 34.367 z"/></g><g id="g1176" transform="translate(743.75,146.7565)"><path style="fill:#416db4;fill-opacity:1;fill-rule:nonzero;stroke:none" id="path1178" d="M 0,0 -43.75,-43.741 V -78.108 L 0,-34.367 43.75,-78.108 v 34.367 z"/></g><g id="g1180" transform="translate(743.75,181.0809)"><path style="fill:#416db4;fill-opacity:1;fill-rule:nonzero;stroke:none" id="path1182" d="M 0,0 -43.75,-43.741 V -78.108 L 0,-34.367 43.75,-78.108 v 34.367 z"/></g><g id="g1184" transform="translate(743.75,215.4052)"><path style="fill:#416db4;fill-opacity:1;fill-rule:nonzero;stroke:none" id="path1186" d="M 0,0 -43.75,-43.741 V -78.108 L 0,-34.367 43.75,-78.108 v 34.367 z"/></g><g id="g1188" transform="translate(743.75,249.7296)"><path style="fill:#4b77bb;fill-opacity:1;fill-rule:nonzero;stroke:none" id="path1190" d="M 0,0 -43.75,-43.741 V -78.108 L 0,-34.367 43.75,-78.108 v 34.367 z"/></g><g id="g1192" transform="translate(743.75,284.0539)"><path style="fill:#4b77bb;fill-opacity:1;fill-rule:nonzero;stroke:none" id="path1194" d="M 0,0 -43.75,-43.741 V -78.108 L 0,-34.367 43.75,-78.108 v 34.367 z"/></g><g id="g1196" transform="translate(743.75,318.3783)"><path style="fill:#4b77bb;fill-opacity:1;fill-rule:nonzero;stroke:none" id="path1198" d="M 0,0 -43.75,-43.741 V -78.108 L 0,-34.367 43.75,-78.108 v 34.367 z"/></g><g id="g1200" transform="translate(743.75,352.7026)"><path style="fill:#4b77bb;fill-opacity:1;fill-rule:nonzero;stroke:none" id="path1202" d="M 0,0 -43.75,-43.741 V -78.108 L 0,-34.367 43.75,-78.108 v 34.367 z"/></g><g id="g1204" transform="translate(743.75,387.0269)"><path style="fill:#4b77bb;fill-opacity:1;fill-rule:nonzero;stroke:none" id="path1206" d="M 0,0 -43.75,-43.741 V -78.108 L 0,-34.367 43.75,-78.108 v 34.367 z"/></g><g id="g1208" transform="translate(743.75,421.3513)"><path style="fill:#4881c2;fill-opacity:1;fill-rule:nonzero;stroke:none" id="path1210" d="M 0,0 -43.75,-43.741 V -78.108 L 0,-34.367 43.75,-78.108 v 34.367 z"/></g><g id="g1212" transform="translate(743.75,455.6757)"><path style="fill:#4881c2;fill-opacity:1;fill-rule:nonzero;stroke:none" id="path1214" d="M 0,0 -43.75,-43.741 V -78.108 L 0,-34.367 43.75,-78.108 v 34.367 z"/></g><g id="g1216" transform="translate(743.75,490)"><path style="fill:#4881c2;fill-opacity:1;fill-rule:nonzero;stroke:none" id="path1218" d="M 0,0 -43.75,-43.741 V -78.108 L 0,-34.367 43.75,-78.108 v 34.367 z"/></g><g id="g1220" transform="translate(787.5,34.3674)"><path style="fill:#3a549d;fill-opacity:1;fill-rule:nonzero;stroke:none" id="path1222" d="M 0,0 V -34.367 L 43.75,9.374 87.5,-34.367 V 0 L 43.75,43.74 Z"/></g><g id="g1224" transform="translate(831.25,112.4322)"><path style="fill:#3a549d;fill-opacity:1;fill-rule:nonzero;stroke:none" id="path1226" d="M 0,0 -43.75,-43.741 V -78.108 L 0,-34.367 43.75,-78.108 v 34.367 z"/></g><g id="g1228" transform="translate(831.25,146.7565)"><path style="fill:#416db4;fill-opacity:1;fill-rule:nonzero;stroke:none" id="path1230" d="M 0,0 -43.75,-43.741 V -78.108 L 0,-34.367 43.75,-78.108 v 34.367 z"/></g><g id="g1232" transform="translate(831.25,181.0809)"><path style="fill:#416db4;fill-opacity:1;fill-rule:nonzero;stroke:none" id="path1234" d="M 0,0 -43.75,-43.741 V -78.108 L 0,-34.367 43.75,-78.108 v 34.367 z"/></g><g id="g1236" transform="translate(831.25,215.4052)"><path style="fill:#416db4;fill-opacity:1;fill-rule:nonzero;stroke:none" id="path1238" d="M 0,0 -43.75,-43.741 V -78.108 L 0,-34.367 43.75,-78.108 v 34.367 z"/></g><g id="g1240" transform="translate(831.25,249.7296)"><path style="fill:#416db4;fill-opacity:1;fill-rule:nonzero;stroke:none" id="path1242" d="M 0,0 -43.75,-43.741 V -78.108 L 0,-34.367 43.75,-78.108 v 34.367 z"/></g><g id="g1244" transform="translate(831.25,284.0539)"><path style="fill:#416db4;fill-opacity:1;fill-rule:nonzero;stroke:none" id="path1246" d="M 0,0 -43.75,-43.741 V -78.108 L 0,-34.367 43.75,-78.108 v 34.367 z"/></g><g id="g1248" transform="translate(831.25,318.3783)"><path style="fill:#416db4;fill-opacity:1;fill-rule:nonzero;stroke:none" id="path1250" d="M 0,0 -43.75,-43.741 V -78.108 L 0,-34.367 43.75,-78.108 v 34.367 z"/></g><g id="g1252" transform="translate(831.25,352.7026)"><path style="fill:#416db4;fill-opacity:1;fill-rule:nonzero;stroke:none" id="path1254" d="M 0,0 -43.75,-43.741 V -78.108 L 0,-34.367 43.75,-78.108 v 34.367 z"/></g><g id="g1256" transform="translate(831.25,387.0269)"><path style="fill:#416db4;fill-opacity:1;fill-rule:nonzero;stroke:none" id="path1258" d="M 0,0 -43.75,-43.741 V -78.108 L 0,-34.367 43.75,-78.108 v 34.367 z"/></g><g id="g1260" transform="translate(831.25,421.3513)"><path style="fill:#4b77bb;fill-opacity:1;fill-rule:nonzero;stroke:none" id="path1262" d="M 0,0 -43.75,-43.741 V -78.108 L 0,-34.367 43.75,-78.108 v 34.367 z"/></g><g id="g1264" transform="translate(831.25,455.6757)"><path style="fill:#4b77bb;fill-opacity:1;fill-rule:nonzero;stroke:none" id="path1266" d="M 0,0 -43.75,-43.741 V -78.108 L 0,-34.367 43.75,-78.108 v 34.367 z"/></g><g id="g1268" transform="translate(831.25,490)"><path style="fill:#4881c2;fill-opacity:1;fill-rule:nonzero;stroke:none" id="path1270" d="M 0,0 -43.75,-43.741 V -78.108 L 0,-34.367 43.75,-78.108 v 34.367 z"/></g><g id="g1272" transform="translate(874.9998,34.3674)"><path style="fill:#3a549d;fill-opacity:1;fill-rule:nonzero;stroke:none" id="path1274" d="M 0,0 V -34.367 L 43.75,9.374 87.5,-34.367 V 0 L 43.75,43.74 Z"/></g><g id="g1276" transform="translate(918.75,112.4322)"><path style="fill:#3a549d;fill-opacity:1;fill-rule:nonzero;stroke:none" id="path1278" d="M 0,0 -43.75,-43.741 V -78.108 L 0,-34.367 43.75,-78.108 v 34.367 z"/></g><g id="g1280" transform="translate(918.75,146.7565)"><path style="fill:#3a549d;fill-opacity:1;fill-rule:nonzero;stroke:none" id="path1282" d="M 0,0 -43.75,-43.741 V -78.108 L 0,-34.367 43.75,-78.108 v 34.367 z"/></g><g id="g1284" transform="translate(918.75,181.0809)"><path style="fill:#416db4;fill-opacity:1;fill-rule:nonzero;stroke:none" id="path1286" d="M 0,0 -43.75,-43.741 V -78.108 L 0,-34.367 43.75,-78.108 v 34.367 z"/></g><g id="g1288" transform="translate(918.75,215.4052)"><path style="fill:#416db4;fill-opacity:1;fill-rule:nonzero;stroke:none" id="path1290" d="M 0,0 -43.75,-43.741 V -78.108 L 0,-34.367 43.75,-78.108 v 34.367 z"/></g><g id="g1292" transform="translate(918.75,249.7296)"><path style="fill:#416db4;fill-opacity:1;fill-rule:nonzero;stroke:none" id="path1294" d="M 0,0 -43.75,-43.741 V -78.108 L 0,-34.367 43.75,-78.108 v 34.367 z"/></g><g id="g1296" transform="translate(918.75,284.0539)"><path style="fill:#416db4;fill-opacity:1;fill-rule:nonzero;stroke:none" id="path1298" d="M 0,0 -43.75,-43.741 V -78.108 L 0,-34.367 43.75,-78.108 v 34.367 z"/></g><g id="g1300" transform="translate(918.75,318.3783)"><path style="fill:#416db4;fill-opacity:1;fill-rule:nonzero;stroke:none" id="path1302" d="M 0,0 -43.75,-43.741 V -78.108 L 0,-34.367 43.75,-78.108 v 34.367 z"/></g><g id="g1304" transform="translate(918.75,352.7026)"><path style="fill:#4b77bb;fill-opacity:1;fill-rule:nonzero;stroke:none" id="path1306" d="M 0,0 -43.75,-43.741 V -78.108 L 0,-34.367 43.75,-78.108 v 34.367 z"/></g><g id="g1308" transform="translate(918.75,387.0269)"><path style="fill:#4b77bb;fill-opacity:1;fill-rule:nonzero;stroke:none" id="path1310" d="M 0,0 -43.75,-43.741 V -78.108 L 0,-34.367 43.75,-78.108 v 34.367 z"/></g><g id="g1312" transform="translate(918.75,421.3513)"><path style="fill:#4b77bb;fill-opacity:1;fill-rule:nonzero;stroke:none" id="path1314" d="M 0,0 -43.75,-43.741 V -78.108 L 0,-34.367 43.75,-78.108 v 34.367 z"/></g><g id="g1316" transform="translate(918.75,455.6757)"><path style="fill:#4881c2;fill-opacity:1;fill-rule:nonzero;stroke:none" id="path1318" d="M 0,0 -43.75,-43.741 V -78.108 L 0,-34.367 43.75,-78.108 v 34.367 z"/></g><g id="g1320" transform="translate(918.75,490)"><path style="fill:#238cc5;fill-opacity:1;fill-rule:nonzero;stroke:none" id="path1322" d="M 0,0 -43.75,-43.741 V -78.108 L 0,-34.367 43.75,-78.108 v 34.367 z"/></g><g id="g1324" transform="translate(962.4996,34.3674)"><path style="fill:#3a549d;fill-opacity:1;fill-rule:nonzero;stroke:none" id="path1326" d="M 0,0 V -34.367 L 43.751,9.374 87.501,-34.367 V 0 l -43.75,43.74 z"/></g><g id="g1328" transform="translate(1006.25,112.4322)"><path style="fill:#3a549d;fill-opacity:1;fill-rule:nonzero;stroke:none" id="path1330" d="M 0,0 -43.75,-43.741 V -78.108 L 0,-34.367 43.75,-78.108 v 34.367 z"/></g><g id="g1332" transform="translate(1006.25,146.7565)"><path style="fill:#416db4;fill-opacity:1;fill-rule:nonzero;stroke:none" id="path1334" d="M 0,0 -43.75,-43.741 V -78.108 L 0,-34.367 43.75,-78.108 v 34.367 z"/></g><g id="g1336" transform="translate(1006.25,181.0809)"><path style="fill:#416db4;fill-opacity:1;fill-rule:nonzero;stroke:none" id="path1338" d="M 0,0 -43.75,-43.741 V -78.108 L 0,-34.367 43.75,-78.108 v 34.367 z"/></g><g id="g1340" transform="translate(1006.25,215.4052)"><path style="fill:#416db4;fill-opacity:1;fill-rule:nonzero;stroke:none" id="path1342" d="M 0,0 -43.75,-43.741 V -78.108 L 0,-34.367 43.75,-78.108 v 34.367 z"/></g><g id="g1344" transform="translate(1006.25,249.7296)"><path style="fill:#416db4;fill-opacity:1;fill-rule:nonzero;stroke:none" id="path1346" d="M 0,0 -43.75,-43.741 V -78.108 L 0,-34.367 43.75,-78.108 v 34.367 z"/></g><g id="g1348" transform="translate(1006.25,284.0539)"><path style="fill:#416db4;fill-opacity:1;fill-rule:nonzero;stroke:none" id="path1350" d="M 0,0 -43.75,-43.741 V -78.108 L 0,-34.367 43.75,-78.108 v 34.367 z"/></g><g id="g1352" transform="translate(1006.25,318.3783)"><path style="fill:#416db4;fill-opacity:1;fill-rule:nonzero;stroke:none" id="path1354" d="M 0,0 -43.75,-43.741 V -78.108 L 0,-34.367 43.75,-78.108 v 34.367 z"/></g><g id="g1356" transform="translate(1006.25,352.7026)"><path style="fill:#416db4;fill-opacity:1;fill-rule:nonzero;stroke:none" id="path1358" d="M 0,0 -43.75,-43.741 V -78.108 L 0,-34.367 43.75,-78.108 v 34.367 z"/></g><g id="g1360" transform="translate(1006.25,387.0269)"><path style="fill:#4b77bb;fill-opacity:1;fill-rule:nonzero;stroke:none" id="path1362" d="M 0,0 -43.75,-43.741 V -78.108 L 0,-34.367 43.75,-78.108 v 34.367 z"/></g><g id="g1364" transform="translate(1006.25,421.3513)"><path style="fill:#4b77bb;fill-opacity:1;fill-rule:nonzero;stroke:none" id="path1366" d="M 0,0 -43.75,-43.741 V -78.108 L 0,-34.367 43.75,-78.108 v 34.367 z"/></g><g id="g1368" transform="translate(1006.25,455.6757)"><path style="fill:#4881c2;fill-opacity:1;fill-rule:nonzero;stroke:none" id="path1370" d="M 0,0 -43.75,-43.741 V -78.108 L 0,-34.367 43.75,-78.108 v 34.367 z"/></g><g id="g1372" transform="translate(1006.25,490)"><path style="fill:#4881c2;fill-opacity:1;fill-rule:nonzero;stroke:none" id="path1374" d="M 0,0 -43.75,-43.741 V -78.108 L 0,-34.367 43.75,-78.108 v 34.367 z"/></g><g id="g1376" transform="translate(831.25,774.054)"><path style="fill:#fff;fill-opacity:1;fill-rule:nonzero;stroke:none" id="path1378" d="m 0,0 v -318.378 0 l 9.292,-9.29 9.291,9.29 V 0 Z"/></g><g id="g1380" transform="translate(918.75,842.7026)"><path style="fill:#fff;fill-opacity:1;fill-rule:nonzero;stroke:none" id="path1382" d="m 0,0 v -258.593 0 l 9.292,-9.29 9.291,9.29 V 0 Z"/></g><g id="g1384" transform="translate(768.9167,717.8378)"><path style="fill:#e8f2fb;fill-opacity:1;fill-rule:nonzero;stroke:none" id="path1386" d="m 0,0 v -318.378 l 9.292,-9.29 9.291,9.29 v 0 V 0 Z"/></g><g id="g1388" transform="translate(987.6667,808.3783)"><path style="fill:#e8f2fb;fill-opacity:1;fill-rule:nonzero;stroke:none" id="path1390" d="m 0,0 v -318.378 l 9.292,-9.29 9.291,9.29 v 0 V 0 Z"/></g><g id="g1392" transform="translate(996.9583,430.5563)"><path style="fill:#e8f2fb;fill-opacity:1;fill-rule:nonzero;stroke:none" id="path1394" d="M 0,0 -9.292,-9.29 0,-18.579 9.292,-9.29 Z"/></g><g id="g1396" transform="translate(831.2497,402.433)"><path style="fill:#e8f2fb;fill-opacity:1;fill-rule:nonzero;stroke:none" id="path1398" d="M 0,0 -24.87,-24.865 0.001,-49.73 24.871,-24.865 Z"/></g><g id="g1400" transform="translate(996.9583,461.8063)"><path style="fill:#e8f2fb;fill-opacity:1;fill-rule:nonzero;stroke:none" id="path1402" d="M 0,0 -9.292,-9.29 0,-18.579 9.292,-9.29 Z"/></g><g id="g1404" transform="translate(928.0416,527.6027)"><path style="fill:#fff;fill-opacity:1;fill-rule:nonzero;stroke:none" id="path1406" d="M 0,0 -9.292,-9.29 0,-18.579 9.292,-9.29 Z"/></g><g id="g1408" transform="translate(897.3748,504.936)"><path style="fill:#fff;fill-opacity:1;fill-rule:nonzero;stroke:none" id="path1410" d="M 0,0 -15.958,-15.955 0,-31.91 15.958,-15.955 Z"/></g><path style="fill:#fff;fill-opacity:1;fill-rule:nonzero;stroke:none" id="path1412" d="m 1050,490 h 350 v 490.001 h -350 z"/><path style="fill:#238cc5;fill-opacity:1;fill-rule:nonzero;stroke:none" id="path1414" d="m 1050,490 h 350 v 171.622 h -350 z"/><g id="g1416" transform="translate(1093.75,568.1078)"><path style="fill:#238cc5;fill-opacity:1;fill-rule:nonzero;stroke:none" id="path1418" d="M 0,0 -43.75,-43.741 V -78.108 L 0,-34.367 43.75,-78.108 v 34.367 z"/></g><g id="g1420" transform="translate(1093.75,602.4322)"><path style="fill:#238cc5;fill-opacity:1;fill-rule:nonzero;stroke:none" id="path1422" d="M 0,0 -43.75,-43.741 V -78.108 L 0,-34.367 43.75,-78.108 v 34.367 z"/></g><g id="g1424" transform="translate(1093.75,636.7565)"><path style="fill:#51b3da;fill-opacity:1;fill-rule:nonzero;stroke:none" id="path1426" d="M 0,0 -43.75,-43.741 V -78.108 L 0,-34.367 43.75,-78.108 v 34.367 z"/></g><g id="g1428" transform="translate(1093.75,671.0809)"><path style="fill:#51b3da;fill-opacity:1;fill-rule:nonzero;stroke:none" id="path1430" d="M 0,0 -43.75,-43.741 V -78.108 L 0,-34.367 43.75,-78.108 v 34.367 z"/></g><g id="g1432" transform="translate(1093.75,705.4052)"><path style="fill:#80d0e1;fill-opacity:1;fill-rule:nonzero;stroke:none" id="path1434" d="M 0,0 -43.75,-43.741 V -78.108 L 0,-34.367 43.75,-78.108 v 34.367 z"/></g><g id="g1436" transform="translate(1093.75,739.7296)"><path style="fill:#80d0e1;fill-opacity:1;fill-rule:nonzero;stroke:none" id="path1438" d="M 0,0 -43.75,-43.741 V -78.108 L 0,-34.367 43.75,-78.108 v 34.367 z"/></g><g id="g1440" transform="translate(1093.75,774.0539)"><path style="fill:#e8f2fb;fill-opacity:1;fill-rule:nonzero;stroke:none" id="path1442" d="M 0,0 -43.75,-43.741 V -78.108 L 0,-34.367 43.75,-78.108 v 34.367 z"/></g><g id="g1444" transform="translate(1093.75,808.3782)"><path style="fill:#e8f2fb;fill-opacity:1;fill-rule:nonzero;stroke:none" id="path1446" d="M 0,0 -43.75,-43.741 V -78.108 L 0,-34.367 43.75,-78.108 v 34.367 z"/></g><g id="g1448" transform="translate(1093.75,842.7026)"><path style="fill:#e8f2fb;fill-opacity:1;fill-rule:nonzero;stroke:none" id="path1450" d="M 0,0 -43.75,-43.741 V -78.108 L 0,-34.367 43.75,-78.108 v 34.367 z"/></g><g id="g1452" transform="translate(1093.75,877.027)"><path style="fill:#e8f2fb;fill-opacity:1;fill-rule:nonzero;stroke:none" id="path1454" d="M 0,0 -43.75,-43.741 V -78.108 L 0,-34.367 43.75,-78.108 v 34.367 z"/></g><g id="g1456" transform="translate(1093.75,911.3513)"><path style="fill:#e8f2fb;fill-opacity:1;fill-rule:nonzero;stroke:none" id="path1458" d="M 0,0 -43.75,-43.741 V -78.108 L 0,-34.367 43.75,-78.108 v 34.367 z"/></g><g id="g1460" transform="translate(1093.75,945.6757)"><path style="fill:#fff;fill-opacity:1;fill-rule:nonzero;stroke:none" id="path1462" d="M 0,0 -43.75,-43.741 V -78.108 L 0,-34.367 43.75,-78.108 v 34.367 z"/></g><g id="g1464" transform="translate(1093.7501,980.0001)"><path style="fill:#fff;fill-opacity:1;fill-rule:nonzero;stroke:none" id="path1466" d="M 0,0 -43.75,-43.741 V -78.108 L 0,-34.367 43.75,-78.108 v 34.367 z"/></g><g id="g1468" transform="translate(1181.25,568.1078)"><path style="fill:#238cc5;fill-opacity:1;fill-rule:nonzero;stroke:none" id="path1470" d="M 0,0 -43.75,-43.741 V -78.108 L 0,-34.367 43.75,-78.108 v 34.367 z"/></g><g id="g1472" transform="translate(1181.25,602.4322)"><path style="fill:#51b3da;fill-opacity:1;fill-rule:nonzero;stroke:none" id="path1474" d="M 0,0 -43.75,-43.741 V -78.108 L 0,-34.367 43.75,-78.108 v 34.367 z"/></g><g id="g1476" transform="translate(1181.25,636.7565)"><path style="fill:#51b3da;fill-opacity:1;fill-rule:nonzero;stroke:none" id="path1478" d="M 0,0 -43.75,-43.741 V -78.108 L 0,-34.367 43.75,-78.108 v 34.367 z"/></g><g id="g1480" transform="translate(1181.25,671.0809)"><path style="fill:#80d0e1;fill-opacity:1;fill-rule:nonzero;stroke:none" id="path1482" d="M 0,0 -43.75,-43.741 V -78.108 L 0,-34.367 43.75,-78.108 v 34.367 z"/></g><g id="g1484" transform="translate(1181.25,705.4052)"><path style="fill:#80d0e1;fill-opacity:1;fill-rule:nonzero;stroke:none" id="path1486" d="M 0,0 -43.75,-43.741 V -78.108 L 0,-34.367 43.75,-78.108 v 34.367 z"/></g><g id="g1488" transform="translate(1181.25,739.7296)"><path style="fill:#e8f2fb;fill-opacity:1;fill-rule:nonzero;stroke:none" id="path1490" d="M 0,0 -43.75,-43.741 V -78.108 L 0,-34.367 43.75,-78.108 v 34.367 z"/></g><g id="g1492" transform="translate(1181.25,774.0539)"><path style="fill:#e8f2fb;fill-opacity:1;fill-rule:nonzero;stroke:none" id="path1494" d="M 0,0 -43.75,-43.741 V -78.108 L 0,-34.367 43.75,-78.108 v 34.367 z"/></g><g id="g1496" transform="translate(1181.25,808.3782)"><path style="fill:#fff;fill-opacity:1;fill-rule:nonzero;stroke:none" id="path1498" d="M 0,0 -43.75,-43.741 V -78.108 L 0,-34.367 43.75,-78.108 v 34.367 z"/></g><g id="g1500" transform="translate(1181.25,842.7026)"><path style="fill:#fff;fill-opacity:1;fill-rule:nonzero;stroke:none" id="path1502" d="M 0,0 -43.75,-43.741 V -78.108 L 0,-34.367 43.75,-78.108 v 34.367 z"/></g><g id="g1504" transform="translate(1181.25,877.027)"><path style="fill:#fff;fill-opacity:1;fill-rule:nonzero;stroke:none" id="path1506" d="M 0,0 -43.75,-43.741 V -78.108 L 0,-34.367 43.75,-78.108 v 34.367 z"/></g><g id="g1508" transform="translate(1181.25,911.3513)"><path style="fill:#fff;fill-opacity:1;fill-rule:nonzero;stroke:none" id="path1510" d="M 0,0 -43.75,-43.741 V -78.108 L 0,-34.367 43.75,-78.108 v 34.367 z"/></g><g id="g1512" transform="translate(1181.25,945.6757)"><path style="fill:#fff;fill-opacity:1;fill-rule:nonzero;stroke:none" id="path1514" d="M 0,0 -43.75,-43.741 V -78.108 L 0,-34.367 43.75,-78.108 v 34.367 z"/></g><g id="g1516" transform="translate(1181.25,980.0001)"><path style="fill:#fff;fill-opacity:1;fill-rule:nonzero;stroke:none" id="path1518" d="M 0,0 -43.75,-43.741 V -78.108 L 0,-34.367 43.75,-78.108 v 34.367 z"/></g><g id="g1520" transform="translate(1268.75,568.1078)"><path style="fill:#238cc5;fill-opacity:1;fill-rule:nonzero;stroke:none" id="path1522" d="M 0,0 -43.75,-43.741 V -78.108 L 0,-34.367 43.75,-78.108 v 34.367 z"/></g><g id="g1524" transform="translate(1268.75,602.4322)"><path style="fill:#238cc5;fill-opacity:1;fill-rule:nonzero;stroke:none" id="path1526" d="M 0,0 -43.75,-43.741 V -78.108 L 0,-34.367 43.75,-78.108 v 34.367 z"/></g><g id="g1528" transform="translate(1268.75,636.7565)"><path style="fill:#238cc5;fill-opacity:1;fill-rule:nonzero;stroke:none" id="path1530" d="M 0,0 -43.75,-43.741 V -78.108 L 0,-34.367 43.75,-78.108 v 34.367 z"/></g><g id="g1532" transform="translate(1268.75,671.0809)"><path style="fill:#51b3da;fill-opacity:1;fill-rule:nonzero;stroke:none" id="path1534" d="M 0,0 -43.75,-43.741 V -78.108 L 0,-34.367 43.75,-78.108 v 34.367 z"/></g><g id="g1536" transform="translate(1268.75,705.4052)"><path style="fill:#51b3da;fill-opacity:1;fill-rule:nonzero;stroke:none" id="path1538" d="M 0,0 -43.75,-43.741 V -78.108 L 0,-34.367 43.75,-78.108 v 34.367 z"/></g><g id="g1540" transform="translate(1268.75,739.7296)"><path style="fill:#80d0e1;fill-opacity:1;fill-rule:nonzero;stroke:none" id="path1542" d="M 0,0 -43.75,-43.741 V -78.108 L 0,-34.367 43.75,-78.108 v 34.367 z"/></g><g id="g1544" transform="translate(1268.75,774.0539)"><path style="fill:#80d0e1;fill-opacity:1;fill-rule:nonzero;stroke:none" id="path1546" d="M 0,0 -43.75,-43.741 V -78.108 L 0,-34.367 43.75,-78.108 v 34.367 z"/></g><g id="g1548" transform="translate(1268.75,808.3782)"><path style="fill:#e8f2fb;fill-opacity:1;fill-rule:nonzero;stroke:none" id="path1550" d="M 0,0 -43.75,-43.741 V -78.108 L 0,-34.367 43.75,-78.108 v 34.367 z"/></g><g id="g1552" transform="translate(1268.75,842.7026)"><path style="fill:#e8f2fb;fill-opacity:1;fill-rule:nonzero;stroke:none" id="path1554" d="M 0,0 -43.75,-43.741 V -78.108 L 0,-34.367 43.75,-78.108 v 34.367 z"/></g><g id="g1556" transform="translate(1268.75,877.027)"><path style="fill:#fff;fill-opacity:1;fill-rule:nonzero;stroke:none" id="path1558" d="M 0,0 -43.75,-43.741 V -78.108 L 0,-34.367 43.75,-78.108 v 34.367 z"/></g><g id="g1560" transform="translate(1268.75,911.3513)"><path style="fill:#fff;fill-opacity:1;fill-rule:nonzero;stroke:none" id="path1562" d="M 0,0 -43.75,-43.741 V -78.108 L 0,-34.367 43.75,-78.108 v 34.367 z"/></g><g id="g1564" transform="translate(1268.75,945.6757)"><path style="fill:#fff;fill-opacity:1;fill-rule:nonzero;stroke:none" id="path1566" d="M 0,0 -43.75,-43.741 V -78.108 L 0,-34.367 43.75,-78.108 v 34.367 z"/></g><g id="g1568" transform="translate(1268.7498,980.0001)"><path style="fill:#fff;fill-opacity:1;fill-rule:nonzero;stroke:none" id="path1570" d="M 0,0 -43.75,-43.741 V -78.108 L 0,-34.367 43.75,-78.108 v 34.367 z"/></g><g id="g1572" transform="translate(1312.4996,524.367)"><path style="fill:#238cc5;fill-opacity:1;fill-rule:nonzero;stroke:none" id="path1574" d="m 0,0 v -34.367 l 43.75,43.74 43.751,-43.74 V 0 L 43.75,43.741 Z"/></g><g id="g1576" transform="translate(1312.4996,558.6912)"><path style="fill:#238cc5;fill-opacity:1;fill-rule:nonzero;stroke:none" id="path1578" d="m 0,0 v -34.366 l 43.75,43.74 43.751,-43.74 V 0 L 43.75,43.741 Z"/></g><g id="g1580" transform="translate(1312.4996,593.0154)"><path style="fill:#238cc5;fill-opacity:1;fill-rule:nonzero;stroke:none" id="path1582" d="M 0,0 V -34.367 L 43.75,9.374 87.501,-34.367 V 0 L 43.75,43.741 Z"/></g><g id="g1584" transform="translate(1312.4996,627.3405)"><path style="fill:#238cc5;fill-opacity:1;fill-rule:nonzero;stroke:none" id="path1586" d="m 0,0 v -34.367 l 43.75,43.74 43.751,-43.74 V 0 L 43.75,43.74 Z"/></g><g id="g1588" transform="translate(1312.4996,661.6647)"><path style="fill:#51b3da;fill-opacity:1;fill-rule:nonzero;stroke:none" id="path1590" d="M 0,0 V -34.367 L 43.75,9.374 87.501,-34.367 V 0 L 43.75,43.741 Z"/></g><g id="g1592" transform="translate(1312.4996,695.9889)"><path style="fill:#51b3da;fill-opacity:1;fill-rule:nonzero;stroke:none" id="path1594" d="m 0,0 v -34.367 l 43.75,43.74 43.751,-43.74 V 0 L 43.75,43.741 Z"/></g><g id="g1596" transform="translate(1312.4996,730.3131)"><path style="fill:#80d0e1;fill-opacity:1;fill-rule:nonzero;stroke:none" id="path1598" d="m 0,0 v -34.367 l 43.75,43.74 43.751,-43.74 V 0 L 43.75,43.741 Z"/></g><g id="g1600" transform="translate(1312.4996,764.6373)"><path style="fill:#80d0e1;fill-opacity:1;fill-rule:nonzero;stroke:none" id="path1602" d="m 0,0 v -34.366 l 43.75,43.74 43.751,-43.74 V 0 L 43.75,43.741 Z"/></g><g id="g1604" transform="translate(1312.4996,798.9615)"><path style="fill:#e8f2fb;fill-opacity:1;fill-rule:nonzero;stroke:none" id="path1606" d="M 0,0 V -34.367 L 43.75,9.374 87.501,-34.367 V 0 L 43.75,43.741 Z"/></g><g id="g1608" transform="translate(1312.4996,833.2866)"><path style="fill:#e8f2fb;fill-opacity:1;fill-rule:nonzero;stroke:none" id="path1610" d="M 0,0 V -34.367 L 43.75,9.374 87.501,-34.367 V 0 L 43.75,43.74 Z"/></g><g id="g1612" transform="translate(1312.4996,867.6108)"><path style="fill:#fff;fill-opacity:1;fill-rule:nonzero;stroke:none" id="path1614" d="M 0,0 V -34.367 L 43.75,9.374 87.501,-34.367 V 0 L 43.75,43.741 Z"/></g><g id="g1616" transform="translate(1312.4996,901.935)"><path style="fill:#fff;fill-opacity:1;fill-rule:nonzero;stroke:none" id="path1618" d="m 0,0 v -34.367 l 43.75,43.74 43.751,-43.74 V 0 L 43.75,43.741 Z"/></g><g id="g1620" transform="translate(1356.2495,980.0001)"><path style="fill:#fff;fill-opacity:1;fill-rule:nonzero;stroke:none" id="path1622" d="M 0,0 -43.75,-43.741 V -78.108 L 0,-34.367 43.751,-78.108 v 34.367 z"/></g><g id="g1624" transform="translate(1050.0002,489.9996)"><path style="fill:#fff;fill-opacity:1;fill-rule:nonzero;stroke:none" id="path1626" d="M 0,0 V -490 L 350,0 Z"/></g><path style="fill:#3a549d;fill-opacity:1;fill-rule:nonzero;stroke:none" id="path1628" d="m 1050,0 h 350 v 490 h -350 z"/><path style="fill:#238cc5;fill-opacity:1;fill-rule:nonzero;stroke:none" id="path1630" d="m 1050,240.27 h 350 v 249.729 h -350 z"/><g id="g1632" transform="translate(1050.0002,34.3674)"><path style="fill:#3a549d;fill-opacity:1;fill-rule:nonzero;stroke:none" id="path1634" d="M 0,0 V -34.367 L 43.75,9.374 87.5,-34.367 V 0 L 43.75,43.74 Z"/></g><g id="g1636" transform="translate(1093.75,112.4322)"><path style="fill:#416db4;fill-opacity:1;fill-rule:nonzero;stroke:none" id="path1638" d="M 0,0 -43.75,-43.741 V -78.108 L 0,-34.367 43.75,-78.108 v 34.367 z"/></g><g id="g1640" transform="translate(1093.75,146.7565)"><path style="fill:#416db4;fill-opacity:1;fill-rule:nonzero;stroke:none" id="path1642" d="M 0,0 -43.75,-43.741 V -78.108 L 0,-34.367 43.75,-78.108 v 34.367 z"/></g><g id="g1644" transform="translate(1093.75,181.0809)"><path style="fill:#416db4;fill-opacity:1;fill-rule:nonzero;stroke:none" id="path1646" d="M 0,0 -43.75,-43.741 V -78.108 L 0,-34.367 43.75,-78.108 v 34.367 z"/></g><g id="g1648" transform="translate(1093.75,215.4052)"><path style="fill:#416db4;fill-opacity:1;fill-rule:nonzero;stroke:none" id="path1650" d="M 0,0 -43.75,-43.741 V -78.108 L 0,-34.367 43.75,-78.108 v 34.367 z"/></g><g id="g1652" transform="translate(1093.75,249.7296)"><path style="fill:#4b77bb;fill-opacity:1;fill-rule:nonzero;stroke:none" id="path1654" d="M 0,0 -43.75,-43.741 V -78.108 L 0,-34.367 43.75,-78.108 v 34.367 z"/></g><g id="g1656" transform="translate(1093.75,284.0539)"><path style="fill:#4b77bb;fill-opacity:1;fill-rule:nonzero;stroke:none" id="path1658" d="M 0,0 -43.75,-43.741 V -78.108 L 0,-34.367 43.75,-78.108 v 34.367 z"/></g><g id="g1660" transform="translate(1093.75,318.3783)"><path style="fill:#4b77bb;fill-opacity:1;fill-rule:nonzero;stroke:none" id="path1662" d="M 0,0 -43.75,-43.741 V -78.108 L 0,-34.367 43.75,-78.108 v 34.367 z"/></g><g id="g1664" transform="translate(1093.75,352.7026)"><path style="fill:#4b77bb;fill-opacity:1;fill-rule:nonzero;stroke:none" id="path1666" d="M 0,0 -43.75,-43.741 V -78.108 L 0,-34.367 43.75,-78.108 v 34.367 z"/></g><g id="g1668" transform="translate(1093.75,387.0269)"><path style="fill:#4b77bb;fill-opacity:1;fill-rule:nonzero;stroke:none" id="path1670" d="M 0,0 -43.75,-43.741 V -78.108 L 0,-34.367 43.75,-78.108 v 34.367 z"/></g><g id="g1672" transform="translate(1093.75,421.3513)"><path style="fill:#4881c2;fill-opacity:1;fill-rule:nonzero;stroke:none" id="path1674" d="M 0,0 -43.75,-43.741 V -78.108 L 0,-34.367 43.75,-78.108 v 34.367 z"/></g><g id="g1676" transform="translate(1093.75,455.6757)"><path style="fill:#4881c2;fill-opacity:1;fill-rule:nonzero;stroke:none" id="path1678" d="M 0,0 -43.75,-43.741 V -78.108 L 0,-34.367 43.75,-78.108 v 34.367 z"/></g><g id="g1680" transform="translate(1093.75,490)"><path style="fill:#4881c2;fill-opacity:1;fill-rule:nonzero;stroke:none" id="path1682" d="M 0,0 -43.75,-43.741 V -78.108 L 0,-34.367 43.75,-78.108 v 34.367 z"/></g><g id="g1684" transform="translate(1137.5001,34.3674)"><path style="fill:#3a549d;fill-opacity:1;fill-rule:nonzero;stroke:none" id="path1686" d="M 0,0 V -34.367 L 43.75,9.374 87.5,-34.367 V 0 L 43.75,43.74 Z"/></g><g id="g1688" transform="translate(1181.25,112.4322)"><path style="fill:#3a549d;fill-opacity:1;fill-rule:nonzero;stroke:none" id="path1690" d="M 0,0 -43.75,-43.741 V -78.108 L 0,-34.367 43.75,-78.108 v 34.367 z"/></g><g id="g1692" transform="translate(1181.25,146.7565)"><path style="fill:#416db4;fill-opacity:1;fill-rule:nonzero;stroke:none" id="path1694" d="M 0,0 -43.75,-43.741 V -78.108 L 0,-34.367 43.75,-78.108 v 34.367 z"/></g><g id="g1696" transform="translate(1181.25,181.0809)"><path style="fill:#416db4;fill-opacity:1;fill-rule:nonzero;stroke:none" id="path1698" d="M 0,0 -43.75,-43.741 V -78.108 L 0,-34.367 43.75,-78.108 v 34.367 z"/></g><g id="g1700" transform="translate(1181.25,215.4052)"><path style="fill:#416db4;fill-opacity:1;fill-rule:nonzero;stroke:none" id="path1702" d="M 0,0 -43.75,-43.741 V -78.108 L 0,-34.367 43.75,-78.108 v 34.367 z"/></g><g id="g1704" transform="translate(1181.25,249.7296)"><path style="fill:#416db4;fill-opacity:1;fill-rule:nonzero;stroke:none" id="path1706" d="M 0,0 -43.75,-43.741 V -78.108 L 0,-34.367 43.75,-78.108 v 34.367 z"/></g><g id="g1708" transform="translate(1181.25,284.0539)"><path style="fill:#416db4;fill-opacity:1;fill-rule:nonzero;stroke:none" id="path1710" d="M 0,0 -43.75,-43.741 V -78.108 L 0,-34.367 43.75,-78.108 v 34.367 z"/></g><g id="g1712" transform="translate(1181.25,318.3783)"><path style="fill:#416db4;fill-opacity:1;fill-rule:nonzero;stroke:none" id="path1714" d="M 0,0 -43.75,-43.741 V -78.108 L 0,-34.367 43.75,-78.108 v 34.367 z"/></g><g id="g1716" transform="translate(1181.25,352.7026)"><path style="fill:#416db4;fill-opacity:1;fill-rule:nonzero;stroke:none" id="path1718" d="M 0,0 -43.75,-43.741 V -78.108 L 0,-34.367 43.75,-78.108 v 34.367 z"/></g><g id="g1720" transform="translate(1181.25,387.0269)"><path style="fill:#416db4;fill-opacity:1;fill-rule:nonzero;stroke:none" id="path1722" d="M 0,0 -43.75,-43.741 V -78.108 L 0,-34.367 43.75,-78.108 v 34.367 z"/></g><g id="g1724" transform="translate(1181.25,421.3513)"><path style="fill:#4b77bb;fill-opacity:1;fill-rule:nonzero;stroke:none" id="path1726" d="M 0,0 -43.75,-43.741 V -78.108 L 0,-34.367 43.75,-78.108 v 34.367 z"/></g><g id="g1728" transform="translate(1181.25,455.6757)"><path style="fill:#4b77bb;fill-opacity:1;fill-rule:nonzero;stroke:none" id="path1730" d="M 0,0 -43.75,-43.741 V -78.108 L 0,-34.367 43.75,-78.108 v 34.367 z"/></g><g id="g1732" transform="translate(1181.25,490)"><path style="fill:#4881c2;fill-opacity:1;fill-rule:nonzero;stroke:none" id="path1734" d="M 0,0 -43.75,-43.741 V -78.108 L 0,-34.367 43.75,-78.108 v 34.367 z"/></g><g id="g1736" transform="translate(1224.9999,34.3674)"><path style="fill:#3a549d;fill-opacity:1;fill-rule:nonzero;stroke:none" id="path1738" d="M 0,0 V -34.367 L 43.75,9.374 87.5,-34.367 V 0 L 43.75,43.74 Z"/></g><g id="g1740" transform="translate(1268.75,112.4322)"><path style="fill:#3a549d;fill-opacity:1;fill-rule:nonzero;stroke:none" id="path1742" d="M 0,0 -43.75,-43.741 V -78.108 L 0,-34.367 43.75,-78.108 v 34.367 z"/></g><g id="g1744" transform="translate(1268.75,146.7565)"><path style="fill:#3a549d;fill-opacity:1;fill-rule:nonzero;stroke:none" id="path1746" d="M 0,0 -43.75,-43.741 V -78.108 L 0,-34.367 43.75,-78.108 v 34.367 z"/></g><g id="g1748" transform="translate(1268.75,181.0809)"><path style="fill:#416db4;fill-opacity:1;fill-rule:nonzero;stroke:none" id="path1750" d="M 0,0 -43.75,-43.741 V -78.108 L 0,-34.367 43.75,-78.108 v 34.367 z"/></g><g id="g1752" transform="translate(1268.75,215.4052)"><path style="fill:#416db4;fill-opacity:1;fill-rule:nonzero;stroke:none" id="path1754" d="M 0,0 -43.75,-43.741 V -78.108 L 0,-34.367 43.75,-78.108 v 34.367 z"/></g><g id="g1756" transform="translate(1268.75,249.7296)"><path style="fill:#416db4;fill-opacity:1;fill-rule:nonzero;stroke:none" id="path1758" d="M 0,0 -43.75,-43.741 V -78.108 L 0,-34.367 43.75,-78.108 v 34.367 z"/></g><g id="g1760" transform="translate(1268.75,284.0539)"><path style="fill:#416db4;fill-opacity:1;fill-rule:nonzero;stroke:none" id="path1762" d="M 0,0 -43.75,-43.741 V -78.108 L 0,-34.367 43.75,-78.108 v 34.367 z"/></g><g id="g1764" transform="translate(1268.75,318.3783)"><path style="fill:#416db4;fill-opacity:1;fill-rule:nonzero;stroke:none" id="path1766" d="M 0,0 -43.75,-43.741 V -78.108 L 0,-34.367 43.75,-78.108 v 34.367 z"/></g><g id="g1768" transform="translate(1268.75,352.7026)"><path style="fill:#4b77bb;fill-opacity:1;fill-rule:nonzero;stroke:none" id="path1770" d="M 0,0 -43.75,-43.741 V -78.108 L 0,-34.367 43.75,-78.108 v 34.367 z"/></g><g id="g1772" transform="translate(1268.75,387.0269)"><path style="fill:#4b77bb;fill-opacity:1;fill-rule:nonzero;stroke:none" id="path1774" d="M 0,0 -43.75,-43.741 V -78.108 L 0,-34.367 43.75,-78.108 v 34.367 z"/></g><g id="g1776" transform="translate(1268.75,421.3513)"><path style="fill:#4b77bb;fill-opacity:1;fill-rule:nonzero;stroke:none" id="path1778" d="M 0,0 -43.75,-43.741 V -78.108 L 0,-34.367 43.75,-78.108 v 34.367 z"/></g><g id="g1780" transform="translate(1268.75,455.6757)"><path style="fill:#4881c2;fill-opacity:1;fill-rule:nonzero;stroke:none" id="path1782" d="M 0,0 -43.75,-43.741 V -78.108 L 0,-34.367 43.75,-78.108 v 34.367 z"/></g><g id="g1784" transform="translate(1268.75,490)"><path style="fill:#238cc5;fill-opacity:1;fill-rule:nonzero;stroke:none" id="path1786" d="M 0,0 -43.75,-43.741 V -78.108 L 0,-34.367 43.75,-78.108 v 34.367 z"/></g><g id="g1788" transform="translate(1312.4996,34.3674)"><path style="fill:#3a549d;fill-opacity:1;fill-rule:nonzero;stroke:none" id="path1790" d="M 0,0 V -34.367 L 43.75,9.374 87.501,-34.367 V 0 L 43.75,43.74 Z"/></g><g id="g1792" transform="translate(1312.4996,68.6916)"><path style="fill:#3a549d;fill-opacity:1;fill-rule:nonzero;stroke:none" id="path1794" d="M 0,0 V -34.367 L 43.75,9.374 87.501,-34.367 V 0 L 43.75,43.741 Z"/></g><g id="g1796" transform="translate(1312.4996,103.0158)"><path style="fill:#416db4;fill-opacity:1;fill-rule:nonzero;stroke:none" id="path1798" d="m 0,0 v -34.367 l 43.75,43.74 43.751,-43.74 V 0 L 43.75,43.741 Z"/></g><g id="g1800" transform="translate(1312.4996,137.34)"><path style="fill:#416db4;fill-opacity:1;fill-rule:nonzero;stroke:none" id="path1802" d="M 0,0 V -34.367 L 43.75,9.374 87.501,-34.367 V 0 L 43.75,43.741 Z"/></g><g id="g1804" transform="translate(1312.4996,171.6642)"><path style="fill:#416db4;fill-opacity:1;fill-rule:nonzero;stroke:none" id="path1806" d="m 0,0 v -34.367 l 43.75,43.74 43.751,-43.74 V 0 L 43.75,43.741 Z"/></g><g id="g1808" transform="translate(1312.4996,205.9884)"><path style="fill:#416db4;fill-opacity:1;fill-rule:nonzero;stroke:none" id="path1810" d="M 0,0 V -34.367 L 43.75,9.374 87.501,-34.367 V 0 L 43.75,43.741 Z"/></g><g id="g1812" transform="translate(1312.4996,240.3135)"><path style="fill:#416db4;fill-opacity:1;fill-rule:nonzero;stroke:none" id="path1814" d="M 0,0 V -34.367 L 43.75,9.374 87.501,-34.367 V 0 L 43.75,43.74 Z"/></g><g id="g1816" transform="translate(1312.4996,274.6377)"><path style="fill:#416db4;fill-opacity:1;fill-rule:nonzero;stroke:none" id="path1818" d="M 0,0 V -34.367 L 43.75,9.374 87.501,-34.367 V 0 L 43.75,43.741 Z"/></g><g id="g1820" transform="translate(1312.4996,308.9619)"><path style="fill:#416db4;fill-opacity:1;fill-rule:nonzero;stroke:none" id="path1822" d="M 0,0 V -34.367 L 43.75,9.374 87.501,-34.367 V 0 L 43.75,43.741 Z"/></g><g id="g1824" transform="translate(1312.4996,343.2861)"><path style="fill:#4b77bb;fill-opacity:1;fill-rule:nonzero;stroke:none" id="path1826" d="M 0,0 V -34.367 L 43.75,9.374 87.501,-34.367 V 0 L 43.75,43.741 Z"/></g><g id="g1828" transform="translate(1312.4996,377.6103)"><path style="fill:#4b77bb;fill-opacity:1;fill-rule:nonzero;stroke:none" id="path1830" d="m 0,0 v -34.366 l 43.75,43.74 43.751,-43.74 V 0 L 43.75,43.741 Z"/></g><g id="g1832" transform="translate(1312.4996,411.9345)"><path style="fill:#4881c2;fill-opacity:1;fill-rule:nonzero;stroke:none" id="path1834" d="M 0,0 V -34.367 L 43.75,9.374 87.501,-34.367 V 0 L 43.75,43.741 Z"/></g><g id="g1836" transform="translate(1312.4996,446.2596)"><path style="fill:#4881c2;fill-opacity:1;fill-rule:nonzero;stroke:none" id="path1838" d="M 0,0 V -34.367 L 43.75,9.374 87.501,-34.367 V 0 L 43.75,43.74 Z"/></g><g id="g1840" transform="translate(1181.25,774.054)"><path style="fill:#fff;fill-opacity:1;fill-rule:nonzero;stroke:none" id="path1842" d="m 0,0 v -318.378 l 9.292,-9.29 9.291,9.29 V 0 Z"/></g><g id="g1844" transform="translate(1268.75,842.7026)"><path style="fill:#fff;fill-opacity:1;fill-rule:nonzero;stroke:none" id="path1846" d="m 0,0 v -258.593 l 9.292,-9.29 9.291,9.29 V 0 Z"/></g><g id="g1848" transform="translate(1118.9167,717.8378)"><path style="fill:#e8f2fb;fill-opacity:1;fill-rule:nonzero;stroke:none" id="path1850" d="m 0,0 v -318.378 l 9.292,-9.29 9.291,9.29 V 0 Z"/></g><g id="g1852" transform="translate(1337.6667,808.3783)"><path style="fill:#e8f2fb;fill-opacity:1;fill-rule:nonzero;stroke:none" id="path1854" d="m 0,0 v -318.378 l 9.292,-9.29 9.291,9.29 V 0 Z"/></g><g id="g1856" transform="translate(1346.9583,430.5563)"><path style="fill:#e8f2fb;fill-opacity:1;fill-rule:nonzero;stroke:none" id="path1858" d="M 0,0 -9.292,-9.29 0,-18.579 9.292,-9.29 Z"/></g><g id="g1860" transform="translate(1181.2496,402.433)"><path style="fill:#e8f2fb;fill-opacity:1;fill-rule:nonzero;stroke:none" id="path1862" d="M 0,0 -24.87,-24.865 0.001,-49.73 24.871,-24.865 Z"/></g><g id="g1864" transform="translate(1346.9583,461.8063)"><path style="fill:#e8f2fb;fill-opacity:1;fill-rule:nonzero;stroke:none" id="path1866" d="M 0,0 -9.292,-9.29 0,-18.579 9.292,-9.29 Z"/></g><g id="g1868" transform="translate(1278.0415,527.6027)"><path style="fill:#fff;fill-opacity:1;fill-rule:nonzero;stroke:none" id="path1870" d="M 0,0 -9.292,-9.29 0,-18.579 9.292,-9.29 Z"/></g><g id="g1872" transform="translate(1247.3748,504.936)"><path style="fill:#fff;fill-opacity:1;fill-rule:nonzero;stroke:none" id="path1874" d="M 0,0 -15.958,-15.955 0,-31.91 15.958,-15.955 Z"/></g></g></g></svg>